<?xml version="1.0" encoding="UTF-8"?>
<!DOCTYPE svg PUBLIC "-//W3C//DTD SVG 1.1//EN" "http://www.w3.org/Graphics/SVG/1.1/DTD/svg11.dtd">
<!-- Creator: Corel DESIGNER -->
<svg xmlns="http://www.w3.org/2000/svg" xml:space="preserve" width="1in" height="1in" version="1.1" style="shape-rendering:geometricPrecision; text-rendering:geometricPrecision; image-rendering:optimizeQuality; fill-rule:evenodd; clip-rule:evenodd"
viewBox="0 0 1000 1000"
 xmlns:xlink="http://www.w3.org/1999/xlink"
 xmlns:xodm="http://www.corel.com/coreldraw/odm/2003">
 <defs>
  <style type="text/css">
   <![CDATA[
    .fil0 {fill:#FEFEFE;fill-rule:nonzero}
    .fil1 {fill:#373435;fill-rule:nonzero}
   ]]>
  </style>
 </defs>
 <g id="Layer_x0020_1">
  <metadata id="CorelCorpID_0Corel-Layer"/>
  <polygon class="fil0" points="-0.04,1001.21 1001.21,1001.21 1001.21,-0.04 -0.04,-0.04 "/>
  <polygon class="fil1" points="1.11,69.2 35.58,69.2 35.58,0.25 1.11,0.25 "/>
  <polygon class="fil1" points="1.11,138.15 35.58,138.15 35.58,69.2 1.11,69.2 "/>
  <polygon class="fil1" points="1.11,241.54 35.58,241.54 35.58,138.13 1.11,138.13 "/>
  <polygon class="fil1" points="1.11,310.52 35.58,310.52 35.58,276.05 1.11,276.05 "/>
  <polygon class="fil1" points="1.11,379.46 35.58,379.46 35.58,344.98 1.11,344.98 "/>
  <polygon class="fil1" points="1.11,482.87 35.58,482.87 35.58,448.4 1.11,448.4 "/>
  <polygon class="fil1" points="1.11,724.18 35.58,724.18 35.58,586.28 1.11,586.28 "/>
  <polygon class="fil1" points="1.11,999.94 35.58,999.94 35.58,758.63 1.11,758.63 "/>
  <polygon class="fil1" points="35.58,34.72 70.05,34.72 70.05,0.25 35.58,0.25 "/>
  <polygon class="fil1" points="35.58,207.09 70.05,207.09 70.05,241.56 35.58,241.56 "/>
  <polygon class="fil1" points="35.58,310.5 70.05,310.5 70.05,379.44 35.58,379.44 "/>
  <polygon class="fil1" points="35.58,413.91 70.05,413.91 70.05,551.81 35.58,551.81 "/>
  <polygon class="fil1" points="35.58,586.28 70.05,586.28 70.05,620.75 35.58,620.75 "/>
  <polygon class="fil1" points="35.58,758.65 70.05,758.65 70.05,793.12 35.58,793.12 "/>
  <polygon class="fil1" points="35.58,999.94 70.05,999.94 70.05,965.47 35.58,965.47 "/>
  <polygon class="fil1" points="70.05,34.72 104.52,34.72 104.52,0.25 70.05,0.25 "/>
  <polygon class="fil1" points="70.05,69.2 104.52,69.2 104.52,138.13 70.05,138.13 "/>
  <polygon class="fil1" points="70.05,138.13 104.52,138.13 104.52,172.61 70.05,172.61 "/>
  <polygon class="fil1" points="70.05,207.09 104.52,207.09 104.52,241.56 70.05,241.56 "/>
  <polygon class="fil1" points="70.05,276.03 104.52,276.03 104.52,310.5 70.05,310.5 "/>
  <polygon class="fil1" points="70.05,344.97 104.52,344.97 104.52,379.44 70.05,379.44 "/>
  <polygon class="fil1" points="70.05,448.4 104.52,448.4 104.52,482.87 70.05,482.87 "/>
  <polygon class="fil1" points="70.05,517.34 104.52,517.34 104.52,620.75 70.05,620.75 "/>
  <polygon class="fil1" points="70.05,655.22 104.52,655.22 104.52,724.16 70.05,724.16 "/>
  <polygon class="fil1" points="70.05,758.65 104.52,758.65 104.52,793.12 70.05,793.12 "/>
  <polygon class="fil1" points="70.05,827.59 104.52,827.59 104.52,931 70.05,931 "/>
  <polygon class="fil1" points="70.05,999.94 104.52,999.94 104.52,965.47 70.05,965.47 "/>
  <polygon class="fil1" points="104.52,34.72 138.99,34.72 138.99,0.25 104.52,0.25 "/>
  <polygon class="fil1" points="104.52,69.2 138.99,69.2 138.99,138.13 104.52,138.13 "/>
  <polygon class="fil1" points="104.52,138.13 138.99,138.13 138.99,172.61 104.52,172.61 "/>
  <polygon class="fil1" points="104.52,207.09 138.99,207.09 138.99,241.56 104.52,241.56 "/>
  <polygon class="fil1" points="104.52,276.03 138.99,276.03 138.99,310.5 104.52,310.5 "/>
  <polygon class="fil1" points="104.52,344.97 138.99,344.97 138.99,551.81 104.52,551.81 "/>
  <polygon class="fil1" points="104.52,655.22 138.99,655.22 138.99,689.69 104.52,689.69 "/>
  <polygon class="fil1" points="104.52,758.65 138.99,758.65 138.99,793.12 104.52,793.12 "/>
  <polygon class="fil1" points="104.52,827.59 138.99,827.59 138.99,931 104.52,931 "/>
  <polygon class="fil1" points="104.52,999.94 138.99,999.94 138.99,965.47 104.52,965.47 "/>
  <polygon class="fil1" points="138.99,34.72 173.46,34.72 173.46,0.25 138.99,0.25 "/>
  <polygon class="fil1" points="138.99,69.2 173.46,69.2 173.46,138.13 138.99,138.13 "/>
  <polygon class="fil1" points="138.99,138.13 173.46,138.13 173.46,172.61 138.99,172.61 "/>
  <polygon class="fil1" points="138.99,207.09 173.46,207.09 173.46,241.56 138.99,241.56 "/>
  <polygon class="fil1" points="138.99,276.03 173.46,276.03 173.46,413.93 138.99,413.93 "/>
  <polygon class="fil1" points="138.99,448.4 173.46,448.4 173.46,482.87 138.99,482.87 "/>
  <polygon class="fil1" points="138.99,586.28 173.46,586.28 173.46,689.69 138.99,689.69 "/>
  <polygon class="fil1" points="138.99,758.65 173.46,758.65 173.46,793.12 138.99,793.12 "/>
  <polygon class="fil1" points="138.99,827.59 173.46,827.59 173.46,931 138.99,931 "/>
  <polygon class="fil1" points="138.99,999.94 173.46,999.94 173.46,965.47 138.99,965.47 "/>
  <polygon class="fil1" points="173.46,34.72 207.93,34.72 207.93,0.25 173.46,0.25 "/>
  <polygon class="fil1" points="173.46,207.09 207.93,207.09 207.93,241.56 173.46,241.56 "/>
  <polygon class="fil1" points="173.46,276.03 207.93,276.03 207.93,344.97 173.46,344.97 "/>
  <polygon class="fil1" points="173.46,413.91 207.93,413.91 207.93,448.38 173.46,448.38 "/>
  <polygon class="fil1" points="173.46,517.34 207.93,517.34 207.93,551.81 173.46,551.81 "/>
  <polygon class="fil1" points="173.46,758.65 207.93,758.65 207.93,793.12 173.46,793.12 "/>
  <polygon class="fil1" points="173.46,999.94 207.93,999.94 207.93,965.47 173.46,965.47 "/>
  <polygon class="fil1" points="207.93,69.2 242.4,69.2 242.4,0.25 207.93,0.25 "/>
  <polygon class="fil1" points="207.93,69.2 242.4,69.2 242.4,138.13 207.93,138.13 "/>
  <polygon class="fil1" points="207.93,138.13 242.4,138.13 242.4,241.54 207.93,241.54 "/>
  <polygon class="fil1" points="207.93,276.03 242.4,276.03 242.4,310.5 207.93,310.5 "/>
  <polygon class="fil1" points="207.93,344.97 242.4,344.97 242.4,379.44 207.93,379.44 "/>
  <polygon class="fil1" points="207.93,413.91 242.4,413.91 242.4,448.38 207.93,448.38 "/>
  <polygon class="fil1" points="207.93,482.87 242.4,482.87 242.4,517.34 207.93,517.34 "/>
  <polygon class="fil1" points="207.93,551.81 242.4,551.81 242.4,586.28 207.93,586.28 "/>
  <polygon class="fil1" points="207.93,620.75 242.4,620.75 242.4,655.22 207.93,655.22 "/>
  <polygon class="fil1" points="207.93,689.71 242.4,689.71 242.4,724.18 207.93,724.18 "/>
  <polygon class="fil1" points="207.93,999.94 242.4,999.94 242.4,758.63 207.93,758.63 "/>
  <polygon class="fil1" points="242.41,344.97 276.89,344.97 276.89,379.44 242.41,379.44 "/>
  <polygon class="fil1" points="242.41,413.91 276.89,413.91 276.89,551.81 242.41,551.81 "/>
  <polygon class="fil1" points="276.89,69.2 311.36,69.2 311.36,138.13 276.89,138.13 "/>
  <polygon class="fil1" points="276.89,138.13 311.36,138.13 311.36,276.03 276.89,276.03 "/>
  <polygon class="fil1" points="276.89,310.5 311.36,310.5 311.36,448.4 276.89,448.4 "/>
  <polygon class="fil1" points="276.89,482.87 311.36,482.87 311.36,517.34 276.89,517.34 "/>
  <polygon class="fil1" points="276.89,620.75 311.36,620.75 311.36,655.22 276.89,655.22 "/>
  <polygon class="fil1" points="276.89,724.18 311.36,724.18 311.36,758.65 276.89,758.65 "/>
  <polygon class="fil1" points="276.89,793.12 311.36,793.12 311.36,931.02 276.89,931.02 "/>
  <polygon class="fil1" points="276.89,999.94 311.36,999.94 311.36,965.47 276.89,965.47 "/>
  <polygon class="fil1" points="311.36,69.2 345.83,69.2 345.83,0.25 311.36,0.25 "/>
  <polygon class="fil1" points="311.36,103.67 345.83,103.67 345.83,138.13 311.36,138.13 "/>
  <polygon class="fil1" points="311.36,241.56 345.83,241.56 345.83,344.97 311.36,344.97 "/>
  <polygon class="fil1" points="311.36,379.44 345.83,379.44 345.83,620.75 311.36,620.75 "/>
  <polygon class="fil1" points="311.36,655.22 345.83,655.22 345.83,689.69 311.36,689.69 "/>
  <polygon class="fil1" points="311.36,793.12 345.83,793.12 345.83,827.59 311.36,827.59 "/>
  <polygon class="fil1" points="311.36,896.53 345.83,896.53 345.83,965.47 311.36,965.47 "/>
  <polygon class="fil1" points="345.83,103.67 380.3,103.67 380.3,138.13 345.83,138.13 "/>
  <polygon class="fil1" points="345.83,138.13 380.3,138.13 380.3,241.54 345.83,241.54 "/>
  <polygon class="fil1" points="345.83,310.5 380.3,310.5 380.3,379.44 345.83,379.44 "/>
  <polygon class="fil1" points="345.83,413.91 380.3,413.91 380.3,482.85 345.83,482.85 "/>
  <polygon class="fil1" points="345.83,551.81 380.3,551.81 380.3,586.28 345.83,586.28 "/>
  <polygon class="fil1" points="345.83,689.71 380.3,689.71 380.3,724.18 345.83,724.18 "/>
  <polygon class="fil1" points="345.83,793.12 380.3,793.12 380.3,827.59 345.83,827.59 "/>
  <polygon class="fil1" points="380.3,34.72 414.77,34.72 414.77,0.25 380.3,0.25 "/>
  <polygon class="fil1" points="380.3,103.67 414.77,103.67 414.77,138.13 380.3,138.13 "/>
  <polygon class="fil1" points="380.3,172.62 414.77,172.62 414.77,207.09 380.3,207.09 "/>
  <polygon class="fil1" points="380.3,276.03 414.77,276.03 414.77,344.97 380.3,344.97 "/>
  <polygon class="fil1" points="380.3,379.44 414.77,379.44 414.77,448.38 380.3,448.38 "/>
  <polygon class="fil1" points="380.3,482.87 414.77,482.87 414.77,586.28 380.3,586.28 "/>
  <polygon class="fil1" points="380.3,620.75 414.77,620.75 414.77,655.22 380.3,655.22 "/>
  <polygon class="fil1" points="380.3,689.71 414.77,689.71 414.77,758.65 380.3,758.65 "/>
  <polygon class="fil1" points="380.3,793.12 414.77,793.12 414.77,827.59 380.3,827.59 "/>
  <polygon class="fil1" points="380.3,862.06 414.77,862.06 414.77,896.53 380.3,896.53 "/>
  <polygon class="fil1" points="380.3,999.94 414.77,999.94 414.77,965.47 380.3,965.47 "/>
  <polygon class="fil1" points="414.78,69.2 449.25,69.2 449.25,0.25 414.78,0.25 "/>
  <polygon class="fil1" points="414.77,69.2 449.24,69.2 449.24,138.13 414.77,138.13 "/>
  <polygon class="fil1" points="414.77,138.13 449.24,138.13 449.24,241.54 414.77,241.54 "/>
  <polygon class="fil1" points="414.77,276.03 449.24,276.03 449.24,344.97 414.77,344.97 "/>
  <polygon class="fil1" points="414.77,448.4 449.24,448.4 449.24,482.87 414.77,482.87 "/>
  <polygon class="fil1" points="414.77,517.34 449.24,517.34 449.24,551.81 414.77,551.81 "/>
  <polygon class="fil1" points="414.77,586.28 449.24,586.28 449.24,620.75 414.77,620.75 "/>
  <polygon class="fil1" points="414.77,655.22 449.24,655.22 449.24,724.16 414.77,724.16 "/>
  <polygon class="fil1" points="414.77,758.65 449.24,758.65 449.24,793.12 414.77,793.12 "/>
  <polygon class="fil1" points="414.77,827.59 449.24,827.59 449.24,896.53 414.77,896.53 "/>
  <polygon class="fil1" points="414.78,999.94 449.25,999.94 449.25,931 414.78,931 "/>
  <polygon class="fil1" points="449.24,69.2 483.72,69.2 483.72,0.25 449.24,0.25 "/>
  <polygon class="fil1" points="449.24,138.13 483.71,138.13 483.71,207.07 449.24,207.07 "/>
  <polygon class="fil1" points="449.24,241.56 483.71,241.56 483.71,276.03 449.24,276.03 "/>
  <polygon class="fil1" points="449.24,448.4 483.71,448.4 483.71,551.81 449.24,551.81 "/>
  <polygon class="fil1" points="449.24,724.18 483.71,724.18 483.71,827.59 449.24,827.59 "/>
  <polygon class="fil1" points="483.72,34.72 518.2,34.72 518.2,69.2 483.72,69.2 "/>
  <polygon class="fil1" points="483.72,172.62 518.2,172.62 518.2,241.56 483.72,241.56 "/>
  <polygon class="fil1" points="483.72,276.03 518.2,276.03 518.2,310.5 483.72,310.5 "/>
  <polygon class="fil1" points="483.72,379.44 518.2,379.44 518.2,413.91 483.72,413.91 "/>
  <polygon class="fil1" points="483.72,448.4 518.2,448.4 518.2,517.34 483.72,517.34 "/>
  <polygon class="fil1" points="483.72,551.81 518.2,551.81 518.2,586.28 483.72,586.28 "/>
  <polygon class="fil1" points="483.72,655.22 518.2,655.22 518.2,689.69 483.72,689.69 "/>
  <polygon class="fil1" points="483.72,724.18 518.2,724.18 518.2,793.12 483.72,793.12 "/>
  <polygon class="fil1" points="483.72,827.59 518.2,827.59 518.2,862.06 483.72,862.06 "/>
  <polygon class="fil1" points="483.72,999.94 518.2,999.94 518.2,896.53 483.72,896.53 "/>
  <polygon class="fil1" points="518.18,69.2 552.65,69.2 552.65,0.25 518.18,0.25 "/>
  <polygon class="fil1" points="518.2,69.2 552.67,69.2 552.67,138.13 518.2,138.13 "/>
  <polygon class="fil1" points="518.2,172.62 552.67,172.62 552.67,207.09 518.2,207.09 "/>
  <polygon class="fil1" points="518.2,241.56 552.67,241.56 552.67,310.5 518.2,310.5 "/>
  <polygon class="fil1" points="518.2,344.97 552.67,344.97 552.67,379.44 518.2,379.44 "/>
  <polygon class="fil1" points="518.2,413.91 552.67,413.91 552.67,517.33 518.2,517.33 "/>
  <polygon class="fil1" points="518.2,551.81 552.67,551.81 552.67,586.28 518.2,586.28 "/>
  <polygon class="fil1" points="518.2,620.75 552.67,620.75 552.67,655.22 518.2,655.22 "/>
  <polygon class="fil1" points="518.2,689.71 552.67,689.71 552.67,965.48 518.2,965.48 "/>
  <polygon class="fil1" points="552.67,69.2 587.15,69.2 587.15,0.25 552.67,0.25 "/>
  <polygon class="fil1" points="552.67,69.2 587.13,69.2 587.13,138.13 552.67,138.13 "/>
  <polygon class="fil1" points="552.67,172.62 587.13,172.62 587.13,241.56 552.67,241.56 "/>
  <polygon class="fil1" points="552.67,310.5 587.13,310.5 587.13,344.97 552.67,344.97 "/>
  <polygon class="fil1" points="552.67,379.44 587.13,379.44 587.13,586.28 552.67,586.28 "/>
  <polygon class="fil1" points="552.67,620.75 587.13,620.75 587.13,689.69 552.67,689.69 "/>
  <polygon class="fil1" points="552.67,724.18 587.13,724.18 587.13,827.59 552.67,827.59 "/>
  <polygon class="fil1" points="552.67,862.06 587.13,862.06 587.13,931 552.67,931 "/>
  <polygon class="fil1" points="587.13,69.2 621.61,69.2 621.61,0.25 587.13,0.25 "/>
  <polygon class="fil1" points="587.13,103.67 621.61,103.67 621.61,138.13 587.13,138.13 "/>
  <polygon class="fil1" points="587.13,138.13 621.61,138.13 621.61,172.61 587.13,172.61 "/>
  <polygon class="fil1" points="587.13,276.03 621.61,276.03 621.61,379.44 587.13,379.44 "/>
  <polygon class="fil1" points="587.13,413.91 621.61,413.91 621.61,448.38 587.13,448.38 "/>
  <polygon class="fil1" points="587.13,482.87 621.61,482.87 621.61,517.34 587.13,517.34 "/>
  <polygon class="fil1" points="587.13,551.81 621.61,551.81 621.61,655.22 587.13,655.22 "/>
  <polygon class="fil1" points="587.13,724.18 621.61,724.18 621.61,758.65 587.13,758.65 "/>
  <polygon class="fil1" points="587.13,896.53 621.61,896.53 621.61,931 587.13,931 "/>
  <polygon class="fil1" points="587.13,999.94 621.61,999.94 621.61,965.47 587.13,965.47 "/>
  <polygon class="fil1" points="621.61,34.72 656.07,34.72 656.07,0.25 621.61,0.25 "/>
  <polygon class="fil1" points="621.61,138.13 656.07,138.13 656.07,172.61 621.61,172.61 "/>
  <polygon class="fil1" points="621.61,207.09 656.07,207.09 656.07,241.56 621.61,241.56 "/>
  <polygon class="fil1" points="621.61,276.03 656.07,276.03 656.07,344.97 621.61,344.97 "/>
  <polygon class="fil1" points="621.61,482.87 656.07,482.87 656.07,620.76 621.61,620.76 "/>
  <polygon class="fil1" points="621.61,758.65 656.07,758.65 656.07,827.59 621.61,827.59 "/>
  <polygon class="fil1" points="621.61,862.06 656.07,862.06 656.07,896.53 621.61,896.53 "/>
  <polygon class="fil1" points="621.61,931.02 656.07,931.02 656.07,965.48 621.61,965.48 "/>
  <polygon class="fil1" points="656.07,34.72 690.55,34.72 690.55,0.25 656.07,0.25 "/>
  <polygon class="fil1" points="656.07,69.2 690.55,69.2 690.55,103.67 656.07,103.67 "/>
  <polygon class="fil1" points="656.07,138.13 690.55,138.13 690.55,172.61 656.07,172.61 "/>
  <polygon class="fil1" points="656.07,241.56 690.55,241.56 690.55,344.97 656.07,344.97 "/>
  <polygon class="fil1" points="656.07,448.4 690.55,448.4 690.55,482.87 656.07,482.87 "/>
  <polygon class="fil1" points="656.07,517.34 690.55,517.34 690.55,551.81 656.07,551.81 "/>
  <polygon class="fil1" points="656.07,586.28 690.55,586.28 690.55,620.75 656.07,620.75 "/>
  <polygon class="fil1" points="656.07,689.71 690.55,689.71 690.55,724.18 656.07,724.18 "/>
  <polygon class="fil1" points="656.07,758.65 690.55,758.65 690.55,827.59 656.07,827.59 "/>
  <polygon class="fil1" points="656.07,896.53 690.55,896.53 690.55,931 656.07,931 "/>
  <polygon class="fil1" points="656.07,999.94 690.55,999.94 690.55,965.47 656.07,965.47 "/>
  <polygon class="fil1" points="690.55,69.2 725.02,69.2 725.02,0.25 690.55,0.25 "/>
  <polygon class="fil1" points="690.55,138.13 725.02,138.13 725.02,172.61 690.55,172.61 "/>
  <polygon class="fil1" points="690.55,207.09 725.02,207.09 725.02,276.03 690.55,276.03 "/>
  <polygon class="fil1" points="690.55,344.97 725.02,344.97 725.02,413.91 690.55,413.91 "/>
  <polygon class="fil1" points="690.55,448.4 725.02,448.4 725.02,517.34 690.55,517.34 "/>
  <polygon class="fil1" points="690.55,586.28 725.02,586.28 725.02,655.22 690.55,655.22 "/>
  <polygon class="fil1" points="690.55,689.71 725.02,689.71 725.02,896.54 690.55,896.54 "/>
  <polygon class="fil1" points="690.55,931.02 725.02,931.02 725.02,965.48 690.55,965.48 "/>
  <polygon class="fil1" points="725.02,344.97 759.49,344.97 759.49,379.44 725.02,379.44 "/>
  <polygon class="fil1" points="725.02,413.91 759.49,413.91 759.49,482.85 725.02,482.85 "/>
  <polygon class="fil1" points="725.02,517.34 759.49,517.34 759.49,551.81 725.02,551.81 "/>
  <polygon class="fil1" points="725.02,586.28 759.49,586.28 759.49,620.75 725.02,620.75 "/>
  <polygon class="fil1" points="725.02,689.71 759.49,689.71 759.49,724.18 725.02,724.18 "/>
  <polygon class="fil1" points="725.02,827.59 759.49,827.59 759.49,862.06 725.02,862.06 "/>
  <polygon class="fil1" points="725.02,896.53 759.49,896.53 759.49,931 725.02,931 "/>
  <polygon class="fil1" points="725.02,999.94 759.5,999.94 759.5,965.47 725.02,965.47 "/>
  <polygon class="fil1" points="759.5,69.2 793.97,69.2 793.97,0.25 759.5,0.25 "/>
  <polygon class="fil1" points="759.5,69.2 793.97,69.2 793.97,138.13 759.5,138.13 "/>
  <polygon class="fil1" points="759.5,138.13 793.97,138.13 793.97,241.54 759.5,241.54 "/>
  <polygon class="fil1" points="759.5,276.03 793.97,276.03 793.97,344.97 759.5,344.97 "/>
  <polygon class="fil1" points="759.5,379.44 793.97,379.44 793.97,413.91 759.5,413.91 "/>
  <polygon class="fil1" points="759.5,448.4 793.97,448.4 793.97,551.81 759.5,551.81 "/>
  <polygon class="fil1" points="759.5,586.28 793.97,586.28 793.97,724.18 759.5,724.18 "/>
  <polygon class="fil1" points="759.5,758.65 793.97,758.65 793.97,793.12 759.5,793.12 "/>
  <polygon class="fil1" points="759.5,827.59 793.97,827.59 793.97,862.06 759.5,862.06 "/>
  <polygon class="fil1" points="759.5,896.53 793.97,896.53 793.97,931 759.5,931 "/>
  <polygon class="fil1" points="759.5,999.94 793.97,999.94 793.97,965.47 759.5,965.47 "/>
  <polygon class="fil1" points="793.97,34.72 828.44,34.72 828.44,0.25 793.97,0.25 "/>
  <polygon class="fil1" points="793.97,207.09 828.44,207.09 828.44,241.56 793.97,241.56 "/>
  <polygon class="fil1" points="793.97,276.03 828.44,276.03 828.44,413.93 793.97,413.93 "/>
  <polygon class="fil1" points="793.97,448.4 828.44,448.4 828.44,482.87 793.97,482.87 "/>
  <polygon class="fil1" points="793.97,551.81 828.44,551.81 828.44,724.18 793.97,724.18 "/>
  <polygon class="fil1" points="793.97,827.59 828.44,827.59 828.44,862.06 793.97,862.06 "/>
  <polygon class="fil1" points="793.97,896.53 828.44,896.53 828.44,931 793.97,931 "/>
  <polygon class="fil1" points="793.97,999.94 828.44,999.94 828.44,965.47 793.97,965.47 "/>
  <polygon class="fil1" points="828.44,34.72 862.91,34.72 862.91,0.25 828.44,0.25 "/>
  <polygon class="fil1" points="828.44,69.2 862.91,69.2 862.91,138.13 828.44,138.13 "/>
  <polygon class="fil1" points="828.44,138.13 862.91,138.13 862.91,172.61 828.44,172.61 "/>
  <polygon class="fil1" points="828.44,207.09 862.91,207.09 862.91,241.56 828.44,241.56 "/>
  <polygon class="fil1" points="828.44,276.03 862.91,276.03 862.91,379.44 828.44,379.44 "/>
  <polygon class="fil1" points="828.44,448.4 862.91,448.4 862.91,482.87 828.44,482.87 "/>
  <polygon class="fil1" points="828.44,517.34 862.91,517.34 862.91,551.81 828.44,551.81 "/>
  <polygon class="fil1" points="828.44,586.28 862.91,586.28 862.91,620.75 828.44,620.75 "/>
  <polygon class="fil1" points="828.44,689.71 862.91,689.71 862.91,862.07 828.44,862.07 "/>
  <polygon class="fil1" points="828.44,896.53 862.91,896.53 862.91,931 828.44,931 "/>
  <polygon class="fil1" points="828.44,999.94 862.91,999.94 862.91,965.47 828.44,965.47 "/>
  <polygon class="fil1" points="862.91,34.72 897.38,34.72 897.38,0.25 862.91,0.25 "/>
  <polygon class="fil1" points="862.91,69.2 897.38,69.2 897.38,138.13 862.91,138.13 "/>
  <polygon class="fil1" points="862.91,138.13 897.38,138.13 897.38,172.61 862.91,172.61 "/>
  <polygon class="fil1" points="862.91,207.09 897.38,207.09 897.38,241.56 862.91,241.56 "/>
  <polygon class="fil1" points="862.91,276.03 897.38,276.03 897.38,310.5 862.91,310.5 "/>
  <polygon class="fil1" points="862.91,379.44 897.38,379.44 897.38,448.38 862.91,448.38 "/>
  <polygon class="fil1" points="862.91,482.87 897.38,482.87 897.38,517.34 862.91,517.34 "/>
  <polygon class="fil1" points="862.91,551.81 897.38,551.81 897.38,586.28 862.91,586.28 "/>
  <polygon class="fil1" points="862.91,724.18 897.38,724.18 897.38,793.12 862.91,793.12 "/>
  <polygon class="fil1" points="862.91,862.06 897.38,862.06 897.38,965.47 862.91,965.47 "/>
  <polygon class="fil1" points="897.38,34.72 931.86,34.72 931.86,0.25 897.38,0.25 "/>
  <polygon class="fil1" points="897.38,69.2 931.86,69.2 931.86,138.13 897.38,138.13 "/>
  <polygon class="fil1" points="897.38,138.13 931.86,138.13 931.86,172.61 897.38,172.61 "/>
  <polygon class="fil1" points="897.38,207.09 931.86,207.09 931.86,241.56 897.38,241.56 "/>
  <polygon class="fil1" points="897.38,276.03 931.86,276.03 931.86,310.5 897.38,310.5 "/>
  <polygon class="fil1" points="897.38,413.91 931.86,413.91 931.86,448.38 897.38,448.38 "/>
  <polygon class="fil1" points="897.38,482.87 931.86,482.87 931.86,517.34 897.38,517.34 "/>
  <polygon class="fil1" points="897.38,551.81 931.86,551.81 931.86,655.22 897.38,655.22 "/>
  <polygon class="fil1" points="897.38,689.71 931.86,689.71 931.86,793.12 897.38,793.12 "/>
  <polygon class="fil1" points="897.38,827.59 931.86,827.59 931.86,931 897.38,931 "/>
  <polygon class="fil1" points="897.38,999.94 931.86,999.94 931.86,965.47 897.38,965.47 "/>
  <polygon class="fil1" points="931.87,34.72 966.34,34.72 966.34,0.25 931.87,0.25 "/>
  <polygon class="fil1" points="931.86,207.09 966.33,207.09 966.33,241.56 931.86,241.56 "/>
  <polygon class="fil1" points="931.86,379.44 966.33,379.44 966.33,413.91 931.86,413.91 "/>
  <polygon class="fil1" points="931.86,517.34 966.33,517.34 966.33,551.81 931.86,551.81 "/>
  <polygon class="fil1" points="931.86,655.22 966.33,655.22 966.33,758.63 931.86,758.63 "/>
  <polygon class="fil1" points="931.86,862.06 966.33,862.06 966.33,965.47 931.86,965.47 "/>
  <polygon class="fil1" points="966.33,69.2 1000.8,69.2 1000.8,0.25 966.33,0.25 "/>
  <polygon class="fil1" points="966.33,138.15 1000.8,138.15 1000.8,69.2 966.33,69.2 "/>
  <polygon class="fil1" points="966.33,241.54 1000.8,241.54 1000.8,138.13 966.33,138.13 "/>
  <polygon class="fil1" points="966.33,344.97 1000.8,344.97 1000.8,310.5 966.33,310.5 "/>
  <polygon class="fil1" points="966.33,482.87 1000.8,482.87 1000.8,448.4 966.33,448.4 "/>
  <polygon class="fil1" points="966.33,620.75 1000.8,620.75 1000.8,586.28 966.33,586.28 "/>
  <polygon class="fil1" points="966.33,758.65 1000.8,758.65 1000.8,689.71 966.33,689.71 "/>
  <polygon class="fil1" points="966.33,896.54 1000.8,896.54 1000.8,862.07 966.33,862.07 "/>
 </g>
</svg>
