<?xml version="1.0" encoding="UTF-8"?>
<!DOCTYPE svg PUBLIC "-//W3C//DTD SVG 1.1//EN" "http://www.w3.org/Graphics/SVG/1.1/DTD/svg11.dtd">
<!-- Creator: Corel DESIGNER -->
<svg xmlns="http://www.w3.org/2000/svg" xml:space="preserve" width="34mm" height="34mm" version="1.1" style="shape-rendering:geometricPrecision; text-rendering:geometricPrecision; image-rendering:optimizeQuality; fill-rule:evenodd; clip-rule:evenodd"
viewBox="0 0 3400 3400"
 xmlns:xlink="http://www.w3.org/1999/xlink"
 xmlns:xodm="http://www.corel.com/coreldraw/odm/2003"
 inkscape:version="1.2.2 (732a01da63, 2022-12-09)"
 sodipodi:docname="DQ00040.svg"
 xmlns:inkscape="http://www.inkscape.org/namespaces/inkscape"
 xmlns:sodipodi="http://sodipodi.sourceforge.net/DTD/sodipodi-0.dtd"
 xmlns:svg="http://www.w3.org/2000/svg">
 <defs>
  <style type="text/css">
   <![CDATA[
    .fil1 {fill:#FF0010}
    .fil0 {fill:#FF0010;fill-rule:nonzero}
   ]]>
  </style>
 </defs>
 <g id="Layer_x0020_1">
  <metadata id="CorelCorpID_0Corel-Layer"/>
  <sodipodi:namedview id="namedview5533" pagecolor="#ffffff" bordercolor="#666666" borderopacity="1.0" inkscape:showpageshadow="2" inkscape:pageopacity="0.0" inkscape:pagecheckerboard="0" inkscape:deskcolor="#d1d1d1" inkscape:document-units="mm" showgrid="false" inkscape:zoom="5.8012346" inkscape:cx="39.043413" inkscape:cy="48.093211" inkscape:window-width="1858" inkscape:window-height="1057" inkscape:window-x="54" inkscape:window-y="457" inkscape:window-maximized="1" inkscape:current-layer="layer1"/>
  <g id="layer1" inkscape:label="Layer 1" inkscape:groupmode="layer">
   <path id="path5547" class="fil0" d="M1550.37 2777.46c-265.24,-32.31 -536.36,-181.7 -708.5,-390.39 -72.27,-87.61 -169.55,-263.12 -196.72,-354.9 -8.79,-29.69 -18.69,-53.98 -22.01,-53.98 -3.32,0 -65.28,54.86 -137.69,121.92l-131.66 121.92 0 -83.82 0 -83.82 -171.45 0.01 -171.45 0 0 -171.08 0 -171.08 168.28 -3.54 168.28 -3.54 3.77 -86.27 3.77 -86.27 111.76 102.14c61.47,56.18 115.25,102.14 119.52,102.14 4.27,0 9.43,-44.29 11.47,-98.43l3.71 -98.43 96.51 -33.77 96.51 -33.77 -10.23 52.82c-5.63,29.05 -10.48,104.77 -10.78,168.26 -2,418.2 294.32,791.18 706.6,889.4 122.73,29.24 314.89,26.22 441.08,-6.92 315.8,-82.93 573.31,-340.85 656.5,-657.56 33.64,-128.06 36.04,-318.78 5.55,-441.97 -49.43,-199.75 -178.93,-398.47 -335.2,-514.35l-77.07 -57.15 -0.5 -276.23 -0.5 -276.23 -482.61 0.03 -482.6 0 0 172.7 0 172.7 -79.38 -9.04c-43.66,-4.97 -83.66,-11.59 -88.9,-14.7 -5.24,-3.11 -9.53,-113.9 -9.53,-246.21l0 -240.55 666.76 0 666.75 0 0 309.99 0 309.99 104.78 106.69c183.81,187.17 286.87,406.38 313.42,666.62 7.27,71.3 9.84,138.45 5.71,149.23 -14.35,37.4 14.91,18.23 134.9,-88.41l120.65 -107.22 3.73 88.56 3.73 88.56 170.88 -0.01 170.9 0 0 171.45 0 171.45 -170.87 0 -170.87 0 -3.76 80.93 -3.75 80.93 -138.66 -119.03c-76.26,-65.47 -143.41,-119.03 -149.23,-119.03 -5.81,0 -10.64,10 -10.72,22.23 -0.2,35.66 -79.37,207 -132.68,287.31 -232.15,349.75 -643.71,540.23 -1058.19,489.74l-0.01 -0.02zm-976.88 -872.57c22.28,-24.69 21.2,-26.88 -44.45,-89.51 -60.24,-57.47 -68.25,-61.62 -76.41,-39.59 -8.4,22.69 -22.56,24.61 -180.98,24.61l-171.86 0 0 76.2 0 76.2 172.64 0c161.76,0 173.06,1.6 179.26,25.31 6.28,24.02 8.99,23.44 52.79,-11.3 25.39,-20.14 56.45,-48 69.01,-61.92zm2549.78 47.91l176.92 0 0 -76.2 0 -76.2 -177.8 0c-172.13,0 -177.8,-0.9 -177.8,-26.66 0,-22.72 -11.21,-16.94 -75.85,39.05l-75.85 65.71 72.68 63.73c64.91,56.92 73.11,60.89 76.73,37.15 3.89,-25.51 11.2,-26.58 180.98,-26.58l-0.01 0zm-2667.88 -514.06c0,-55.67 20.26,-69.43 176.71,-120.01 235.13,-76.02 655.31,-153.33 833.38,-153.33l82.11 0 0 45.51c0,25.03 4.79,43.6 10.64,41.28 14.52,-5.77 228.35,-193.14 229.5,-201.08 1.12,-7.79 -222.9,-203.2 -232.95,-203.2 -3.96,0 -7.2,20 -7.2,44.45l0 44.45 -73.03 -0.07c-222.24,-0.2 -815.72,-125.29 -971.55,-204.76 -41.67,-21.25 -47.63,-29.99 -47.63,-69.84 0,-31.7 4.83,-43.43 15.88,-38.56 116.83,51.45 208.69,82.46 349.02,117.8 183.37,46.19 478.95,93.65 583.92,93.76l66.16 0.07 3.69 -101.52 3.69 -101.52 222.25 202.98c122.24,111.64 222.25,207.77 222.25,213.61 0,5.84 -100.01,100.24 -222.25,209.78l-222.25 199.15 -3.71 -95.34 -3.71 -95.34 -78.84 0.2c-222.54,0.7 -781.84,124.07 -894.37,197.35 -39.22,25.54 -41.72,23.99 -41.72,-25.84l0.01 0.02z"/>
   <rect id="rect163" class="fil1" x="360.89" y="2712.5" width="180" height="500"/>
   <rect id="rect163-2" class="fil1" x="2810.89" y="2712.5" width="180" height="500"/>
   <rect id="rect163-4" class="fil1" transform="matrix(0.0105043 0.999945 -0.999917 0.0128606 959.062 2887.5)" width="174.25" height="448.21"/>
   <rect id="rect163-4-7" class="fil1" transform="matrix(0.0105043 0.999945 -0.999917 0.0128606 1584.07 2887.5)" width="174.25" height="448.21"/>
   <rect id="rect163-4-7-2" class="fil1" transform="matrix(0.0105043 0.999945 -0.999917 0.0128606 2209.07 2887.5)" width="174.25" height="448.21"/>
   <rect id="rect163-4-8" class="fil1" transform="matrix(0.0105043 0.999945 -0.999917 0.0128606 2818.27 2887.5)" width="174.25" height="448.21"/>
  </g>
 </g>
</svg>
