<?xml version="1.0" encoding="UTF-8"?>
<!DOCTYPE svg PUBLIC "-//W3C//DTD SVG 1.1//EN" "http://www.w3.org/Graphics/SVG/1.1/DTD/svg11.dtd">
<!-- Creator: Corel DESIGNER -->
<svg xmlns="http://www.w3.org/2000/svg" xml:space="preserve" width="3.49999in" height="1.5748in" version="1.1" style="shape-rendering:geometricPrecision; text-rendering:geometricPrecision; image-rendering:optimizeQuality; fill-rule:evenodd; clip-rule:evenodd"
viewBox="0 0 3499.99 1574.8"
 xmlns:xlink="http://www.w3.org/1999/xlink"
 xmlns:xodm="http://www.corel.com/coreldraw/odm/2003">
 <defs>
  <style type="text/css">
   <![CDATA[
    .str0 {stroke:black;stroke-width:3.11;stroke-linecap:round;stroke-linejoin:round;stroke-miterlimit:22.9256}
    .str1 {stroke:#373435;stroke-width:4.17;stroke-linecap:round;stroke-linejoin:round;stroke-miterlimit:22.9256}
    .str2 {stroke:#373435;stroke-width:6.94;stroke-linecap:round;stroke-linejoin:round;stroke-miterlimit:22.9256}
    .fil1 {fill:none}
    .fil4 {fill:#FEFEFE}
    .fil2 {fill:white}
    .fil3 {fill:#373435;fill-rule:nonzero}
    .fil0 {fill:black;fill-opacity:0.098039}
   ]]>
  </style>
 </defs>
 <g id="_60290B">
  <metadata id="CorelCorpID_0Corel-Layer"/>
  <g id="_1465977532784">
   <path class="fil0" d="M2245.87 551.53l7.81 40.05 13 33.12 -108.06 63.73 -8.66 -0.39 -11.81 -33.46 0 -98.82 11.81 -21.65 8.66 -7.87 35.83 0 51.41 25.31zm754.89 -111.53l-239.76 138.58 -1.57 164.96 -259.45 151.57 -18.5 6.3 0 -207.87 518.9 -300.39 0.39 46.85zm94.09 288.58l20.08 -18.5 16.54 -5.51 35.83 -0.39 0 74.41 -34.25 -1.57 -32.68 -17.32 -5.51 -5.12 0 -25.98zm188.58 -194.88l-474.8 275.98 63.78 5.91 303.94 5.51 38.98 -5.12 55.12 -22.83 30.31 -33.07 0 79.92 -5.91 11.02 -35.83 30.71 -49.21 17.32 -106.3 5.12 -44.88 38.58 -58.66 30.31 0.39 439.37 -5.91 16.54 -13.39 20.08 -35.83 25.2 -35.43 14.57 -67.32 10.63 -20.08 0.39 -18.9 -3.94 -3.54 -429.92 -5.51 -61.42 -18.5 -3.54 -0.39 -79.92 72.83 0.39 88.98 -11.02 18.5 -5.51 -16.93 -5.91 -158.27 -4.72 2.36 -5.91 11.42 1.57 5.51 -289.37 483.86 -279.92 -0.39 212.99z"/>
   <path class="fil1 str0" d="M2477.92 697.48c-22.05,-19.69 -22.05,-19.69 -43.7,-39.37 -22.44,-18.11 -22.44,-18.11 -44.49,-35.83 -22.44,-16.14 -22.44,-16.14 -45.28,-31.89 -22.44,-14.17 -22.44,-14.17 -45.28,-27.95 -22.44,-12.2 -22.44,-12.2 -45.28,-23.62 -22.44,-10.24 -22.44,-10.24 -44.88,-19.69 -22.05,-7.48 -22.05,-7.48 -44.49,-14.96 -21.65,-5.12 -21.65,-5.12 -43.31,-10.24"/>
   <path class="fil1 str0" d="M2122.02 705.75c22.05,19.69 22.05,19.69 43.7,39.37 22.44,18.11 22.44,18.11 44.49,35.83 22.44,16.14 22.44,16.14 45.28,31.89 22.44,14.17 22.44,14.17 45.28,27.95 22.05,12.2 22.05,12.2 44.88,23.62 22.44,9.84 22.44,10.24 45.28,19.69 22.05,7.48 22.05,7.48 44.49,14.96 21.65,5.12 21.65,5.51 43.31,10.24"/>
   <path class="fil1 str0" d="M2646.82 190.39c21.65,5.12 21.65,5.12 43.31,10.63 22.44,7.09 22.44,7.09 44.49,14.57 22.44,9.84 22.44,9.84 44.88,19.69 22.83,11.42 22.83,11.81 45.28,23.62 22.44,13.78 22.44,13.78 44.49,27.56 23.23,16.14 23.23,16.14 46.06,32.28 22.05,17.72 22.05,17.72 44.09,35.43 22.05,19.69 22.05,19.69 44.09,39.76"/>
   <path class="fil1 str0" d="M2152.33 699.45c9.06,14.57 9.06,14.57 18.5,28.74 11.02,11.81 11.02,11.81 22.44,23.23 21.26,16.14 21.26,16.14 42.91,31.89 19.29,12.99 19.29,12.99 39.37,25.98 23.23,13.78 23.23,13.78 46.46,27.17 21.65,10.24 21.65,10.63 42.91,20.47 27.17,9.84 27.17,9.84 54.33,19.29"/>
   <path class="fil1 str0" d="M2457.84 856.14c3.54,-11.42 3.54,-11.81 6.3,-23.62 0,-40.55 0,-40.55 -1.18,-81.1 -3.54,-16.14 -3.94,-16.14 -8.27,-31.89 -7.48,-15.35 -7.48,-15.75 -15.75,-30.71 -7.09,-10.24 -7.48,-10.24 -14.96,-20.08 -8.66,-8.66 -8.66,-8.66 -17.32,-16.54 -21.26,-16.14 -21.26,-16.14 -42.91,-32.28 -21.26,-14.17 -21.26,-14.17 -42.91,-28.35 -21.26,-12.6 -21.26,-12.6 -42.91,-24.8 -21.65,-10.24 -21.65,-10.24 -42.91,-20.47 -24.02,-9.06 -24.02,-9.06 -47.64,-18.11"/>
   <path class="fil1 str0" d="M2148 538.43c-3.15,4.33 -3.15,4.33 -5.91,8.66 -2.76,8.66 -3.15,8.66 -5.51,16.93 -0.79,37.01 -0.39,37.4 -0.79,74.41 1.97,14.96 1.97,14.96 4.33,29.92 5.91,15.75 5.91,15.75 12.2,31.1"/>
   <path class="fil1 str0" d="M2488.55 282.13c-23.23,2.36 -23.23,2.36 -46.46,5.51 -10.63,2.76 -10.63,2.76 -21.26,5.91 -14.17,6.3 -14.17,6.3 -27.95,12.6 -11.42,7.87 -11.42,7.87 -22.05,16.14 -5.12,5.91 -5.12,6.3 -10.24,12.6 -3.54,6.3 -3.54,6.3 -6.69,12.99 -1.57,6.69 -1.57,6.69 -3.15,13.39"/>
   <path class="fil1 str0" d="M3103.12 906.54c-10.63,11.42 -11.02,11.42 -22.05,22.83 -16.54,11.81 -16.54,11.81 -33.07,23.62 -9.45,5.12 -9.45,5.12 -18.9,10.24 -20.87,9.06 -20.87,9.45 -42.13,18.11 -23.62,7.09 -23.62,7.09 -47.24,13.39 -24.8,4.72 -24.8,5.12 -50,9.06 -39.37,1.97 -39.37,2.36 -78.35,3.54 -38.58,-3.54 -38.98,-3.54 -77.17,-7.87 -24.41,-5.51 -24.41,-5.51 -48.43,-11.42 -22.44,-7.87 -22.44,-7.87 -44.09,-16.14 -19.69,-9.84 -19.69,-9.84 -38.98,-20.47 -16.14,-11.42 -16.14,-11.42 -31.89,-23.62 -12.6,-12.99 -12.6,-12.99 -24.41,-26.77 -7.09,-11.02 -7.09,-11.42 -13.39,-22.83"/>
   <path class="fil1 str0" d="M2973.2 903.78c-29.13,7.48 -29.13,7.48 -58.66,14.17 -25.59,3.54 -25.59,3.54 -51.18,6.3 -26.38,0.79 -26.38,0.79 -52.36,1.18 -25.98,-1.97 -25.98,-1.97 -51.97,-3.94 -25.2,-4.33 -25.2,-4.33 -50,-9.06 -23.23,-6.69 -23.23,-6.69 -46.46,-14.17 -20.87,-8.66 -20.87,-8.66 -41.73,-18.11 -21.65,-13.78 -21.65,-13.78 -42.91,-28.35"/>
   <path class="fil1 str0" d="M2765.72 880.94c-16.14,-1.97 -16.14,-1.97 -32.28,-4.33 -24.02,-5.51 -24.41,-5.51 -48.43,-11.81 -22.05,-7.48 -22.05,-7.48 -44.09,-15.75 -15.35,-7.87 -15.35,-7.87 -30.31,-15.75"/>
   <path class="fil1 str0" d="M2854.69 901.02c-31.89,0.39 -32.28,0.39 -64.17,-0.39 -32.68,-4.33 -33.07,-4.33 -65.75,-10.24 -29.53,-9.06 -29.53,-9.06 -58.66,-19.29 -16.93,-8.27 -16.93,-8.66 -33.46,-17.72 -12.6,-9.06 -12.6,-9.06 -25.2,-18.5"/>
   <path class="fil1 str0" d="M2658.24 978.58c0.79,213.39 0.79,213.39 2.36,426.77 0.79,8.27 0.79,8.27 1.97,16.54 3.54,8.27 3.54,8.27 7.09,16.54 5.91,7.48 5.91,7.48 12.2,14.96 7.87,7.09 7.87,7.09 16.14,14.17 9.84,5.91 10.24,5.91 20.08,11.81 11.81,5.12 11.81,5.12 23.62,9.84 12.99,3.94 12.99,4.33 26.38,7.48 28.35,3.54 28.35,3.94 57.09,6.69 28.74,-1.97 28.74,-1.97 57.48,-4.72 13.39,-3.15 13.39,-3.15 27.17,-6.69 12.2,-4.33 12.2,-4.33 24.41,-9.06 11.02,-5.51 11.02,-5.51 21.65,-11.42 9.06,-6.69 9.06,-6.69 17.72,-13.39 6.69,-7.09 6.69,-7.09 13.39,-14.57 4.72,-7.87 4.72,-8.27 9.45,-16.54"/>
   <path class="fil1 str0" d="M2798.39 899.84c188.98,3.94 188.98,3.94 378.35,7.09 11.42,-1.18 11.42,-1.18 23.23,-2.76 16.14,-3.94 16.14,-3.94 32.28,-8.27 9.84,-3.94 9.84,-3.94 19.29,-7.87 12.2,-7.48 12.2,-7.48 24.02,-14.96 8.66,-9.06 9.06,-9.06 16.93,-18.11"/>
   <path class="fil1 str0" d="M3301.94 746.3c-1.18,6.69 -1.57,7.09 -3.15,13.78 -3.15,6.3 -3.15,6.3 -6.69,12.99 -5.12,6.3 -5.12,6.3 -10.24,12.2 -6.69,5.51 -6.69,5.91 -13.78,11.02 -17.72,9.06 -17.72,9.45 -36.22,17.72 -21.65,5.51 -21.65,5.51 -43.7,9.84 -17.72,1.18 -18.11,1.18 -35.43,1.97"/>
   <path class="fil1 str0" d="M3105.87 768.35c8.66,4.72 8.66,4.72 17.32,8.66 10.63,2.76 10.63,2.76 21.26,4.72 11.81,0.39 12.2,0.39 24.02,0.39 11.02,-1.57 11.02,-1.57 22.05,-3.94 9.45,-3.94 9.45,-3.94 18.5,-8.27 6.3,-5.51 6.3,-5.51 12.6,-11.42"/>
   <path class="fil1 str0" d="M3201.54 713.23c-12.99,-4.33 -12.99,-4.33 -25.98,-7.48 -14.57,-0.79 -14.57,-0.79 -29.13,-0.39 -13.39,2.76 -13.39,2.76 -26.77,6.3"/>
   <line class="fil1 str0" x1="2121.23" y1="493.94" x2="2122.02" y2= "705.75" />
   <polyline class="fil1 str0" points="2478.71,909.29 2477.92,697.48 3003.51,393.94 3003.51,442.76 2759.42,583.7 2760.2,746.69 2478.71,909.29 "/>
   <line class="fil1 str0" x1="2121.23" y1="493.94" x2="2646.82" y2= "190.39" />
   <polyline class="fil1 str0" points="2419.26,876.22 2430.28,876.22 2444.46,871.5 2457.84,856.14 "/>
   <polyline class="fil1 str0" points="2187.37,528.19 2164.54,527.8 2148,538.43 "/>
   <polyline class="fil1 str0" points="2759.42,583.7 2797.21,604.96 2798.39,899.84 2646.03,812.83 "/>
   <polyline class="fil1 str0" points="2797.21,604.96 3285.01,323.07 2853.51,76.61 2653.91,191.97 "/>
   <polyline class="fil1 str0" points="2996.43,1427.01 3000.36,1402.2 2998.39,976.61 "/>
   <polyline class="fil1 str0" points="3292.49,854.96 3301.15,835.28 3301.94,746.3 "/>
   <polyline class="fil1 str0" points="3152.72,825.83 2798,817.95 3286.19,536.06 3301.94,746.3 "/>
   <line class="fil1 str0" x1="3093.28" y1="754.17" x2="3105.87" y2= "768.35" />
   <polyline class="fil1 str0" points="3221.62,758.5 3226.74,742.36 3220.44,727.01 3201.54,713.23 "/>
   <polyline class="fil1 str0" points="3119.65,711.65 3099.97,724.25 3091.31,740 3093.28,754.17 "/>
   <line class="fil1 str0" x1="3286.19" y1="536.06" x2="3285.01" y2= "323.07" />
   <g>
    <path class="fil0" d="M2257.52 557.11l23.7 12.65 -12.64 6.77 -11.69 1.46 0.63 -20.88zm80.31 45.6l19.93 14.88 -19.43 10.06 -0.5 -24.94z"/>
    <path class="fil1 str0" d="M2319.34 591.14l0 26.65 -62.44 -36.15 26.29 -11.9m36.15 20.95l0 0.45 -35.97 -21.29"/>
    <line class="fil1 str0" x1="2256.9" y1="581.64" x2="2256.9" y2= "556.81" />
    <path class="fil1 str0" d="M2337.6 625.46l0 2.92 23.3 -10.36m-23.3 -15.46l0 22.9"/>
    <polyline class="fil1 str0" points="2337.6,628.38 2400.04,664.17 2400.04,646.28 "/>
    <path class="fil1 str0" d="M2418.3 674.76l7.68 -3.41m-7.68 -8.27l0 11.69 18.18 10.52"/>
   </g>
   <g>
    <path class="fil0" d="M1491.08 1024.83l-77.65 44.79 -250.51 28.63 -264.96 13.11 -362.54 -22.87 -65.75 -10.83 -104.06 -13.02 -70.82 -50.33 -35.14 -51.08 9.06 -19.85 27.29 -13.54 28.54 -10.39 68.17 75.02 88.43 24.1 67.53 8.14 391.53 23.61 337.97 -27.44 74.15 -12.35 38.25 -9.26 36.99 -27.37 40.94 -48.73 17.36 -58.47 0.57 -54.76 0 -78.89 -1.76 -88.63 -20.7 -62.11 -39.08 -43.97 -39.7 -44.4 -13.02 -6.5 -0.62 -14.62 14.27 -18.95 63.56 14.96 53.49 41.84 34.97 50.42 23.19 73.93 2.41 250.56 -19.85 62.28 -48.64 68.93 -3.86 8.09zm-218.15 -281.83l-65.13 5.42 -3.72 30.87 -13.65 11.37 -2.48 -59.56 93.66 0 -8.69 11.91zm-233.84 0l-65.13 5.42 -3.72 30.87 -13.02 11.37 -2.48 -59.56 93.04 0 -8.69 11.91zm-233.22 0l-65.13 5.42 -3.72 30.87 -13.65 11.37 -2.48 -59.56 93.66 0 -8.69 11.91zm-233.84 0l-65.13 5.42 -3.72 30.87 -13.02 11.37 -2.48 -59.56 93.04 0 -8.69 11.91z"/>
    <path class="fil1 str1" d="M451.47 507.74c145.02,-18.28 285.17,-28.38 435.11,-28.38 149.94,0 305.22,10.1 457.82,28.38 77.56,9.29 142.03,80.95 142.03,159.06l0 187.12c0,78.11 -64.5,151.51 -142.03,160.95 -150.09,18.28 -300.31,35.95 -450.25,35.95 -149.94,0 -295.13,-17.66 -442.69,-35.95 -77.52,-9.61 -142.03,-82.83 -142.03,-160.95l0 -187.12c0,-78.12 64.54,-149.3 142.03,-159.06z"/>
    <path class="fil1 str1" d="M394.04 453.83c163.68,-20.63 321.86,-32.03 491.08,-32.03 169.23,0 344.48,11.4 516.71,32.03 87.53,10.48 160.3,112.19 160.3,200.33l0 211.19c0,88.15 -72.8,195.6 -160.3,206.26 -169.39,20.63 -338.94,40.57 -508.16,40.57 -169.22,0 -333.09,-19.94 -499.63,-40.57 -87.48,-10.83 -160.3,-118.09 -160.3,-206.26l0 -211.19c0,-88.17 72.85,-189.32 160.3,-200.33z"/>
    <polygon class="fil1 str1" points="831.76,422.18 964.17,422.18 964.17,309.06 831.76,309.06 "/>
    <polygon class="fil1 str1" points="964.17,422.18 831.76,422.18 831.76,365.62 964.17,365.62 "/>
    <polygon class="fil1 str1" points="831.76,1224.47 964.17,1224.47 964.17,1111.35 831.76,1111.35 "/>
    <path class="fil1 str1" d="M611.04 607.09l-152.06 0c-36.46,0 -66.28,29.83 -66.28,66.28l0 44.91m0 97.41l0 33.56c0,36.46 29.83,66.28 66.28,66.28l103.35 0m97.41 0l188.48 0m97.42 0l188.48 0m97.41 0l105.37 0c36.45,0 66.28,-29.83 66.28,-66.28l0 -33.56m0 -97.41l0 -44.91c0,-36.46 -29.83,-66.28 -66.28,-66.28l-154.07 0m-97.41 0l-139.77 0m-97.42 0l-139.77 0"/>
    <polyline class="fil1 str1" points="848.22,915.54 848.22,1001.06 945.64,1001.06 945.64,915.54 "/>
    <polyline class="fil1 str1" points="945.64,607.09 945.64,512.56 848.22,512.56 848.22,607.09 "/>
    <polyline class="fil1 str1" points="945.64,607.09 945.64,576.09 848.22,576.09 848.22,607.09 "/>
    <polyline class="fil1 str1" points="708.46,607.09 708.46,559.15 611.04,559.15 611.04,607.09 "/>
    <polyline class="fil1 str1" points="1182.82,607.09 1182.82,559.15 1085.41,559.15 1085.41,607.09 "/>
    <polyline class="fil1 str1" points="562.33,915.54 562.33,961.52 659.75,961.52 659.75,915.54 "/>
    <polyline class="fil1 str1" points="1134.12,915.54 1134.12,961.52 1231.53,961.52 1231.53,915.54 "/>
    <polyline class="fil1 str1" points="392.7,718.28 333.91,718.28 333.91,815.7 392.7,815.7 "/>
    <polyline class="fil1 str1" points="1403.18,815.7 1461.98,815.7 1461.98,718.28 1403.18,718.28 "/>
    <polygon class="fil1 str1" points="198.05,728.45 198.05,794.19 233.74,794.19 233.74,728.45 "/>
    <polygon class="fil1 str1" points="1562.13,728.45 1562.13,794.19 1597.82,794.19 1597.82,728.45 "/>
    <g>
     <rect class="fil2 str2" x="494.41" y="712.01" width="183.11" height="117.04"/>
     <path class="fil3" d="M588.7 799.43l0 -12 -24.33 0 0 -9.96 25.81 -37.96 9.61 0 0 37.92 7.42 0 0 10 -7.42 0 0 12 -11.08 0zm0 -22l0 -20.37 -13.64 20.37 13.64 0z"/>
     <rect class="fil2 str2" x="707.93" y="712.01" width="183.11" height="117.04"/>
     <path class="fil3" d="M779.48 783.61l11.09 -1.35c0.35,2.83 1.29,5 2.83,6.5 1.54,1.5 3.41,2.25 5.58,2.25 2.35,0 4.32,-0.9 5.93,-2.69 1.6,-1.79 2.4,-4.21 2.4,-7.26 0,-2.88 -0.76,-5.17 -2.3,-6.85 -1.54,-1.68 -3.42,-2.53 -5.64,-2.53 -1.46,0 -3.19,0.29 -5.22,0.86l1.26 -9.28c3.08,0.08 5.43,-0.6 7.06,-2.03 1.63,-1.41 2.43,-3.32 2.43,-5.69 0,-2.01 -0.59,-3.61 -1.79,-4.82 -1.19,-1.2 -2.78,-1.79 -4.76,-1.79 -1.96,0 -3.63,0.68 -5,2.04 -1.39,1.36 -2.22,3.35 -2.53,5.96l-10.5 -1.79c0.74,-3.64 1.83,-6.54 3.32,-8.72 1.47,-2.17 3.54,-3.87 6.18,-5.13 2.64,-1.23 5.61,-1.86 8.89,-1.86 5.61,0 10.11,1.79 13.5,5.39 2.79,2.94 4.19,6.28 4.19,9.98 0,5.25 -2.86,9.46 -8.59,12.58 3.41,0.74 6.14,2.38 8.19,4.93 2.04,2.56 3.07,5.64 3.07,9.25 0,5.24 -1.92,9.71 -5.74,13.41 -3.82,3.69 -8.57,5.54 -14.26,5.54 -5.39,0 -9.86,-1.56 -13.41,-4.68 -3.56,-3.11 -5.61,-7.18 -6.18,-12.22z"/>
     <rect class="fil2 str2" x="921.46" y="712.01" width="183.11" height="117.04"/>
     <path class="fil3" d="M1032 788.84l0 10.58 -40.09 0c0.43,-4.03 1.74,-7.83 3.9,-11.43 2.17,-3.6 6.46,-8.38 12.85,-14.33 5.15,-4.81 8.3,-8.07 9.47,-9.78 1.57,-2.36 2.36,-4.69 2.36,-7.01 0,-2.56 -0.68,-4.52 -2.06,-5.89 -1.36,-1.37 -3.25,-2.06 -5.65,-2.06 -2.39,0 -4.28,0.72 -5.7,2.17 -1.4,1.43 -2.21,3.82 -2.43,7.17l-11.42 -1.14c0.68,-6.3 2.8,-10.83 6.39,-13.58 3.58,-2.74 8.06,-4.11 13.43,-4.11 5.89,0 10.52,1.59 13.89,4.78 3.36,3.18 5.04,7.14 5.04,11.88 0,2.69 -0.49,5.25 -1.44,7.69 -0.96,2.43 -2.49,4.97 -4.59,7.64 -1.37,1.78 -3.89,4.32 -7.5,7.64 -3.62,3.32 -5.91,5.51 -6.87,6.61 -0.97,1.08 -1.75,2.15 -2.35,3.18l22.75 0z"/>
     <rect class="fil2 str2" x="1134.98" y="712.01" width="183.11" height="117.04"/>
     <path class="fil3" d="M1236.11 799.43l-11.42 0 0 -43.2c-4.17,3.92 -9.08,6.82 -14.75,8.7l0 -10.42c2.99,-0.97 6.22,-2.82 9.71,-5.56 3.5,-2.72 5.89,-5.9 7.2,-9.53l9.26 0 0 60z"/>
    </g>
   </g>
  </g>
  <polygon id="Image_x0020_Number.des" class="fil4" points="30,1454.3 317.32,1454.3 317.32,1547.4 30,1547.4 "/>
  <polygon id="_1" class="fil3" points="36.58,1529.74 36.58,1470.07 79.67,1470.07 79.67,1477.07 44.5,1477.07 44.5,1495.41 77.42,1495.41 77.42,1502.41 44.5,1502.41 44.5,1522.74 81.08,1522.74 81.08,1529.74 "/>
  <path id="_2" class="fil3" d="M89.08 1500.3c0,-7.04 0.72,-12.74 2.17,-17.04 1.46,-4.32 3.61,-7.64 6.47,-9.96 2.85,-2.32 6.44,-3.47 10.78,-3.47 3.19,0 6,0.64 8.43,1.93 2.42,1.29 4.42,3.15 5.97,5.58 1.56,2.42 2.78,5.38 3.67,8.86 0.9,3.49 1.35,8.2 1.35,14.1 0,7 -0.72,12.67 -2.15,16.97 -1.43,4.32 -3.58,7.64 -6.44,9.97 -2.85,2.33 -6.46,3.5 -10.82,3.5 -5.74,0 -10.25,-2.04 -13.53,-6.14 -3.93,-5 -5.89,-13.1 -5.89,-24.31zm7.5 0.03c0,9.82 1.14,16.35 3.43,19.57 2.3,3.24 5.13,4.85 8.49,4.85 3.36,0 6.19,-1.63 8.48,-4.86 2.3,-3.25 3.43,-9.76 3.43,-19.56 0,-9.82 -1.14,-16.35 -3.43,-19.57 -2.28,-3.24 -5.14,-4.85 -8.57,-4.85 -3.36,0 -6.06,1.43 -8.07,4.28 -2.51,3.62 -3.76,10.35 -3.76,20.14z"/>
  <path id="_3" class="fil3" d="M135.43 1500.3c0,-7.04 0.72,-12.74 2.17,-17.04 1.46,-4.32 3.61,-7.64 6.47,-9.96 2.85,-2.32 6.44,-3.47 10.78,-3.47 3.19,0 6,0.64 8.43,1.93 2.42,1.29 4.42,3.15 5.97,5.58 1.56,2.42 2.78,5.38 3.67,8.86 0.9,3.49 1.35,8.2 1.35,14.1 0,7 -0.72,12.67 -2.15,16.97 -1.43,4.32 -3.58,7.64 -6.44,9.97 -2.85,2.33 -6.46,3.5 -10.82,3.5 -5.74,0 -10.25,-2.04 -13.53,-6.14 -3.93,-5 -5.89,-13.1 -5.89,-24.31zm7.5 0.03c0,9.82 1.14,16.35 3.43,19.57 2.3,3.24 5.13,4.85 8.49,4.85 3.36,0 6.19,-1.63 8.48,-4.86 2.3,-3.25 3.43,-9.76 3.43,-19.56 0,-9.82 -1.14,-16.35 -3.43,-19.57 -2.28,-3.24 -5.14,-4.85 -8.57,-4.85 -3.36,0 -6.06,1.43 -8.07,4.28 -2.51,3.62 -3.76,10.35 -3.76,20.14z"/>
  <path id="_4" class="fil3" d="M181.78 1500.3c0,-7.04 0.72,-12.74 2.17,-17.04 1.46,-4.32 3.61,-7.64 6.47,-9.96 2.85,-2.32 6.44,-3.47 10.78,-3.47 3.19,0 6,0.64 8.43,1.93 2.42,1.29 4.42,3.15 5.97,5.58 1.56,2.42 2.78,5.38 3.67,8.86 0.9,3.49 1.35,8.2 1.35,14.1 0,7 -0.72,12.67 -2.15,16.97 -1.43,4.32 -3.58,7.64 -6.44,9.97 -2.85,2.33 -6.46,3.5 -10.82,3.5 -5.74,0 -10.25,-2.04 -13.53,-6.14 -3.93,-5 -5.89,-13.1 -5.89,-24.31zm7.5 0.03c0,9.82 1.14,16.35 3.43,19.57 2.3,3.24 5.13,4.85 8.49,4.85 3.36,0 6.19,-1.63 8.48,-4.86 2.3,-3.25 3.43,-9.76 3.43,-19.56 0,-9.82 -1.14,-16.35 -3.43,-19.57 -2.28,-3.24 -5.14,-4.85 -8.57,-4.85 -3.36,0 -6.06,1.43 -8.07,4.28 -2.51,3.62 -3.76,10.35 -3.76,20.14z"/>
  <path id="_5" class="fil3" d="M228.54 1477.83l0 -7 38.58 0 0 5.67c-3.79,4.04 -7.57,9.42 -11.29,16.13 -3.74,6.71 -6.61,13.61 -8.65,20.71 -1.46,4.99 -2.4,10.47 -2.8,16.42l-7.5 0c0.08,-4.69 1,-10.37 2.76,-17.03 1.76,-6.67 4.28,-13.08 7.57,-19.26 3.29,-6.18 6.79,-11.39 10.5,-15.63l-29.17 0z"/>
  <path id="_6" class="fil3" d="M297.89 1529.74l0 -14.25 -25.92 0 0 -6.75 27.25 -38.67 6 0 0 38.67 8.08 0 0 6.75 -8.08 0 0 14.25 -7.33 0zm0 -21l0 -26.85 -18.71 26.85 18.71 0z"/>
 </g>
</svg>
