<?xml version="1.0" encoding="UTF-8"?>
<!DOCTYPE svg PUBLIC "-//W3C//DTD SVG 1.1//EN" "http://www.w3.org/Graphics/SVG/1.1/DTD/svg11.dtd">
<!-- Creator: Corel DESIGNER -->
<svg xmlns="http://www.w3.org/2000/svg" xml:space="preserve" width="3.49999in" height="1.1811in" version="1.1" style="shape-rendering:geometricPrecision; text-rendering:geometricPrecision; image-rendering:optimizeQuality; fill-rule:evenodd; clip-rule:evenodd"
viewBox="0 0 3499.99 1181.1"
 xmlns:xlink="http://www.w3.org/1999/xlink"
 xmlns:xodm="http://www.corel.com/coreldraw/odm/2003">
 <defs>
  <style type="text/css">
   <![CDATA[
    .str0 {stroke:black;stroke-width:3.11;stroke-linecap:round;stroke-linejoin:round;stroke-miterlimit:22.9256}
    .str1 {stroke:black;stroke-width:4.17;stroke-linecap:round;stroke-linejoin:round;stroke-miterlimit:22.9256}
    .str2 {stroke:#373435;stroke-width:5.56;stroke-linecap:round;stroke-linejoin:round;stroke-miterlimit:22.9256}
    .fil1 {fill:none}
    .fil4 {fill:#FEFEFE}
    .fil2 {fill:white}
    .fil3 {fill:#373435;fill-rule:nonzero}
    .fil0 {fill:black;fill-opacity:0.098039}
   ]]>
  </style>
 </defs>
 <g id="Layer_x0020_1">
  <metadata id="CorelCorpID_0Corel-Layer"/>
  <script type="text/ecmascript">
   <![CDATA[
if(typeof(top) != "undefined")
{
	top.ShowPaper = ShowPaper;
}
function ShowHotSpot(evt,hotspotid)
{
	var svgDocument = evt.target.ownerDocument;
	var strId = "hotspot."+hotspotid;
	var hotspot = svgDocument.getElementById(strId);
	if(hotspot)
		hotspot.setAttribute("opacity",".5");
}
function HideHotSpot(evt,hotspotid)
{
	var svgDocument = evt.target.ownerDocument;
	var strId = "hotspot."+hotspotid;
	var hotspot = svgDocument.getElementById(strId);
	if(hotspot)
		hotspot.setAttribute("opacity","0");

	var toolTip = svgDocument.getElementById('ToolTip');
	if(toolTip)
		toolTip.setAttribute("visibility","hidden");
}
function ShowToolTip(evt,hotspotid,strTooltip)
{
	if(strTooltip=="")
	return;

	// change text
	var svgDocument = evt.target.ownerDocument;
	var tiptext = svgDocument.getElementById('ToolTipText');
	if( !tiptext )
	return;
	tiptext.firstChild.nodeValue = " " + strTooltip + "  " ;

	// show tooltip before, else some refresh issue

	var toolTip = svgDocument.getElementById('ToolTip');
	if(!toolTip)
	return;

	toolTip.setAttribute("visibility","visible");
	toolTip.setAttribute("opacity",".95");

	// move tooltip
	// get viewbox

	var root = svgDocument.documentElement;
	var vbox = (root.getAttribute("viewBox")).split(' ');
	var x0 = parseFloat(vbox[0]);
	var y0 = parseFloat(vbox[1]);
	var vboxW = parseFloat(vbox[2]);
	var vboxH = parseFloat(vbox[3]);

	// get default width of svg

	var strW = root.getAttribute("width");
	var svgW = parseFloat(strW);
	if(strW.indexOf('mm') != -1)
	svgW *= 3.779;

	var strH = root.getAttribute("height");
	var svgH = parseFloat(strH);
	if(strH.indexOf('mm') != -1)
	svgH *= 3.779;  	// 96 dpi  -> 96/25.4 = 3.779

	// update the viewbox / width / height if svg is embedded in html with zoom fit all
	var realx0 = x0;
	var realy0 = y0;
	var realvboxW = vboxW;
	var realvboxH = vboxH;
	var realsvgW = svgW;
	var realsvgH = svgH;

	if ((typeof(top) == "undefined") || (typeof(top.svgctl1) != "undefined")) // embedded in html
	{
		// get window size in pxl

		svgW = window.innerWidth;
		svgH = window.innerHeight;

		// calculate real viewbox

		realsvgW = svgW;
		realsvgH = svgH;
		if((svgW / svgH) > (vboxW / vboxH))
		{
			realvboxW = (vboxH * svgW) / svgH;
			realvboxH = vboxH;
			realx0 = x0 - (realvboxW - vboxW)/2 ;
		}
		else
		{
			realvboxH = (vboxW * svgH) / svgW;
			realvboxW = vboxW;
			realy0 = y0 - (realvboxH - vboxH)/2 ;
		}
	}

	// get user zoom/pan

	var newScale = root.currentScale;
	var translation = root.currentTranslate;

	// transform pxl to user unit

	var xPos = (((evt.clientX+10- translation.x)/newScale) * realvboxW)/realsvgW  + realx0 ;
	var yPos = (((evt.clientY+5- translation.y)/newScale) * realvboxH)/ realsvgH  + realy0 ;
	var scaleForWidth = ( (1 / newScale) * realvboxH) / realsvgH;

	// move tooltip

	toolTip.setAttribute("transform", "translate(" + xPos + "," + yPos + ")" );

	// resize tooltip

	var fontsize = 12;
	tiptext.setAttribute("font-size",fontsize*scaleForWidth);
	tiptext.setAttribute("y", fontsize*scaleForWidth);
	var tipBG = svgDocument.getElementById('ToolTipBG');
	var outline = tiptext.getBBox();
	if(tipBG)
	{
		tipBG.setAttribute("stroke-width", 1*scaleForWidth);
		tipBG.setAttribute("width", Number(outline.width) );
		tipBG.setAttribute("height", Number(outline.height) + fontsize*.5*scaleForWidth );
	}
	var ToolTipShadow = svgDocument.getElementById('ToolTipShadow');
	if(ToolTipShadow)
	{
		ToolTipShadow.setAttribute("width", Number(outline.width) );
		ToolTipShadow.setAttribute("height", Number(outline.height) + fontsize*.5*scaleForWidth );
		ToolTipShadow.setAttribute("x", 3*scaleForWidth);
		ToolTipShadow.setAttribute("y", 3*scaleForWidth);
	}
}
function ShowPaper()
{
  var svgDocument = getDocument();
  var paper = svgDocument.getElementById("paperID");
  if(paper)
  {
    paper.setAttribute("transform","scale(1)");
    paper.setAttribute("opacity","1");
    paper.setAttribute("visibility","visible");
  }
  var svg = svgDocument.getRootElement();
  if(svg)
  {
    svg.setAttribute("width","96.000mm");
    svg.setAttribute("height","96.000mm");
    svg.setAttribute("viewBox","-5.000000 -5.000000 96.000000 96.000000");
  }
}
]]>
  </script>
  <g id="_2291017317600">
   <path class="fil0" d="M1251.19 913.38l-5.32 -0.57 -43.13 18.87 -69.55 15.1 -584.4 0 -57.15 -10.78 -66.85 -28.57 -56.07 -34.5 -51.76 -56.07 0 -14.56 23.72 -13.48 28.04 33.43 50.14 39.9 78.71 39.89 56.61 10.78 579.01 0 69.55 -15.1 56.07 -28.57 60.38 -46.91 35.58 -48.52 26.96 -52.3 18.33 -66.31 0 -102.97 -16.71 -62 -27.5 -57.15 -33.96 -45.29 -34.5 -32.89 -11.32 -6.47 -0.54 -14.56 12.4 -18.87 62 56.07 39.89 56.07 32.89 79.79 11.32 67.93 0 57.69 -5.39 39.89 -17.25 62 -42.05 76.56 -3.35 8.05m-176.17 -216.15l-56.61 5.39 -3.23 30.73 -11.86 11.32 -2.16 -59.3 81.41 0 -7.55 11.86zm-203.25 0l-56.61 5.39 -3.24 30.73 -11.32 11.32 -2.15 -59.3 80.87 0 -7.55 11.86zm-202.71 0l-56.61 5.39 -3.24 30.73 -11.86 11.32 -2.16 -59.3 81.41 0 -7.55 11.86zm-203.25 0l-56.61 5.39 -3.24 30.73 -11.32 11.32 -2.16 -59.3 80.87 0 -7.55 11.86z"/>
   <path class="fil1 str0" d="M809.18 290.13c-107.82,0 -107.82,0 -215.65,0 -11.86,0.54 -11.86,0.54 -23.72,1.08 -12.4,1.08 -12.4,1.08 -24.8,2.69 -12.4,2.7 -12.4,2.7 -24.8,5.39 -12.4,3.23 -12.4,3.23 -24.26,7.01 -11.86,4.31 -12.4,4.31 -23.72,9.17 -11.86,5.39 -11.86,5.39 -23.18,10.78 -10.78,6.47 -10.78,6.47 -21.56,12.94 -10.24,7.55 -10.24,7.55 -20.49,15.09 -10.24,8.09 -10.24,8.09 -19.41,16.17 -9.17,9.17 -9.17,9.17 -18.33,17.79 -8.09,9.7 -8.09,9.7 -16.18,19.41 -7.55,10.24 -7.55,10.24 -14.56,21.02 -6.47,10.78 -6.47,10.78 -12.94,21.57 -5.93,11.32 -5.93,11.32 -11.32,22.64 -4.31,11.86 -4.31,11.86 -9.17,23.72 -3.77,12.4 -3.77,12.4 -7.01,24.26 -2.7,12.4 -2.7,12.4 -4.85,24.8 -1.62,12.94 -1.62,12.94 -3.24,25.34 -0.54,11.86 -0.54,11.86 -1.08,23.72 0,8.63 0,8.63 0,16.71 0.54,11.86 0.54,11.86 1.08,23.72 1.62,12.4 1.62,12.4 2.7,25.34 2.69,12.4 2.69,12.4 5.39,24.8 3.24,11.86 3.24,12.4 7.01,24.26 4.85,11.86 4.85,11.86 9.17,23.72 5.39,11.32 5.39,11.32 11.32,22.64 6.47,10.78 6.47,11.32 12.94,22.11 7.01,10.24 7.01,10.24 14.56,20.48 8.09,9.7 8.09,9.7 16.18,19.41 9.16,9.17 9.16,9.17 18.33,17.79 9.17,8.09 9.17,8.09 19.41,16.17 10.24,7.55 10.24,7.55 20.49,15.09 10.78,6.47 10.78,6.47 21.56,12.94 11.32,5.39 11.32,5.39 23.18,10.78 11.32,4.85 11.86,4.85 23.72,9.17 11.86,3.78 11.86,3.78 24.26,7.55 12.4,2.16 12.4,2.16 24.8,4.85 12.4,1.61 12.4,1.61 24.8,3.23 11.86,0.54 11.86,0.54 23.72,0.54"/>
   <path class="fil1 str0" d="M593.53 916.04c253.92,0 253.92,0 507.85,0 11.86,0 11.86,0 23.72,-0.54 12.4,-1.62 12.4,-1.62 24.8,-3.23 12.4,-2.7 12.4,-2.7 24.8,-4.85 11.32,-3.23 11.32,-3.23 22.11,-6.47 12.94,-4.85 12.94,-4.85 25.88,-10.24 11.86,-5.39 11.86,-5.39 23.18,-10.78 10.78,-6.47 10.78,-6.47 21.56,-12.94 10.24,-7.55 10.24,-7.55 20.49,-15.09 9.7,-8.09 9.7,-8.09 19.41,-16.17 9.17,-8.63 9.17,-8.63 18.33,-17.79 8.09,-9.7 8.09,-9.7 16.18,-19.41 7.55,-10.24 7.55,-10.24 14.56,-20.48 6.47,-10.78 6.47,-11.32 12.94,-22.11 5.93,-11.32 5.93,-11.32 11.32,-22.64 4.31,-11.86 4.31,-11.86 9.17,-23.72 3.77,-11.86 3.77,-12.4 7.01,-24.26 2.7,-12.4 2.7,-12.4 4.85,-24.8 1.62,-12.94 1.62,-12.94 3.24,-25.34 0.54,-11.86 0.54,-11.86 1.08,-23.72 0,-8.09 0,-8.09 0,-16.71 -0.54,-11.86 -0.54,-11.86 -1.08,-23.72 -1.62,-12.4 -1.62,-12.4 -3.24,-25.34 -2.15,-12.4 -2.15,-12.4 -4.85,-24.8 -3.24,-11.86 -3.24,-11.86 -7.01,-24.26 -4.85,-11.86 -4.85,-11.86 -9.17,-23.72 -5.39,-11.32 -5.39,-11.32 -11.32,-22.64 -6.47,-10.78 -6.47,-10.78 -12.94,-21.57 -7.01,-10.78 -7.01,-10.78 -14.56,-21.02 -8.09,-9.7 -8.09,-9.7 -16.18,-19.41 -9.16,-8.63 -9.16,-8.63 -18.33,-17.79 -9.7,-8.09 -9.7,-8.09 -19.41,-16.17 -10.24,-7.55 -10.24,-7.55 -20.49,-15.09 -10.78,-6.47 -10.78,-6.47 -21.56,-12.94 -11.32,-5.39 -11.32,-5.39 -23.18,-10.78 -11.86,-4.85 -11.86,-4.85 -23.72,-9.17 -11.86,-3.78 -11.86,-3.78 -24.26,-7.01 -12.4,-2.7 -12.4,-2.7 -24.8,-5.39 -12.4,-1.61 -12.4,-1.61 -24.8,-2.69 -11.86,-0.54 -11.86,-0.54 -23.72,-1.08 -94.88,0 -94.88,0 -189.77,0"/>
   <path class="fil1 str0" d="M335.3 833.02c3.23,3.78 3.23,3.78 6.47,7.55 4.85,4.85 4.85,4.85 9.7,10.24 4.85,4.85 4.85,4.85 10.24,9.7 3.24,2.7 3.24,2.7 6.47,5.39"/>
   <path class="fil1 str0" d="M364.41 342.96c-2.16,2.15 -2.16,2.15 -4.31,4.31 -4.31,3.78 -4.31,3.78 -8.09,8.09 -5.93,5.93 -5.93,5.93 -11.86,11.86 -2.16,2.69 -2.16,2.69 -4.31,5.39"/>
   <path class="fil1 str0" d="M414.54 899.87c-4.31,-2.16 -4.31,-2.16 -8.09,-4.31 -7.55,-5.39 -7.55,-5.39 -14.56,-10.78 -4.31,-2.7 -4.31,-2.7 -8.63,-5.93 -3.24,-2.7 -3.24,-2.7 -6.47,-5.39"/>
   <path class="fil1 str0" d="M1423.77 704.71c-2.16,8.09 -2.16,8.09 -4.85,15.64 -4.85,13.48 -4.85,13.48 -10.24,26.41 -5.93,12.94 -5.93,12.94 -11.86,25.34 -7.55,12.4 -7.55,12.4 -14.56,24.26 -8.09,11.32 -8.09,11.32 -16.71,23.19 -8.63,10.78 -8.63,10.78 -17.79,21.02 -10.24,10.24 -10.24,10.24 -19.95,19.95 -10.78,9.17 -10.78,9.17 -21.56,18.33 -11.32,8.09 -11.32,8.09 -23.18,16.17 -11.86,7.55 -11.86,7.55 -24.26,14.56 -1.61,1.08 -1.61,1.08 -3.23,1.62"/>
   <line class="fil1 str0" x1="255.5" y1="655.11" x2="255.5" y2= "654.03" />
   <line class="fil1 str0" x1="252.81" y1="623.84" x2="252.81" y2= "622.76" />
   <polyline class="fil1 str0" points="301.87,787.2 298.09,781.26 300.79,785.04 "/>
   <polyline class="fil1 str0" points="311.57,404.42 315.89,397.95 310.5,405.5 "/>
   <line class="fil1 str0" x1="315.89" y1="397.95" x2="317.5" y2= "395.8" />
   <line class="fil1 str0" x1="368.18" y1="865.91" x2="366.02" y2= "864.29" />
   <line class="fil1 str0" x1="363.33" y1="344.58" x2="364.41" y2= "342.96" />
   <polyline class="fil1 str0" points="368.18,865.91 377.89,874.53 375.73,872.37 "/>
   <line class="fil1 str0" x1="364.41" y1="343.5" x2="362.79" y2= "345.12" />
   <line class="fil1 str0" x1="364.41" y1="342.96" x2="377.89" y2= "331.64" />
   <polyline class="fil1 str0" points="375.73,333.8 381.12,328.94 387.05,324.63 384.35,326.79 "/>
   <polyline class="fil1 str0" points="387.05,324.63 389.2,323.02 383.81,327.33 "/>
   <polyline class="fil1 str0" points="389.2,323.02 391.9,321.4 389.2,323.02 "/>
   <polyline class="fil1 str0" points="391.9,321.4 404.3,312.23 420.47,302.53 416.7,304.69 "/>
   <line class="fil1 str0" x1="420.47" y1="302.53" x2="421.55" y2= "301.99" />
   <polyline class="fil1 str0" points="444.2,916.04 436.65,912.81 438.26,913.35 "/>
   <line class="fil1 str0" x1="440.42" y1="291.75" x2="433.41" y2= "294.98" />
   <line class="fil1 str0" x1="442.58" y1="290.67" x2="437.19" y2= "293.37" />
   <polyline class="fil1 str0" points="478.16,275.57 468.46,279.35 471.15,278.27 "/>
   <polyline class="fil1 str0" points="463.06,281.5 468.46,279.35 464.68,280.96 "/>
   <line class="fil1 str0" x1="492.72" y1="935.45" x2="499.72" y2= "937.07" />
   <line class="fil1 str0" x1="499.19" y1="937.07" x2="495.95" y2= "935.99" />
   <polyline class="fil1 str0" points="500.8,268.56 506.19,266.95 499.72,269.1 500.26,268.56 "/>
   <polyline class="fil1 str0" points="497.03,269.64 499.72,269.1 499.19,269.1 "/>
   <line class="fil1 str0" x1="512.66" y1="265.33" x2="532.61" y2= "261.56" />
   <polyline class="fil1 str0" points="536.93,260.48 546.63,259.4 543.93,259.94 "/>
   <line class="fil1 str0" x1="533.69" y1="261.02" x2="535.31" y2= "261.02" />
   <line class="fil1 str0" x1="532.07" y1="261.56" x2="529.91" y2= "262.09" />
   <line class="fil1 str0" x1="542.31" y1="259.94" x2="563.34" y2= "257.24" />
   <line class="fil1 str0" x1="546.63" y1="259.4" x2="552.56" y2= "258.86" />
   <line class="fil1 str0" x1="581.13" y1="256.7" x2="571.96" y2= "256.7" />
   <line class="fil1 str0" x1="581.67" y1="949.47" x2="581.67" y2= "949.47" />
   <line class="fil1 str0" x1="582.75" y1="256.7" x2="581.67" y2= "256.7" />
   <line class="fil1 str0" x1="1115.93" y1="949.47" x2="1106.23" y2= "950.01" />
   <line class="fil1 str0" x1="1107.85" y1="256.7" x2="1107.85" y2= "256.7" />
   <line class="fil1 str0" x1="1134.8" y1="947.85" x2="1145.59" y2= "946.78" />
   <line class="fil1 str0" x1="1133.72" y1="258.32" x2="1145.59" y2= "259.94" />
   <line class="fil1 str0" x1="1257.19" y1="295.52" x2="1258.8" y2= "296.6" />
   <line class="fil1 str0" x1="1366.09" y1="387.17" x2="1363.93" y2= "385.02" />
   <line class="fil1 str0" x1="1396.81" y1="434.07" x2="1395.2" y2= "431.92" />
   <line class="fil1 str0" x1="1432.4" y1="540.28" x2="1431.86" y2= "537.04" />
   <path class="fil1 str1" d="M305.64 793.13c-6.47,-10.24 -6.47,-10.78 -12.94,-21.03 -1.62,-3.23 -1.62,-3.23 -3.24,-6.47 -4.31,-9.7 -4.31,-9.7 -8.63,-18.87 -5.39,-12.94 -5.39,-12.94 -10.24,-26.41 -3.23,-8.63 -3.23,-8.63 -5.93,-17.79 -1.62,-8.09 -1.62,-8.09 -3.78,-16.17 -2.15,-10.24 -2.15,-10.24 -4.31,-20.49 -0.54,-5.39 -0.54,-5.39 -1.08,-11.32 -0.54,-3.23 -0.54,-3.23 -1.08,-6.47"/>
   <path class="fil1 str1" d="M252.81 614.14c0,4.85 0,4.85 0,9.7 0,7.01 0,7.01 0.54,14.02 0.54,5.39 0.54,5.39 1.08,10.24"/>
   <path class="fil1 str1" d="M252.81 623.84c0,-14.56 0,-14.56 -0.54,-29.11 0.54,-12.4 0.54,-12.4 1.08,-25.34 1.08,-9.17 1.08,-9.17 2.16,-18.33 0.54,-4.85 0.54,-4.85 1.08,-9.17 2.7,-14.02 2.7,-14.02 5.39,-27.5 3.78,-14.02 3.78,-14.02 8.09,-26.96 4.85,-13.48 4.85,-13.48 9.7,-26.41 5.93,-12.94 5.93,-12.94 12.4,-25.34 7.01,-11.86 7.01,-11.86 14.02,-24.26 2.7,-3.77 2.7,-3.77 5.39,-7.01"/>
   <path class="fil1 str1" d="M444.2 916.04c-7.01,-3.23 -7.01,-3.23 -14.02,-6.47 -8.09,-4.85 -7.55,-4.85 -15.63,-9.7 -7.01,-2.7 -7.01,-2.7 -13.48,-5.93 -5.93,-3.24 -5.93,-3.24 -11.86,-6.47 -7.01,-4.85 -7.01,-4.85 -14.02,-9.7 -4.85,-4.31 -4.85,-4.31 -10.24,-8.63 -4.31,-4.85 -4.85,-4.85 -9.17,-9.7 -5.93,-6.47 -5.93,-6.47 -11.32,-12.94 -4.85,-6.47 -4.31,-7.01 -9.16,-13.48 -5.93,-7.01 -5.93,-7.01 -11.86,-13.48 -3.24,-4.85 -3.24,-4.85 -6.47,-9.17 -4.85,-7.01 -4.85,-7.01 -9.7,-14.02 -2.7,-4.31 -2.7,-4.31 -5.39,-9.16"/>
   <path class="fil1 str1" d="M309.42 407.12c6.47,-9.17 6.47,-9.17 12.94,-18.33 6.47,-8.09 7.01,-8.09 13.48,-16.17 1.61,-2.7 1.61,-2.7 3.23,-5.39 3.78,-5.39 3.78,-5.39 7.55,-10.24 4.31,-5.39 4.31,-5.39 9.17,-10.24 4.31,-4.85 4.31,-4.85 9.17,-9.7 6.47,-4.85 6.47,-4.85 12.94,-10.24 5.39,-3.78 5.39,-3.78 10.78,-7.55 5.93,-3.23 5.93,-3.23 11.86,-6.47 7.01,-3.77 7.01,-3.23 14.56,-7.01 7.55,-4.31 7.55,-4.31 15.09,-8.63"/>
   <path class="fil1 str1" d="M444.2 916.04c5.93,3.24 5.93,3.24 11.86,5.93 5.39,2.15 5.39,2.15 11.32,4.85 7.55,2.7 7.55,2.7 14.56,5.39 5.39,1.62 5.39,1.62 10.78,3.24"/>
   <path class="fil1 str1" d="M490.56 934.37c9.17,3.24 9.17,3.24 18.33,5.39 14.02,3.24 14.02,3.24 27.5,5.93 14.02,1.61 14.02,1.61 28.03,3.23 7.55,0.54 7.55,0.54 14.56,0.54"/>
   <path class="fil1 str1" d="M1145.59 946.78c3.77,-0.54 3.77,-0.54 7.01,-1.08 14.02,-2.7 14.02,-2.7 28.04,-5.93 13.48,-3.77 13.48,-3.77 26.96,-7.55 12.94,-4.85 12.94,-4.85 25.87,-10.24 11.32,-5.39 11.32,-5.39 22.11,-10.78"/>
   <path class="fil1 str1" d="M1363.93 385.02c-8.09,-9.7 -8.09,-9.7 -16.17,-19.41 -10.24,-10.24 -10.24,-10.24 -19.95,-19.95 -10.78,-9.17 -10.78,-9.17 -21.56,-18.33 -11.32,-8.09 -11.32,-8.09 -23.18,-16.17 -11.86,-7.55 -11.86,-7.55 -24.26,-14.56 -1.61,-1.08 -1.61,-1.08 -3.77,-1.62"/>
   <path class="fil1 str1" d="M1362.85 383.4c1.62,1.62 1.62,1.62 3.24,3.77 8.09,11.32 8.09,11.32 16.17,22.65 6.47,11.32 6.47,11.32 12.94,22.1"/>
   <path class="fil1 str1" d="M1395.2 431.92c7.01,14.02 7.01,14.02 13.48,27.5 5.39,13.48 5.39,13.48 10.24,26.42 4.31,13.48 4.31,13.48 8.09,26.95 2.7,12.4 2.7,12.4 4.85,24.8"/>
   <path class="fil1 str1" d="M1423.77 704.71c1.62,-5.93 1.62,-5.93 3.23,-11.32 2.7,-13.48 2.7,-13.48 5.39,-27.5 2.15,-14.02 2.15,-14.02 3.77,-28.04 0.54,-12.94 0.54,-12.94 1.08,-26.41 0,-8.09 0,-8.09 0,-16.71 -0.54,-12.94 -0.54,-12.94 -1.08,-26.42 -0.54,-2.7 -0.54,-2.7 -1.08,-5.39"/>
   <line class="fil1 str1" x1="254.43" y1="648.1" x2="255.5" y2= "654.03" />
   <line class="fil1 str1" x1="252.81" y1="622.76" x2="252.81" y2= "614.14" />
   <line class="fil1 str1" x1="254.43" y1="648.1" x2="253.35" y2= "638.94" />
   <line class="fil1 str1" x1="252.81" y1="582.33" x2="252.27" y2= "594.73" />
   <line class="fil1 str1" x1="300.79" y1="785.04" x2="304.02" y2= "790.97" />
   <line class="fil1 str1" x1="438.26" y1="913.35" x2="444.2" y2= "916.04" />
   <line class="fil1 str1" x1="415.08" y1="305.76" x2="416.7" y2= "304.69" />
   <line class="fil1 str1" x1="451.74" y1="919.82" x2="444.2" y2= "916.04" />
   <polyline class="fil1 str1" points="429.64,297.14 428.02,297.68 433.41,294.98 "/>
   <polyline class="fil1 str1" points="440.42,291.75 444.2,290.13 432.33,295.52 "/>
   <polyline class="fil1 str1" points="442.58,290.67 453.36,285.28 461.45,282.04 459.29,283.12 "/>
   <polyline class="fil1 str1" points="464.68,280.96 461.45,282.04 478.16,275.57 471.15,278.27 "/>
   <line class="fil1 str1" x1="462.52" y1="281.5" x2="463.06" y2= "281.5" />
   <polyline class="fil1 str1" points="488.94,272.34 490.02,271.8 490.02,271.8 "/>
   <polyline class="fil1 str1" points="478.16,275.57 506.19,266.95 529.91,262.09 522.37,263.71 "/>
   <polyline class="fil1 str1" points="497.03,269.64 495.41,270.18 499.19,269.1 "/>
   <line class="fil1 str1" x1="500.8" y1="268.56" x2="500.26" y2= "268.56" />
   <line class="fil1 str1" x1="519.13" y1="264.25" x2="531.53" y2= "261.56" />
   <polyline class="fil1 str1" points="552.56,258.86 561.19,257.78 535.31,261.02 "/>
   <polyline class="fil1 str1" points="529.91,262.09 533.69,261.02 532.61,261.56 "/>
   <line class="fil1 str1" x1="533.69" y1="261.02" x2="543.93" y2= "259.94" />
   <line class="fil1 str1" x1="561.19" y1="257.78" x2="571.96" y2= "256.7" />
   <line class="fil1 str1" x1="578.44" y1="949.47" x2="583.29" y2= "950.01" />
   <line class="fil1 str1" x1="584.37" y1="256.7" x2="571.43" y2= "257.24" />
   <polyline class="fil1 str1" points="1106.23,950.01 1098.69,950.01 590.83,950.01 581.67,949.47 "/>
   <line class="fil1 str1" x1="581.13" y1="949.47" x2="581.67" y2= "949.47" />
   <polyline class="fil1 str1" points="582.75,256.7 590.83,256.17 1098.69,256.17 1107.85,256.7 "/>
   <line class="fil1 str1" x1="581.13" y1="256.7" x2="581.67" y2= "256.7" />
   <line class="fil1 str1" x1="1124.02" y1="948.93" x2="1105.15" y2= "950.01" />
   <polyline class="fil1 str1" points="1105.69,256.7 1111.08,256.7 1109.46,256.7 "/>
   <polyline class="fil1 str1" points="1145.59,259.94 1153.13,260.48 1124.56,257.24 1107.85,256.7 "/>
   <polyline class="fil1 str1" points="1150.98,945.7 1124.56,948.93 1115.93,949.47 "/>
   <line class="fil1 str1" x1="1152.06" y1="260.48" x2="1151.52" y2= "260.48" />
   <polyline class="fil1 str1" points="1153.13,260.48 1173.62,264.79 1170.93,264.25 "/>
   <line class="fil1 str1" x1="1179.55" y1="265.87" x2="1171.46" y2= "264.25" />
   <polyline class="fil1 str1" points="1179.01,265.87 1196.8,271.26 1189.8,269.1 "/>
   <polyline class="fil1 str1" points="1202.19,272.88 1207.59,273.96 1231.31,283.12 1226.45,281.5 "/>
   <line class="fil1 str1" x1="1205.43" y1="273.42" x2="1196.8" y2= "271.26" />
   <polyline class="fil1 str1" points="1228.07,282.04 1233.46,284.2 1257.19,295.52 "/>
   <line class="fil1 str1" x1="1395.2" y1="431.92" x2="1395.2" y2= "431.92" />
   <line class="fil1 str1" x1="1431.86" y1="537.58" x2="1431.86" y2= "535.97" />
   <line class="fil1 str1" x1="1435.09" y1="562.92" x2="1436.17" y2= "568.31" />
   <polyline class="fil1 str1" points="1435.09,562.92 1432.4,540.28 1431.86,537.58 "/>
   <path class="fil1 str0" d="M556.87 831.4c-9.7,0 -9.7,0 -19.41,-0.54 -9.7,-1.07 -9.7,-1.07 -19.41,-2.69 -9.17,-1.62 -9.17,-1.62 -18.87,-3.78 -9.17,-2.7 -9.17,-2.7 -18.33,-5.93 -9.17,-3.24 -9.17,-3.24 -18.33,-7.01 -8.63,-4.31 -8.63,-4.31 -17.25,-8.63 -8.09,-5.39 -8.09,-5.39 -16.17,-10.24 -8.09,-5.93 -8.09,-5.93 -15.63,-11.86 -7.55,-5.93 -7.55,-5.93 -14.56,-12.4 -7.01,-7.01 -7.01,-7.01 -13.48,-14.02 -6.47,-7.55 -6.47,-7.55 -12.4,-15.1 -5.39,-8.09 -5.39,-8.09 -10.78,-16.17 -4.85,-8.63 -4.85,-8.63 -9.7,-17.25 -3.78,-8.63 -3.78,-8.63 -7.55,-17.25 -3.77,-9.17 -3.77,-9.17 -6.47,-18.33 -2.69,-9.7 -2.69,-9.7 -4.85,-18.87 -2.16,-9.7 -2.16,-9.7 -3.78,-19.41 -0.54,-9.17 -0.54,-9.17 -1.62,-18.87 0,-9.7 0,-9.7 0,-19.41 1.08,-9.7 1.08,-9.7 1.62,-19.41 1.62,-9.7 1.62,-9.7 3.78,-19.41 2.16,-9.17 2.16,-9.17 4.85,-18.33 2.7,-9.16 2.7,-9.16 6.47,-18.33 3.78,-9.17 3.78,-9.17 7.55,-17.79 4.85,-8.63 4.85,-8.63 9.7,-17.25 5.39,-8.09 5.39,-8.09 10.78,-15.63 5.93,-7.55 5.93,-7.55 12.4,-15.09 6.47,-7.01 6.47,-7.01 13.48,-14.02 7.01,-6.47 7.01,-6.47 14.56,-12.94 7.55,-5.93 7.55,-5.93 15.63,-11.32 8.09,-5.39 8.09,-5.39 16.17,-10.24 8.63,-4.85 8.63,-4.85 17.25,-9.17 9.17,-3.23 9.17,-3.23 18.33,-7.01 9.17,-2.69 9.17,-2.69 18.33,-5.39 9.7,-2.16 9.7,-2.16 18.87,-4.31 9.7,-1.07 9.7,-1.07 19.41,-2.69 9.7,-0.54 9.7,-0.54 19.41,-0.54"/>
   <path class="fil1 str0" d="M718.07 780.72c226.43,0 226.43,0 452.86,0 7.55,0 7.55,0 15.09,-0.54 7.55,-1.07 7.55,-1.07 15.09,-2.15 7.55,-1.08 7.55,-1.08 14.56,-2.7 7.55,-2.16 7.55,-2.16 14.56,-4.85 7.01,-2.7 7.01,-2.7 14.02,-5.39 6.47,-3.23 6.47,-3.23 13.48,-7.01 6.47,-3.77 6.47,-3.77 12.94,-7.55 5.93,-4.31 5.93,-4.31 11.86,-9.17 5.93,-4.85 5.93,-4.85 11.32,-9.7 5.39,-5.39 5.39,-5.39 10.78,-11.32 4.31,-5.39 4.31,-5.39 9.17,-11.32 4.31,-6.47 4.31,-6.47 8.63,-12.94 3.77,-6.47 3.77,-6.47 7.01,-12.94 3.24,-7.01 3.24,-7.01 6.47,-13.48 2.7,-7.55 2.7,-7.55 4.85,-14.56 2.15,-7.01 2.15,-7.01 3.77,-14.56 1.62,-7.55 1.62,-7.55 2.7,-15.09 0.54,-7.01 0.54,-7.01 1.08,-14.56 0,-7.55 0,-7.55 0,-15.1 -0.54,-7.55 -0.54,-7.55 -1.08,-15.09 -1.08,-7.55 -1.08,-7.55 -2.7,-15.09 -1.62,-7.01 -1.62,-7.01 -3.77,-14.56 -2.16,-7.01 -2.16,-7.01 -4.85,-14.02 -3.23,-7.01 -3.23,-7.01 -6.47,-14.02 -3.24,-6.47 -3.24,-6.47 -7.01,-12.94 -4.31,-6.47 -4.31,-6.47 -8.63,-12.4 -4.85,-5.93 -4.85,-5.93 -9.17,-11.86 -5.39,-5.39 -5.39,-5.39 -10.78,-10.78 -5.39,-5.39 -5.39,-5.39 -11.32,-10.24 -5.93,-4.31 -5.93,-4.31 -11.86,-8.63 -6.47,-4.31 -6.47,-4.31 -12.94,-8.09 -7.01,-3.78 -7.01,-3.78 -13.48,-7.01 -7.01,-2.7 -7.01,-2.7 -14.02,-5.39 -7.01,-2.16 -7.01,-2.16 -14.56,-4.31 -7.01,-1.62 -7.01,-1.62 -14.56,-3.24 -7.55,-1.07 -7.55,-1.07 -15.09,-2.15 -7.55,0 -7.55,0 -15.09,-0.54"/>
   <path class="fil1 str0" d="M1170.93 425.45c-306.22,0 -306.22,0 -612.44,0 -7.55,0.54 -7.55,0.54 -15.09,0.54 -7.55,1.08 -7.55,1.08 -15.09,2.15 -7.01,1.62 -7.01,1.62 -14.56,3.24 -7.01,2.16 -7.55,2.16 -14.56,4.31 -7.01,2.69 -7.01,2.69 -14.02,5.39 -6.47,3.23 -6.47,3.23 -13.48,7.01 -6.47,3.78 -6.47,3.78 -12.94,8.09 -5.93,4.31 -5.93,4.31 -11.86,8.63 -5.93,4.85 -5.93,4.85 -11.32,10.24 -5.39,5.39 -5.39,5.39 -10.24,10.78 -4.85,5.93 -4.85,5.93 -9.7,11.86 -4.31,5.93 -4.31,5.93 -8.63,12.4 -3.78,6.47 -3.78,6.47 -7.01,12.94 -3.24,7.01 -3.24,7.01 -6.47,14.02 -2.7,7.55 -2.7,7.55 -5.39,15.1 -1.62,6.47 -1.62,6.47 -3.23,13.48 -1.62,7.55 -1.62,7.55 -2.7,15.09 -0.54,7.55 -0.54,7.55 -1.08,15.09 0,7.55 0,7.55 0,15.1 0.54,7.55 0.54,7.55 1.08,14.56 1.08,7.55 1.08,7.55 2.7,15.09 1.61,7.01 1.61,7.01 3.23,13.48 2.7,8.09 2.7,8.09 5.39,15.64 3.23,6.47 3.23,6.47 6.47,13.48 3.23,6.47 3.23,6.47 7.01,12.94 4.31,6.47 4.31,6.47 8.63,12.94 4.85,5.93 4.85,5.93 9.7,11.32 4.85,5.93 4.85,5.93 10.24,11.32 5.39,4.85 5.39,4.85 11.32,9.7 5.93,4.31 5.93,4.31 11.86,9.17 6.47,3.78 6.47,3.78 12.94,7.55 7.01,3.78 7.01,3.78 13.48,7.01 7.01,2.7 7.01,2.7 14.02,5.39 7.01,2.69 7.55,2.69 14.56,4.85 7.55,1.62 7.55,1.62 14.56,2.7 7.55,1.08 7.55,1.08 15.09,2.15 7.55,0.54 7.55,0.54 15.09,0.54 79.79,0 79.79,0 159.58,0"/>
   <path class="fil1 str0" d="M1080.89 723.04c39.89,0.54 39.89,0.54 79.79,0 4.85,0 4.85,0 10.24,0 4.85,-0.54 4.85,-0.54 10.24,-1.62 4.85,-1.07 4.85,-1.07 9.7,-2.15 4.85,-1.08 4.85,-1.08 9.7,-2.7 4.85,-2.16 4.85,-2.16 9.7,-3.78 4.31,-2.15 4.31,-2.15 9.17,-4.85 4.31,-2.7 4.31,-2.7 8.63,-5.39 3.78,-2.7 3.78,-2.7 8.09,-5.93 3.78,-3.23 3.78,-3.23 7.55,-6.47 3.78,-3.77 3.78,-3.77 7.01,-7.55 3.24,-3.77 3.24,-3.77 6.47,-8.09 3.23,-4.31 3.23,-4.31 5.93,-8.63 2.16,-4.31 2.16,-4.31 4.85,-8.63 2.16,-4.85 2.16,-4.85 4.31,-9.17 1.62,-4.85 1.62,-4.85 3.23,-9.7 1.62,-4.85 1.62,-4.85 2.7,-9.7 1.08,-5.39 1.08,-5.39 1.62,-10.24 0.54,-4.85 0.54,-4.85 1.08,-10.24 0,-5.39 0,-5.39 -0.54,-11.32 0,-4.31 0,-4.31 -0.54,-9.17 -0.54,-4.85 -0.54,-4.85 -1.62,-9.7 -1.08,-5.39 -1.08,-5.39 -2.7,-10.24 -1.61,-4.85 -1.61,-4.85 -3.23,-9.17 -2.16,-4.85 -2.16,-4.85 -4.31,-9.7 -2.69,-4.31 -2.69,-4.31 -4.85,-8.63 -2.7,-4.31 -2.7,-4.31 -5.93,-8.63 -3.24,-3.77 -3.24,-3.77 -6.47,-8.09 -3.23,-3.78 -3.23,-3.78 -7.01,-7.01 -3.77,-3.78 -3.77,-3.78 -7.55,-7.01 -4.31,-2.7 -4.31,-2.7 -8.09,-5.93 -4.31,-2.69 -4.31,-2.69 -8.63,-5.39 -4.85,-2.16 -4.85,-2.16 -9.17,-4.31 -4.85,-2.16 -4.85,-2.16 -9.7,-4.31 -4.85,-1.08 -4.85,-1.08 -9.7,-2.7 -4.85,-1.07 -4.85,-1.07 -9.7,-2.15 -5.39,-0.54 -5.39,-0.54 -10.24,-1.08 -5.39,-0.54 -5.39,-0.54 -10.24,-0.54"/>
   <path class="fil1 str0" d="M1160.68 483.13c-299.75,0 -299.75,0 -598.96,0 -5.39,0 -5.39,0 -10.24,0.54 -4.85,0.54 -4.85,0.54 -10.24,1.08 -4.85,1.08 -4.85,1.08 -9.7,2.15 -4.85,1.62 -4.85,1.62 -9.7,2.7 -4.85,2.16 -4.85,2.16 -9.7,4.31 -4.31,2.15 -4.31,2.15 -9.16,4.31 -4.31,2.7 -4.31,2.7 -8.63,5.39 -4.31,3.24 -4.31,3.24 -8.09,5.93 -3.78,3.23 -3.78,3.23 -7.55,7.01 -3.77,3.23 -3.77,3.23 -7.01,7.01 -3.23,4.31 -3.23,4.31 -6.47,8.09 -3.24,4.31 -3.24,4.31 -5.93,8.63 -2.7,4.31 -2.7,4.31 -4.85,8.63 -2.15,4.85 -2.15,4.85 -4.31,9.7 -1.62,4.31 -1.62,4.31 -3.24,9.17 -1.62,4.85 -1.62,4.85 -2.69,10.24 -1.08,4.85 -1.08,4.85 -1.62,9.7 -0.54,5.39 -0.54,5.39 -1.08,10.24 0,5.39 0,5.39 0,10.24 0.54,5.39 0.54,5.39 1.08,10.24 0.54,4.85 0.54,4.85 1.62,10.24 1.07,4.85 1.07,4.85 2.69,9.7 1.62,4.85 1.62,4.85 3.24,9.7 2.16,4.31 2.16,4.31 4.31,9.17 2.16,4.31 2.16,4.31 4.85,8.63 2.69,4.31 2.69,4.31 5.93,8.63 3.24,4.31 3.24,4.31 6.47,8.09 3.24,3.78 3.24,3.78 7.01,7.55 3.78,3.24 3.78,3.24 7.55,6.47 3.77,3.24 3.77,3.24 8.09,5.93 4.31,2.69 4.31,2.69 8.63,5.39 4.85,2.7 4.85,2.7 9.16,4.85 4.85,1.62 4.85,1.62 9.7,3.78 4.85,1.62 4.85,1.62 9.7,2.7 4.85,1.08 4.85,1.08 9.7,2.15 5.39,1.08 5.39,1.08 10.24,1.62 4.85,0 4.85,0 10.24,0"/>
   <path class="fil1 str0" d="M1155.83 723.04c5.39,0 5.39,0 10.24,0 5.39,-0.54 5.39,-0.54 10.24,-1.62 4.85,-1.07 4.85,-1.07 10.24,-2.15 4.85,-1.08 4.85,-1.08 9.7,-2.7 4.31,-2.16 4.31,-2.16 9.17,-3.78 4.85,-2.15 4.85,-2.15 9.17,-4.85 4.31,-2.7 4.31,-2.7 8.63,-5.39 4.31,-2.7 4.31,-2.7 8.09,-5.93 4.31,-3.23 4.31,-3.23 8.09,-6.47 3.23,-3.77 3.23,-3.77 7.01,-7.55 3.24,-3.77 3.24,-3.77 6.47,-8.09 2.7,-4.31 2.7,-4.31 5.39,-8.63 2.7,-4.31 2.7,-4.31 4.85,-8.63 2.16,-4.85 2.16,-4.85 4.31,-9.17 1.62,-4.85 1.62,-4.85 3.24,-9.7 1.62,-4.85 1.62,-4.85 2.7,-9.7 1.08,-5.39 1.08,-5.39 1.61,-10.24 0.54,-4.85 0.54,-4.85 1.08,-10.24 0,-4.85 0,-4.85 0,-10.24 -0.54,-4.85 -0.54,-4.85 -1.08,-10.24 -0.54,-4.85 -0.54,-4.85 -1.61,-9.7 -1.08,-5.39 -1.08,-5.39 -2.7,-10.24 -1.62,-4.85 -1.62,-4.85 -3.24,-9.17 -2.15,-4.85 -2.15,-4.85 -4.31,-9.7 -2.16,-4.31 -2.16,-4.31 -4.85,-8.63 -2.69,-4.31 -2.69,-4.31 -5.39,-8.63 -3.23,-3.77 -3.23,-3.77 -6.47,-8.09 -3.78,-3.78 -3.78,-3.78 -7.01,-7.01 -3.78,-3.78 -3.78,-3.78 -8.09,-7.01 -3.78,-2.7 -3.78,-2.7 -8.09,-5.93 -4.31,-2.69 -4.31,-2.69 -8.63,-5.39 -4.31,-2.16 -4.31,-2.16 -9.17,-4.31 -4.85,-2.16 -4.85,-2.16 -9.17,-4.31 -4.85,-1.08 -4.85,-1.08 -9.7,-2.7 -5.39,-1.07 -5.39,-1.07 -10.24,-2.15 -4.85,-0.54 -4.85,-0.54 -10.24,-1.08 -4.85,-0.54 -4.85,-0.54 -10.24,-0.54"/>
   <path class="fil1 str0" d="M1167.69 780.72c7.55,0 7.55,0 14.56,-0.54 7.55,-1.07 7.55,-1.07 15.09,-2.15 7.55,-1.08 7.55,-1.08 15.09,-2.7 0.54,-0.54 0.54,-0.54 1.62,-0.54 6.47,-2.16 6.47,-2.16 12.4,-4.31 7.01,-2.7 7.01,-2.7 14.02,-5.39 7.01,-3.23 7.01,-3.23 13.48,-7.01 6.47,-3.77 6.47,-3.77 12.94,-7.55 5.93,-4.85 5.93,-4.85 12.4,-9.17 5.39,-4.85 5.39,-4.85 11.32,-9.7 4.85,-5.39 4.85,-5.39 10.24,-11.32 4.85,-5.39 4.85,-5.39 9.7,-11.32 3.78,-6.47 3.78,-6.47 8.09,-12.94 3.78,-6.47 3.78,-6.47 7.55,-12.94 3.24,-7.01 3.24,-7.01 5.93,-13.48 1.08,-2.16 1.08,-2.16 1.61,-4.31 1.62,-4.85 1.62,-4.85 3.78,-10.24 1.62,-7.01 1.62,-7.01 3.78,-14.56 1.07,-7.55 1.07,-7.55 2.15,-15.09 1.08,-7.01 1.08,-7.01 1.62,-14.56 0,-7.55 0,-7.55 0,-15.1 -0.54,-7.55 -0.54,-7.55 -1.62,-15.09 -1.08,-7.55 -1.08,-7.55 -2.15,-15.09 -2.16,-7.01 -2.16,-7.01 -3.78,-14.56 -2.7,-7.01 -2.7,-7.01 -5.39,-14.02 -2.7,-7.01 -2.7,-7.01 -5.93,-14.02 -3.77,-6.47 -3.77,-6.47 -7.55,-12.94 -4.31,-6.47 -4.31,-6.47 -8.09,-12.4 -4.85,-5.93 -4.85,-5.93 -9.7,-11.86 -5.39,-5.39 -5.39,-5.39 -10.24,-10.78 -5.93,-5.39 -5.93,-5.39 -11.32,-10.24 -6.47,-4.31 -6.47,-4.31 -12.4,-8.63 -6.47,-4.31 -6.47,-4.31 -12.94,-8.09 -6.47,-3.78 -6.47,-3.78 -13.48,-7.01 -7.01,-2.7 -7.01,-2.7 -14.02,-5.39 -5.93,-2.16 -5.93,-2.16 -12.4,-3.78 -1.08,-0.54 -1.08,-0.54 -1.62,-0.54 -7.55,-1.62 -7.55,-1.62 -15.09,-3.24 -7.55,-1.07 -7.55,-1.07 -15.09,-2.15 -7.01,0 -7.01,0 -14.56,-0.54"/>
   <polyline class="fil1 str0" points="752.03,780.72 718.07,780.72 700.81,780.72 "/>
   <polyline class="fil1 str0" points="1047.47,655.65 1080.89,655.65 1080.89,723.04 "/>
   <polyline class="fil1 str0" points="561.72,723.04 1047.47,723.04 1047.47,655.65 1042.61,655.65 1042.61,723.04 "/>
   <polyline class="fil1 str0" points="681.94,851.89 681.94,831.4 671.7,831.4 681.94,831.4 "/>
   <line class="fil1 str0" x1="769.28" y1="780.72" x2="803.25" y2= "780.72" />
   <polyline class="fil1 str0" points="809.18,374.77 814.03,374.77 809.18,374.77 "/>
   <polyline class="fil1 str0" points="814.03,374.77 814.03,367.76 810.8,367.76 810.26,286.35 809.72,276.65 "/>
   <line class="fil1 str0" x1="814.03" y1="367.76" x2="915.38" y2= "367.76" />
   <line class="fil1 str0" x1="888.97" y1="780.72" x2="871.72" y2= "780.72" />
   <line class="fil1 str0" x1="906.22" y1="780.72" x2="940.18" y2= "780.72" />
   <polyline class="fil1 str0" points="948.81,831.4 957.43,831.4 948.81,831.4 "/>
   <polyline class="fil1 str0" points="957.43,831.4 959.59,831.4 959.59,851.89 "/>
   <line class="fil1 str0" x1="974.69" y1="780.72" x2="1008.65" y2= "780.72" />
   <line class="fil1 str0" x1="1145.59" y1="780.72" x2="1162.84" y2= "780.72" />
   <line class="fil1 str0" x1="1170.93" y1="780.72" x2="1167.69" y2= "780.72" />
   <path class="fil1 str1" d="M598.38 374.77c-21.02,0 -21.02,0 -41.51,0 -2.16,0 -2.16,0 -4.31,0 -9.7,0.54 -9.7,0 -19.41,0.54 -9.7,1.62 -9.7,1.62 -19.41,2.69 -9.17,2.16 -9.17,2.16 -18.87,4.31 -9.17,2.7 -9.17,2.7 -18.33,5.39 -9.17,3.78 -9.17,3.78 -18.33,7.01 -8.63,4.31 -8.63,4.31 -17.25,9.17 -8.09,4.85 -8.09,4.85 -16.17,10.24 -8.09,5.39 -8.09,5.39 -16.17,11.86 -7.01,5.93 -7.01,5.93 -14.02,12.4 -7.01,7.01 -7.01,7.01 -13.48,14.02 -5.93,7.55 -5.93,7.55 -12.4,15.09 -4.85,7.55 -4.85,7.55 -10.24,15.09 -4.85,8.63 -4.85,8.63 -9.7,17.79 -4.31,8.63 -4.31,8.63 -8.09,17.79 -3.24,9.17 -3.24,9.17 -6.47,18.33 -2.7,9.17 -2.7,9.17 -4.85,18.33 -1.62,9.7 -1.62,9.7 -3.23,19.41 -1.08,9.7 -1.08,9.7 -1.62,19.41 0,9.7 0,9.7 0,19.41 0.54,9.7 0.54,9.7 1.62,18.87 1.61,9.7 1.61,9.7 3.23,19.41 2.16,9.17 2.16,9.17 4.85,18.87 3.23,9.16 3.23,9.16 6.47,18.33 3.77,8.63 3.77,8.63 8.09,17.25 2.7,5.39 2.7,5.39 5.93,10.78 1.62,3.24 1.62,3.24 3.24,6.47 5.39,8.09 5.39,8.09 10.78,16.17 6.47,7.55 6.47,7.55 12.4,15.1 6.47,7.01 6.47,7.01 13.48,14.02 7.01,6.47 7.01,6.47 14.56,12.4 7.55,5.93 7.55,5.93 15.63,11.86 8.09,4.85 8.09,4.85 16.17,10.24 8.63,4.31 8.63,4.31 17.25,8.63 9.17,3.77 9.17,3.77 18.33,7.01 9.17,3.23 9.17,3.23 18.33,5.93 9.7,2.16 9.7,2.16 18.87,3.78 9.7,1.62 9.7,1.62 19.41,2.69 9.7,0.54 9.7,0.54 19.41,0.54 2.15,0 2.15,0 4.31,0 57.15,0 57.15,0 114.83,0"/>
   <path class="fil1 str1" d="M809.18 374.77c0,-38.82 0,-37.74 0,-76.02 0,-7.55 0,-7.55 0,-15.63 0.54,-3.24 0.54,-3.24 0.54,-6.47"/>
   <path class="fil1 str1" d="M1077.12 831.4c47.98,0.54 47.98,0.54 95.43,0 9.7,0 9.7,0 19.41,-0.54 9.7,-1.07 9.7,-1.07 19.41,-2.69 9.17,-1.62 9.17,-1.62 18.87,-3.78 9.17,-2.7 9.17,-2.7 18.33,-5.93 9.17,-3.24 9.17,-3.24 18.33,-7.01 8.63,-4.31 8.63,-4.31 17.25,-8.63 8.09,-5.39 8.09,-5.39 16.71,-10.24 7.55,-5.93 7.55,-5.93 15.1,-11.86 7.55,-5.93 7.55,-5.93 14.56,-12.4 7.01,-7.01 7.01,-7.01 13.48,-14.02 6.47,-7.55 6.47,-7.55 12.4,-15.1 5.39,-8.09 5.39,-8.09 10.78,-16.17 1.62,-3.23 1.62,-3.23 3.78,-6.47 2.7,-5.39 2.7,-5.39 5.93,-10.78 3.78,-8.63 3.78,-8.63 7.55,-17.25 3.78,-9.17 3.78,-9.17 6.47,-18.33 2.69,-9.7 2.69,-9.7 4.85,-18.87 2.16,-9.7 2.16,-9.7 3.78,-19.41 0.54,-9.17 0.54,-9.17 1.61,-18.87 0,-9.7 0,-9.7 0,-19.41 -1.07,-9.7 -1.07,-9.7 -1.61,-19.41 -1.62,-9.7 -1.62,-9.7 -3.78,-19.41 -2.16,-9.17 -2.16,-9.17 -4.85,-18.33 -2.7,-9.16 -2.7,-9.16 -6.47,-18.33 -3.77,-9.17 -3.77,-9.17 -7.55,-17.79 -4.85,-8.63 -4.85,-8.63 -9.7,-17.25 -5.39,-8.09 -5.39,-8.09 -10.78,-15.63 -5.93,-7.55 -5.93,-7.55 -12.4,-15.09 -6.47,-7.01 -6.47,-7.01 -13.48,-14.02 -7.01,-6.47 -7.01,-6.47 -14.56,-12.94 -7.55,-5.93 -7.55,-5.93 -15.1,-11.32 -8.63,-5.39 -8.63,-5.39 -16.71,-10.24 -8.63,-4.85 -8.63,-4.85 -17.25,-9.17 -9.16,-3.23 -9.16,-3.23 -18.33,-7.01 -9.17,-2.69 -9.17,-2.69 -18.33,-5.39 -9.7,-2.16 -9.7,-2.16 -18.87,-4.31 -9.7,-1.07 -9.7,-1.07 -19.41,-2.69 -9.7,-0.54 -9.7,0 -19.41,-0.54 -4.85,0 -4.85,0 -9.7,0"/>
   <line class="fil1 str1" x1="552.56" y1="374.77" x2="598.38" y2= "374.77" />
   <line class="fil1 str1" x1="671.7" y1="831.4" x2="556.87" y2= "831.4" />
   <line class="fil1 str1" x1="552.56" y1="831.4" x2="563.88" y2= "831.4" />
   <polyline class="fil1 str1" points="598.38,374.77 666.85,374.77 615.09,374.77 "/>
   <polyline class="fil1 str1" points="666.85,374.77 803.25,374.77 666.85,374.77 "/>
   <polyline class="fil1 str1" points="681.94,851.89 671.7,851.89 734.78,851.89 681.94,851.89 "/>
   <line class="fil1 str1" x1="671.7" y1="851.89" x2="671.7" y2= "831.4" />
   <polyline class="fil1 str1" points="700.81,851.89 759.58,851.89 769.28,851.89 734.78,851.89 "/>
   <polyline class="fil1 str1" points="769.28,851.89 769.82,851.89 769.82,831.4 786.54,831.4 769.82,831.4 906.22,831.4 786.54,831.4 "/>
   <line class="fil1 str1" x1="786.54" y1="374.77" x2="809.18" y2= "374.77" />
   <polyline class="fil1 str1" points="809.72,276.65 911.07,276.65 911.61,286.35 912.69,367.76 "/>
   <line class="fil1 str1" x1="803.25" y1="374.77" x2="809.18" y2= "374.77" />
   <polyline class="fil1 str1" points="906.22,831.4 940.18,831.4 906.22,831.4 "/>
   <polyline class="fil1 str1" points="915.38,367.76 915.38,374.77 957.43,374.77 915.38,374.77 "/>
   <polyline class="fil1 str1" points="1025.9,851.89 959.59,851.89 948.81,851.89 1037.22,851.89 1047.47,851.89 974.69,851.89 "/>
   <polyline class="fil1 str1" points="948.81,851.89 948.81,831.4 940.18,831.4 948.81,831.4 "/>
   <polyline class="fil1 str1" points="957.43,374.77 1162.84,374.77 991.4,374.77 "/>
   <polyline class="fil1 str1" points="1047.47,851.89 1047.47,831.4 1077.12,831.4 1047.47,831.4 "/>
   <polyline class="fil1 str1" points="1162.84,831.4 1172.54,831.4 1077.12,831.4 "/>
   <line class="fil1 str1" x1="1145.59" y1="374.77" x2="1172.54" y2= "374.77" />
   <path class="fil1 str0" d="M554.17 711.72c-4.31,-0.54 -4.31,-0.54 -9.16,-0.54 -4.31,-0.54 -4.31,-0.54 -8.63,-1.08 -4.31,-1.08 -4.85,-1.08 -9.17,-2.16 -4.31,-1.08 -4.31,-1.08 -8.63,-2.7 -4.31,-1.61 -4.31,-1.61 -8.09,-3.23 -4.31,-2.16 -4.31,-2.16 -8.63,-3.78 -3.78,-2.69 -3.78,-2.69 -7.55,-4.85 -3.78,-2.7 -3.78,-2.7 -7.55,-5.39 -3.24,-2.69 -3.24,-2.69 -6.47,-5.93 -3.23,-3.23 -3.23,-3.23 -6.47,-6.47 -2.7,-3.24 -2.7,-3.24 -5.93,-7.01 -2.7,-3.78 -2.7,-3.78 -4.85,-7.55 -2.69,-3.78 -2.69,-3.78 -4.85,-7.55 -1.62,-4.31 -1.62,-4.31 -3.78,-8.63"/>
   <path class="fil1 str0" d="M454.44 561.31c2.16,-4.31 2.16,-4.31 3.78,-8.09 2.16,-4.31 2.16,-4.31 4.85,-8.09 2.16,-3.77 2.16,-3.77 4.85,-7.55 3.23,-3.23 3.23,-3.23 5.93,-7.01 3.24,-3.23 3.24,-3.23 6.47,-6.47 3.24,-2.7 3.24,-2.7 6.47,-5.93 3.77,-2.7 3.77,-2.7 7.55,-5.39 3.77,-2.15 3.77,-2.15 7.55,-4.31 4.31,-2.16 4.31,-2.16 8.63,-4.31 3.77,-1.61 3.77,-1.61 8.09,-3.23 4.31,-1.62 4.31,-1.62 8.63,-2.7 4.31,-1.08 4.85,-1.08 9.17,-1.62 4.31,-1.08 4.31,-1.08 8.63,-1.62 4.85,0 4.85,0 9.16,0"/>
   <line class="fil1 str0" x1="454.44" y1="644.87" x2="454.44" y2= "561.31" />
   <polyline class="fil1 str0" points="598.92,654.57 509.43,654.57 509.43,589.34 598.92,589.34 598.92,654.57 582.75,638.94 582.75,604.97 598.92,589.34 "/>
   <polyline class="fil1 str0" points="509.43,654.57 524.52,638.94 582.75,638.94 "/>
   <line class="fil1 str0" x1="509.43" y1="589.34" x2="524.52" y2= "604.97" />
   <line class="fil1 str0" x1="582.75" y1="604.97" x2="582.21" y2= "604.97" />
   <polyline class="fil1 str0" points="712.14,654.57 712.14,589.34 801.63,589.34 801.63,654.57 712.14,654.57 727.77,638.94 786,638.94 786,604.97 785.46,604.97 "/>
   <line class="fil1 str0" x1="712.14" y1="589.34" x2="727.77" y2= "604.97" />
   <line class="fil1 str0" x1="786" y1="638.94" x2="801.63" y2= "654.57" />
   <line class="fil1 str0" x1="786" y1="604.97" x2="801.63" y2= "589.34" />
   <polyline class="fil1 str0" points="930.48,604.97 915.38,589.34 915.38,654.57 1004.88,654.57 1004.88,589.34 988.7,604.97 988.7,638.94 1004.88,654.57 "/>
   <polyline class="fil1 str0" points="915.38,654.57 930.48,638.94 988.7,638.94 "/>
   <line class="fil1 str0" x1="915.38" y1="589.34" x2="1004.88" y2= "589.34" />
   <line class="fil1 str0" x1="988.7" y1="604.97" x2="988.7" y2= "604.97" />
   <polyline class="fil1 str0" points="1088.98,711.72 1088.98,650.8 1088.44,650.8 "/>
   <polyline class="fil1 str0" points="1118.63,589.34 1207.59,589.34 1207.59,654.57 1118.63,654.57 1118.63,589.34 1133.72,604.97 "/>
   <polyline class="fil1 str0" points="1118.63,654.57 1133.72,638.94 1191.95,638.94 1191.95,604.97 1191.41,604.97 "/>
   <line class="fil1 str0" x1="1191.95" y1="638.94" x2="1207.59" y2= "654.57" />
   <line class="fil1 str0" x1="1191.95" y1="604.97" x2="1207.59" y2= "589.34" />
   <path class="fil1 str1" d="M563.88 711.72c-4.85,0 -4.85,0 -10.24,0 -4.31,-0.54 -4.31,-0.54 -9.17,-0.54 -4.31,-0.54 -4.31,-0.54 -8.63,-1.08 -4.85,-1.08 -4.85,-1.08 -9.17,-2.16 -4.31,-1.08 -4.31,-1.08 -8.63,-2.7 -4.31,-1.61 -4.31,-1.61 -8.63,-3.23 -3.78,-2.16 -3.78,-2.16 -8.09,-3.78 -3.78,-2.69 -3.78,-2.69 -7.55,-4.85 -3.78,-2.7 -3.78,-2.7 -7.55,-5.39 -3.24,-2.69 -3.24,-2.69 -7.01,-5.93 -2.69,-3.23 -2.69,-3.23 -5.93,-6.47 -3.23,-3.24 -3.23,-3.24 -5.93,-7.01 -2.7,-3.78 -2.7,-3.78 -5.39,-7.55 -2.15,-3.78 -2.15,-3.78 -4.31,-7.55 -2.16,-4.31 -2.16,-4.31 -3.78,-8.63"/>
   <path class="fil1 str1" d="M453.9 561.31c1.62,-4.31 1.62,-4.31 3.78,-8.09 2.16,-4.31 2.16,-4.31 4.31,-8.09 2.7,-3.77 2.7,-3.77 5.39,-7.55 2.7,-3.23 2.7,-3.23 5.93,-7.01 3.24,-3.23 3.24,-3.23 5.93,-6.47 3.78,-2.7 3.78,-2.7 7.01,-5.93 3.77,-2.7 3.77,-2.7 7.55,-5.39 3.77,-2.15 3.77,-2.15 7.55,-4.31 4.31,-2.16 4.31,-2.16 8.09,-4.31 4.31,-1.61 4.31,-1.61 8.63,-3.23 4.31,-1.62 4.31,-1.62 8.63,-2.7 4.31,-1.08 4.31,-1.08 9.17,-1.62 4.31,-1.08 4.31,-1.08 8.63,-1.62 4.85,0 4.85,0 9.17,0 5.39,0 5.39,0 10.24,0"/>
   <path class="fil1 str1" d="M1094.37 711.72c34.5,0 34.5,0 69.01,0 4.85,-0.54 4.85,-0.54 9.17,-0.54 4.31,-0.54 4.31,-0.54 9.17,-1.08 4.31,-1.08 4.31,-1.08 8.63,-2.16 4.31,-1.08 4.31,-1.08 8.63,-2.7 4.31,-1.61 4.31,-1.61 8.63,-3.23 3.77,-2.16 3.77,-2.16 8.09,-3.78 3.77,-2.69 3.77,-2.69 7.55,-4.85 3.77,-2.7 3.77,-2.7 7.55,-5.39 3.23,-2.69 3.23,-2.69 7.01,-5.93 3.24,-3.23 3.24,-3.23 5.93,-6.47 3.24,-3.24 3.24,-3.24 5.93,-7.01 2.69,-3.78 2.69,-3.78 5.39,-7.55 2.16,-3.78 2.16,-3.78 4.31,-7.55 2.16,-4.31 2.16,-4.31 3.78,-8.63"/>
   <path class="fil1 str1" d="M1263.11 561.31c-1.62,-4.31 -1.62,-4.31 -3.78,-8.09 -2.15,-4.31 -2.15,-4.31 -4.31,-8.09 -2.7,-3.77 -2.7,-3.77 -5.39,-7.55 -2.7,-3.23 -2.7,-3.23 -5.93,-7.01 -2.69,-3.23 -2.69,-3.23 -5.93,-6.47 -3.78,-2.7 -3.78,-2.7 -7.01,-5.93 -3.78,-2.7 -3.78,-2.7 -7.55,-5.39 -3.78,-2.15 -3.78,-2.15 -7.55,-4.31 -4.31,-2.16 -4.31,-2.16 -8.09,-4.31 -4.31,-1.61 -4.31,-1.61 -8.63,-3.23 -4.31,-1.62 -4.31,-1.62 -8.63,-2.7 -4.31,-1.08 -4.31,-1.08 -8.63,-1.62 -4.85,-1.08 -4.85,-1.08 -9.17,-1.62 -4.31,0 -4.31,0 -9.17,0 -25.88,0 -25.88,0 -51.76,0"/>
   <line class="fil1 str1" x1="553.64" y1="711.72" x2="563.88" y2= "711.72" />
   <line class="fil1 str1" x1="453.9" y1="644.87" x2="453.9" y2= "561.31" />
   <line class="fil1 str1" x1="563.88" y1="494.99" x2="553.64" y2= "494.99" />
   <polyline class="fil1 str1" points="582.21,638.94 582.21,604.97 581.13,604.97 524.52,604.97 524.52,638.94 "/>
   <polyline class="fil1 str1" points="563.88,711.72 632.35,711.72 615.09,711.72 "/>
   <polyline class="fil1 str1" points="563.88,494.99 615.09,494.99 598.38,494.99 "/>
   <polyline class="fil1 str1" points="615.09,494.99 632.35,494.99 615.09,494.99 "/>
   <polyline class="fil1 str1" points="912.15,711.72 923.47,711.72 632.35,711.72 "/>
   <polyline class="fil1 str1" points="1094.37,494.99 1111.62,494.99 632.35,494.99 "/>
   <polyline class="fil1 str1" points="785.46,638.94 785.46,604.97 727.77,604.97 727.77,638.94 "/>
   <polyline class="fil1 str1" points="923.47,711.72 1025.9,711.72 1008.65,711.72 "/>
   <polyline class="fil1 str1" points="930.48,638.94 930.48,604.97 940.18,604.97 988.7,604.97 988.7,638.94 "/>
   <polyline class="fil1 str1" points="1035.07,711.72 1025.9,711.72 1035.07,711.72 1035.07,650.8 1043.15,650.8 1035.07,650.8 "/>
   <polyline class="fil1 str1" points="1043.15,650.8 1088.44,650.8 1077.12,650.8 1088.44,650.8 1088.44,711.72 1094.37,711.72 1088.44,711.72 "/>
   <line class="fil1 str1" x1="1263.11" y1="644.87" x2="1263.11" y2= "561.31" />
   <polyline class="fil1 str1" points="1191.41,638.94 1191.41,604.97 1133.72,604.97 1133.72,638.94 "/>
  </g>
  <g id="_2291017316736">
   <path class="fil0" d="M3180.87 310.71l29.08 53.06 20.44 62.09 0 25.94 -4.32 12.18 -108.07 175.67 -29.08 36.55 -38.91 26.72 -96.29 35.37 -12.57 0.39 13.76 -11.4 20.43 -41.26 4.32 -16.51 0 -67.2 -16.5 -65.63 -4.72 -8.26 -1.18 -7.86 117.11 -64.06 -4.71 -10.22 0 -14.93 4.32 -20.83 -1.18 -58.56 96.29 -58.17 11.79 16.9zm-277.85 240.12l10.61 39.3 -1.18 20.83 -12.58 24.37 -109.65 67.2 -3.93 24.76 -13.76 31.05 -311.26 186.68 -8.25 32.62 -17.69 23.19 -143.84 87.24 -8.26 0.79 1.57 -7.47 8.25 -17.29 3.93 -16.51 0 -42.05 -12.18 -49.52 -9.83 -25.55 161.52 -98.25 2.36 -7.86 152.48 -90.78 14.54 -14.15 290.43 -170.96 6.68 2.36zm-675.57 47.16l3.54 53.45 -3.54 9.43 -12.58 -5.5 -13.75 0 -33.41 21.22 -7.86 0 42.84 -76.63 11 -10.22 5.11 0 8.65 8.25zm-382.78 70.35l69.95 36.94 4.72 8.26 -0.39 9.04 -128.9 77.81 -6.68 -0.39 -12.97 -33.01 -3.54 -24.76 0 -27.51 3.54 -20.83 15.33 -21.61 16.5 -8.25 30.26 0 12.19 4.32zm131.65 315.97l-5.11 1.57 1.18 -5.5 3.93 3.93zm143.84 84.1l-5.5 0 0 -5.5 5.5 0 0 5.5zm649.63 -396.15l12.58 16.11 -157.59 95.5 -11 0 -4.32 -16.9 -1.57 -16.5 139.91 -82.53 14.15 0 7.86 4.32z"/>
   <path class="fil1 str0" d="M2921.89 750.08c5.11,-1.96 5.11,-1.96 10.22,-4.32 4.72,-2.36 4.72,-2.36 9.04,-5.11 4.32,-3.54 4.32,-3.54 8.65,-6.68 3.93,-3.93 3.93,-4.32 7.86,-8.25 3.15,-4.32 3.15,-4.32 6.68,-9.04 2.75,-5.11 2.75,-5.11 5.9,-10.22 2.36,-5.9 2.36,-5.9 4.71,-11.4 1.97,-6.29 1.97,-6.29 3.54,-12.57 1.57,-6.68 1.57,-6.68 2.75,-13.36 0.78,-7.07 0.78,-7.07 1.57,-14.15 0.39,-6.68 0.39,-6.68 0.39,-13.76 0,-4.72 0,-4.72 0,-9.82 0,-7.07 0,-7.07 -0.39,-14.54 -0.79,-7.86 -0.79,-7.86 -1.57,-15.72 -1.18,-8.25 -1.18,-8.25 -2.75,-16.5 -1.57,-8.25 -1.57,-8.25 -3.54,-16.51 -2.35,-8.25 -2.35,-8.25 -4.71,-16.5 -3.15,-8.65 -3.15,-8.65 -5.9,-16.9 -3.54,-8.65 -3.54,-8.65 -6.68,-16.9 -3.93,-8.25 -3.93,-8.25 -7.86,-16.5 -4.32,-8.26 -4.32,-8.26 -8.65,-16.51 -4.32,-7.86 -4.32,-7.86 -9.04,-15.72 -5.11,-7.86 -5.11,-7.86 -10.22,-15.72 -5.5,-7.07 -5.5,-7.07 -11,-14.54 -5.5,-7.07 -5.5,-7.07 -11.39,-14.15 -5.9,-6.68 -5.9,-6.68 -11.79,-13.36 -6.29,-6.29 -6.29,-6.29 -12.19,-12.57 -6.29,-5.5 -6.29,-5.5 -12.97,-11.4 -6.29,-5.11 -6.29,-5.11 -12.97,-10.22 -6.29,-4.72 -6.29,-4.72 -12.97,-9.04 -6.29,-3.93 -6.29,-3.93 -12.57,-7.47"/>
   <path class="fil1 str0" d="M2824.03 360.62c-132.44,-74.67 -132.44,-74.67 -264.88,-149.34 -6.29,-3.15 -6.29,-3.15 -12.19,-6.29 -6.68,-2.75 -6.68,-2.75 -13.36,-5.5 -6.29,-2.36 -6.29,-2.36 -12.97,-4.32 -6.29,-1.57 -6.29,-1.57 -12.57,-2.75 -6.29,-0.78 -6.29,-0.78 -12.58,-1.57 -5.89,0 -5.89,0 -11.79,0 -5.5,0.39 -5.5,0.39 -11.4,1.18 -5.5,1.18 -5.5,1.18 -10.61,2.75 -5.11,1.96 -5.11,1.96 -10.22,3.93 -4.71,2.75 -4.71,2.75 -9.43,5.5 -4.32,3.15 -4.32,3.15 -8.65,6.68"/>
   <path class="fil1 str0" d="M3164.76 568.12c27.9,-45.19 27.9,-45.19 56.2,-90.39 2.75,-5.5 2.75,-5.5 5.89,-11 2.36,-6.29 2.36,-6.29 4.72,-12.18 2.36,-7.07 2.36,-7.07 4.32,-14.15"/>
   <path class="fil1 str0" d="M3235.89 440.4c-1.96,-9.43 -1.96,-9.43 -4.32,-18.86 -2.36,-9.04 -2.36,-9.04 -4.72,-17.69 -3.14,-9.04 -3.14,-9.04 -5.89,-17.69 -3.54,-8.65 -3.54,-8.65 -7.07,-17.29 -3.93,-9.04 -3.93,-9.04 -8.25,-18.08 -4.32,-8.65 -4.32,-8.65 -9.04,-17.69 -4.72,-7.47 -4.72,-7.47 -9.04,-15.33 -5.11,-7.86 -5.11,-7.86 -10.22,-15.72 -5.5,-7.47 -5.5,-7.47 -11,-15.33 -2.36,-2.75 -2.36,-2.75 -4.72,-5.5 -3.54,-4.72 -3.54,-4.72 -7.07,-9.04 -6.29,-6.68 -6.29,-6.68 -12.18,-13.76 -6.68,-6.68 -6.68,-6.68 -12.97,-12.97 -6.29,-5.89 -6.29,-5.89 -12.97,-11.79 -7.07,-5.9 -7.07,-5.9 -14.15,-11.4 -7.07,-5.11 -7.07,-5.11 -14.54,-10.61 -7.07,-4.32 -7.07,-4.32 -14.15,-8.65 -88.03,-49.52 -88.03,-49.52 -176.06,-99.04 -7.86,-4.32 -7.86,-4.32 -15.72,-8.25 -7.47,-3.14 -7.47,-3.14 -14.54,-5.89 -7.07,-2.36 -7.07,-2.36 -14.15,-4.72 -7.07,-1.57 -7.07,-1.57 -13.76,-2.75 -6.68,-0.78 -6.68,-0.78 -13.76,-1.57 -5.89,0 -5.89,0 -12.18,0 -45.59,2.36 -45.59,2.36 -91.18,5.11"/>
   <path class="fil1 str0" d="M2949.79 733.97c57.77,-20.43 57.77,-20.43 115.54,-40.48 0.78,-0.39 0.78,-0.39 1.96,-0.79 1.96,-1.18 1.96,-1.18 4.32,-2.75"/>
   <line class="fil1 str0" x1="3071.62" y1="689.95" x2="3067.3" y2= "692.7" />
   <polyline class="fil1 str0" points="2978.48,682.49 3099.13,635.72 3103.45,632.97 "/>
   <polyline class="fil1 str0" points="3106.6,618.43 3101.88,621.18 2981.23,669.13 "/>
   <line class="fil1 str0" x1="3220.96" y1="477.73" x2="3219" y2= "480.09" />
   <path class="fil1 str1" d="M2541.46 116.57c-4.32,2.75 -4.72,2.75 -9.04,5.5 -4.72,3.54 -4.72,3.54 -9.43,7.47 -44.8,40.48 -44.8,40.48 -89.6,81.35 -3.54,3.93 -3.93,3.93 -7.47,7.86 -3.54,4.72 -3.54,4.72 -6.68,9.43 -3.15,5.11 -3.15,5.11 -5.89,10.22 -2.36,5.5 -2.36,5.5 -4.72,11.39 -1.96,6.29 -1.96,6.29 -3.93,12.19 -1.18,6.68 -1.18,6.68 -2.36,13.36 -1.18,7.07 -1.18,7.07 -1.57,14.15 -0.39,7.07 -0.39,7.07 -0.78,13.76 0,5.11 0,5.11 0,10.22 0.39,7.07 0.39,7.07 0.78,14.15 0.39,7.86 0.39,7.86 1.18,16.11 0.78,4.72 0.78,4.72 1.57,9.43"/>
   <path class="fil1 str1" d="M2722.24 85.91c-49.91,2.35 -50.3,2.35 -100.22,5.11 -6.29,0.79 -6.29,0.79 -12.57,1.18 -7.07,1.57 -7.07,1.18 -13.76,2.75 -7.07,1.97 -7.07,1.97 -14.15,3.93 -3.54,0.78 -3.54,0.78 -7.07,1.96 -6.68,2.75 -6.68,2.75 -13.36,5.5 -3.54,1.57 -3.54,1.57 -6.68,3.15 -3.15,1.57 -3.15,1.57 -6.68,3.54 -3.15,1.57 -3.15,1.57 -6.29,3.54"/>
   <path class="fil1 str1" d="M2790.23 713.93c16.9,9.83 16.9,9.83 33.8,19.26 6.29,3.14 6.29,3.14 12.57,6.29 6.68,3.14 6.68,3.14 12.97,5.89 6.68,1.96 6.68,1.96 12.97,3.93 6.29,1.57 6.29,1.57 12.97,3.15 5.9,0.79 5.9,0.79 12.19,1.57 5.89,0 5.89,0 11.79,0 5.89,-0.78 5.89,-0.78 11.39,-1.18 5.5,-1.57 5.5,-1.57 11,-2.75 56.99,-19.65 56.99,-19.65 113.97,-39.3 5.89,-2.36 5.89,-2.36 11.4,-4.72 7.46,-3.93 7.46,-4.32 14.93,-8.65 3.54,-1.96 3.54,-1.96 6.68,-4.32 5.89,-4.32 5.89,-4.32 11.4,-8.25 2.36,-1.97 2.36,-1.97 4.72,-3.93 4.72,-4.72 4.72,-4.72 9.82,-9.04 4.32,-4.71 4.32,-4.71 8.65,-9.43 3.93,-4.72 3.93,-4.72 7.86,-9.43 3.93,-5.5 3.93,-5.5 7.46,-11.4 23.19,-36.55 23.19,-36.55 45.98,-73.49"/>
   <line class="fil1 str1" x1="2537.53" y1="118.93" x2="2541.46" y2= "116.57" />
   <line class="fil1 str1" x1="2541.46" y1="116.57" x2="2546.57" y2= "113.81" />
   <path class="fil1 str0" d="M1767.65 732.4c0.39,4.72 0.39,4.72 0.78,9.43 0.39,5.11 0.39,5.11 1.18,9.82 1.18,4.72 1.18,4.72 1.96,9.83 1.18,4.72 1.18,4.72 2.75,9.82 1.57,5.11 1.57,5.11 3.14,9.83 1.96,5.11 1.96,5.11 3.93,10.22 1.96,5.11 1.96,5.11 4.32,9.83 2.36,5.11 2.36,5.11 5.11,9.82 2.75,4.72 2.75,4.72 5.5,9.43 2.75,4.72 2.75,4.72 5.89,9.43 3.15,4.32 3.15,4.32 6.29,9.04 3.15,3.93 3.15,3.93 6.68,8.25 3.54,3.93 3.54,3.93 7.07,7.86 3.54,3.93 3.54,3.93 7.07,7.46 3.93,3.54 3.93,3.54 7.86,7.07 3.54,3.15 3.54,3.15 7.47,6.29 3.93,2.75 3.93,2.75 7.86,5.5 3.93,2.36 3.93,2.36 7.86,4.71"/>
   <path class="fil1 str0" d="M1860.39 886.06c60.13,33.8 60.13,33.8 119.87,67.6 100.21,56.2 100.21,56.2 200.04,112.4 3.93,1.96 3.93,1.96 7.86,3.93 3.93,1.57 3.93,1.57 7.86,3.15 3.54,1.57 3.54,1.57 7.47,2.75 3.93,0.78 3.93,0.78 7.46,1.57 3.93,0.39 3.93,0.39 7.47,0.78 3.54,0 3.54,0 7.07,-0.39 3.14,-0.39 3.14,-0.39 6.68,-0.79 3.14,-0.79 3.14,-0.79 6.29,-1.96 3.14,-1.18 3.14,-1.18 5.89,-2.36 2.75,-1.57 2.75,-1.57 5.5,-3.54 2.36,-1.97 2.36,-1.97 5.11,-4.32 1.96,-2.36 1.96,-2.36 4.32,-4.72 1.96,-2.75 1.96,-2.75 3.93,-5.9 1.57,-3.14 1.57,-3.14 3.14,-6.29 1.18,-3.54 1.18,-3.54 2.75,-7.07 0.79,-3.54 0.79,-3.54 1.96,-7.46 0.39,-3.93 0.39,-3.93 1.18,-7.86 0.39,-4.32 0.39,-4.32 0.79,-8.65 0,-4.72 0,-4.72 0,-9.04 -0.39,-4.72 -0.39,-4.72 -0.79,-9.43 -0.78,-4.72 -0.78,-4.72 -1.18,-9.43 -1.18,-5.11 -1.18,-5.11 -1.96,-9.83 -1.57,-5.11 -1.57,-5.11 -2.75,-9.82 -1.57,-5.11 -1.57,-5.11 -3.14,-10.22 -1.57,-3.54 -1.57,-3.54 -3.15,-7.07"/>
   <path class="fil1 str0" d="M2260.07 952.09c-130.87,-73.89 -130.87,-73.89 -262.13,-147.77 -3.93,-2.35 -3.93,-2.35 -7.86,-4.71 -3.93,-2.75 -3.93,-2.75 -7.86,-5.5 -3.54,-3.14 -3.54,-3.14 -7.47,-6.29 -3.93,-3.54 -3.93,-3.54 -7.47,-6.68 -3.93,-3.93 -3.93,-3.93 -7.46,-7.47 -3.54,-3.93 -3.54,-3.93 -7.07,-8.25 -3.15,-3.93 -3.15,-3.93 -6.68,-8.25 -3.14,-4.32 -3.14,-4.32 -6.29,-9.04 -3.15,-4.72 -3.15,-4.72 -5.89,-9.04 -2.75,-5.11 -2.75,-5.11 -5.5,-9.83 -2.36,-4.71 -2.36,-4.71 -5.11,-9.82 -2.75,-6.29 -2.75,-6.29 -5.11,-12.57"/>
   <path class="fil1 str0" d="M1918.17 706.85c-29.08,-16.11 -29.08,-16.11 -57.77,-32.23 -3.93,-1.96 -3.93,-1.96 -7.86,-3.93 -3.93,-1.96 -3.93,-1.96 -7.86,-3.54 -4.32,-1.18 -4.72,-1.18 -9.04,-2.75 -3.15,-0.39 -3.15,-0.39 -6.29,-1.18 -3.54,-0.39 -3.54,-0.39 -7.07,-0.78 -3.54,0 -3.54,0 -7.07,0 -3.54,0.39 -3.54,0.39 -6.68,1.18 -3.14,0.79 -3.14,0.79 -6.29,1.57 -2.36,1.18 -2.36,1.18 -4.72,1.97 -0.78,0.39 -0.78,0.39 -1.18,0.78 -2.75,1.57 -3.15,1.57 -5.5,3.15 -2.75,2.36 -2.75,2.36 -5.11,4.32 -2.36,2.36 -2.36,2.36 -4.32,5.11 -1.97,2.75 -1.97,2.75 -3.93,5.5 -1.57,3.15 -1.57,3.15 -3.14,6.29 -0.39,1.57 -0.39,1.57 -1.18,2.75 -0.78,1.96 -0.78,1.96 -1.57,4.32 -0.79,3.93 -0.79,3.93 -1.96,7.47 -0.79,4.32 -0.79,4.32 -1.18,8.25 -0.39,4.32 -0.39,4.32 -0.78,8.65 0,4.32 0,4.32 0,8.65"/>
   <path class="fil1 str0" d="M2263.61 1105.35c3.54,-2.36 3.54,-2.36 7.07,-4.32 3.15,-2.75 3.15,-2.75 6.29,-5.5 2.75,-3.15 2.75,-3.15 5.9,-6.29 2.36,-3.93 2.36,-3.93 4.72,-7.47 2.35,-4.32 2.35,-4.32 4.32,-8.25 1.57,-4.32 1.57,-4.32 3.14,-9.04 1.57,-4.72 1.57,-4.72 2.75,-9.43 0.79,-5.5 0.79,-5.5 1.57,-10.61 0.39,-5.5 0.39,-5.5 0.79,-11 0,-5.9 0,-5.9 0,-11.4 -0.39,-5.89 -0.39,-5.89 -0.79,-12.19 -0.78,-5.89 -0.78,-5.89 -1.57,-12.18 -1.18,-6.29 -1.18,-6.29 -2.75,-12.57 -1.57,-6.29 -1.57,-6.29 -3.14,-12.97 -2.36,-6.29 -2.36,-6.29 -4.32,-12.58 -2.36,-6.68 -2.36,-6.68 -4.72,-12.97 -3.15,-6.29 -3.15,-6.29 -5.9,-12.97 -3.14,-6.29 -3.14,-6.29 -6.29,-12.57 -3.54,-5.9 -3.54,-5.9 -7.07,-12.19 -3.93,-5.89 -3.93,-5.89 -7.46,-11.79 -4.32,-5.89 -4.32,-5.89 -8.25,-11.39 -4.33,-5.5 -4.33,-5.5 -8.65,-11 -4.32,-5.11 -4.32,-5.11 -9.04,-10.22 -4.72,-4.72 -4.72,-4.72 -9.43,-9.43 -4.72,-4.72 -4.72,-4.72 -9.43,-9.04 -5.11,-3.93 -5.11,-3.93 -10.22,-7.86 -4.72,-3.54 -4.72,-3.54 -9.83,-7.07 -5.11,-3.14 -5.11,-3.14 -10.22,-6.29"/>
   <path class="fil1 str0" d="M1993.62 719.43c-66.81,-37.73 -66.81,-37.73 -134.02,-75.46 -5.11,-2.75 -5.11,-2.75 -10.22,-5.5 -5.11,-1.97 -5.11,-1.97 -10.22,-3.93 -4.71,-1.57 -4.71,-1.57 -9.82,-3.14 -4.72,-1.18 -4.72,-1.18 -9.83,-1.96 -4.32,-0.79 -4.32,-0.79 -9.04,-1.18 -4.71,0 -4.71,0 -9.04,0 -4.33,0.79 -4.33,0.79 -8.65,1.18 -4.32,1.18 -4.32,1.18 -8.25,2.36 -3.93,1.57 -3.93,1.57 -7.46,3.54"/>
   <path class="fil1 str0" d="M1959.82 730.43c3.14,5.11 3.14,5.11 6.68,9.82 2.36,2.75 2.36,2.75 4.32,5.5 2.36,2.75 2.36,2.75 5.11,5.5 2.36,2.75 2.36,2.75 4.71,5.11 2.75,2.36 2.75,2.36 5.11,4.72 2.75,1.96 2.75,1.96 5.11,3.93 2.75,1.96 2.75,1.96 5.5,3.93 2.36,1.57 2.75,1.57 5.11,3.15"/>
   <path class="fil1 str0" d="M2232.17 901.78c-3.15,-4.32 -3.15,-4.32 -6.68,-8.65 -3.54,-3.93 -3.54,-3.93 -7.07,-7.86 -3.54,-3.54 -3.54,-3.54 -7.47,-7.47 -3.54,-3.54 -3.54,-3.54 -7.46,-6.68 -3.54,-3.14 -3.54,-3.14 -7.47,-6.29 -3.93,-2.75 -3.93,-2.75 -7.86,-5.5 -3.93,-2.36 -3.93,-2.36 -7.86,-4.72"/>
   <path class="fil1 str0" d="M2210.17 652.22c67.2,37.73 67.2,37.73 134.41,75.46 5.11,3.15 5.11,3.15 10.22,6.29 5.11,3.54 5.11,3.54 9.83,7.07 5.11,3.93 5.11,3.93 10.22,7.86 4.72,4.71 4.72,4.71 9.43,9.04 4.32,4.32 4.32,4.32 8.65,8.65 5.11,5.5 5.11,5.5 9.82,11 4.32,5.5 4.32,5.5 8.65,11 4.32,5.89 4.32,5.89 8.25,11.39 3.93,5.9 3.93,5.9 7.46,12.19 3.54,5.89 3.54,5.89 7.07,12.18 3.15,6.29 3.15,6.29 6.29,12.58 3.15,6.29 3.15,6.29 5.9,12.57 2.36,6.68 2.36,6.68 4.72,12.97 2.35,6.29 2.35,6.29 4.32,12.97 1.57,6.29 1.57,6.29 3.14,12.58 1.57,6.29 1.57,6.29 2.75,12.57 0.79,6.29 0.79,6.29 1.57,12.57 0.39,5.9 0.39,5.9 0.79,11.79 0.39,5.89 0.39,5.89 0,11.79 0,3.93 0,3.93 -0.39,8.25"/>
   <path class="fil1 str0" d="M2163.79 675.81c17.69,-34.19 17.69,-34.19 35.37,-68.38 1.57,-2.75 1.57,-2.75 3.14,-5.5 1.18,-1.57 1.57,-1.57 2.75,-3.15 1.18,-1.18 1.18,-1.18 2.75,-2.75 1.57,-1.18 1.57,-1.18 3.14,-2.36 1.18,-0.79 1.18,-0.79 2.75,-1.57 1.57,-0.78 1.57,-0.78 3.15,-1.18 1.18,-0.39 1.18,-0.39 2.75,-0.39 1.18,0 1.18,0 2.36,0 1.18,0.79 1.18,0.79 2.36,1.18"/>
   <path class="fil1 str0" d="M2130.78 607.43c8.26,-15.72 8.26,-15.72 16.11,-31.44 1.18,-1.96 1.18,-1.96 2.36,-3.54 1.57,-1.96 1.57,-1.96 2.75,-3.54 1.96,-1.96 1.96,-1.96 4.32,-3.93 1.57,-1.18 1.57,-1.18 2.75,-1.96 1.57,-0.79 1.57,-0.79 3.14,-1.57 1.57,-0.39 1.57,-0.39 2.75,-0.78 1.18,0 1.18,0 2.36,0 0.79,0 0.79,0 1.57,0.39 1.18,0.39 1.18,0.39 2.36,0.78"/>
   <path class="fil1 str0" d="M2205.45 469.09c159.17,89.21 159.17,89.21 318.33,178.81 3.93,2.36 3.93,2.36 7.86,4.72 3.93,2.75 3.93,2.75 7.86,5.89 3.93,3.15 3.93,3.15 7.86,6.29 3.93,3.54 3.93,3.54 7.86,7.07 3.93,3.93 3.93,3.93 7.86,7.86 3.14,3.93 3.14,3.93 6.68,7.86 3.54,4.32 3.54,4.32 6.68,8.65 3.93,5.5 3.93,5.5 7.86,11 2.36,3.93 2.36,3.93 4.72,7.47 2.75,4.72 2.75,4.72 5.5,9.83 2.75,4.71 2.75,4.71 5.11,9.82 2.36,5.11 2.36,5.11 4.72,10.22 1.57,4.33 1.57,4.33 3.15,8.65"/>
   <path class="fil1 str0" d="M2757.61 664.41c6.68,3.54 6.68,3.54 13.36,7.46 2.36,1.97 2.36,1.97 5.11,3.93 1.57,1.96 1.57,1.96 3.15,3.54 2.36,2.75 2.36,2.75 4.32,5.89 1.57,3.15 1.96,3.15 3.54,6.68 1.18,3.15 1.18,3.15 2.36,6.68 0.39,2.36 0.39,2.36 0.79,5.11"/>
   <path class="fil1 str0" d="M2229.42 644.76c0,-22.01 0,-22.01 -0.39,-43.63 0,-1.57 0,-1.57 -0.39,-3.14 -0.39,-1.18 -0.39,-1.18 -0.78,-2.75 -0.79,-1.18 -0.79,-1.18 -1.57,-1.96 -1.18,-0.79 -1.18,-0.79 -1.96,-1.57"/>
   <path class="fil1 str0" d="M2260.07 952.09c-2.36,-6.68 -2.36,-6.68 -5.11,-12.97 -2.75,-4.71 -2.75,-4.71 -5.11,-9.43 -2.75,-5.11 -2.75,-5.11 -5.5,-9.83 -2.75,-4.72 -2.75,-4.72 -5.89,-9.04 -3.15,-4.72 -3.15,-4.72 -6.29,-9.04"/>
   <path class="fil1 str0" d="M2304.48 581.09c11.79,-7.07 11.79,-7.07 23.19,-13.75 1.57,-1.18 1.57,-1.18 3.54,-1.96 2.36,-1.18 2.36,-1.18 4.72,-2.36 2.36,-0.79 2.36,-0.79 4.72,-1.18 1.96,-0.39 2.35,-0.39 4.32,-0.39 1.18,0 1.18,0 1.96,0 1.18,0.39 1.18,0.39 1.96,0.39 1.57,0.79 1.57,0.79 3.14,1.96 0.79,0.39 0.79,0.39 1.18,0.79"/>
   <path class="fil1 str0" d="M2353.61 568.12c-0.39,1.18 -0.39,1.18 -1.18,1.96 -0.78,0.79 -0.78,0.79 -1.96,1.97 -1.96,1.57 -1.96,1.57 -4.32,3.14 -6.29,3.93 -6.29,3.93 -12.57,7.47"/>
   <path class="fil1 str0" d="M2335.93 583.84c5.11,-2.75 5.11,-2.75 10.22,-5.89 2.36,-1.57 2.36,-1.96 4.32,-3.54 1.18,-0.78 1.18,-0.78 1.96,-1.96 0.79,-0.78 0.79,-0.78 1.18,-1.57 0,-0.79 0,-0.79 0.39,-1.18 0,-1.57 0,-1.57 0,-3.15"/>
   <path class="fil1 str0" d="M2452.25 324.46c16.9,-10.22 16.9,-10.22 34.19,-20.44 1.96,-0.79 1.96,-0.79 3.93,-1.96 2.36,-0.79 2.36,-0.79 4.72,-1.18 2.36,-0.39 2.36,-0.39 4.71,-0.78 2.36,-0.39 2.36,-0.39 5.11,-0.39 2.36,0.39 2.36,0.39 5.11,0.39 2.75,0.78 2.75,0.78 5.5,1.18 2.36,0.79 2.36,0.79 4.72,1.57 3.15,1.18 3.15,1.18 6.29,2.36 3.15,1.57 3.15,1.57 5.9,3.15 2.75,1.57 2.75,1.57 5.5,3.14 3.15,1.97 3.15,1.97 5.9,4.33 2.75,1.96 2.75,1.96 5.5,4.32 2.75,2.36 2.75,2.36 5.5,5.11 2.36,2.36 2.36,2.75 5.11,5.11 2.75,3.15 2.75,3.15 5.11,5.89 2.36,3.15 2.36,3.15 4.72,6.29 3.14,3.93 2.75,3.93 5.89,8.26 1.18,1.57 1.18,1.57 2.75,3.14 1.18,1.57 1.18,1.57 2.75,2.75 2.36,1.57 2.36,1.57 4.32,3.15 2.36,1.18 2.36,1.18 4.72,1.96 1.57,0.39 1.57,0.39 2.75,0.39 1.57,0 1.57,0 2.75,0 2.75,-1.18 2.75,-1.18 5.89,-1.97 2.36,-0.39 2.36,-0.39 4.72,-0.78 2.36,0 2.36,0 5.11,0 2.36,0.39 2.36,0.39 5.11,0.39 2.75,0.78 2.75,0.78 5.5,1.18 2.75,0.79 2.75,0.79 5.5,1.57 2.75,1.18 2.75,1.18 5.5,2.36 2.75,1.57 2.75,1.57 5.5,3.15 3.14,1.57 3.14,1.57 5.89,3.14 2.75,2.36 2.75,2.36 5.5,4.32 2.75,1.97 2.75,1.97 5.5,4.33 2.75,2.35 2.75,2.35 5.5,5.11 2.36,2.75 2.36,2.75 5.11,5.11 2.75,3.14 2.75,3.14 5.11,5.89 2.36,3.15 2.36,3.15 4.72,6.29 2.75,3.93 2.75,3.93 5.89,8.26 1.18,1.57 1.18,1.57 2.36,3.14 1.57,1.18 1.57,1.18 3.15,2.75 1.96,1.57 1.96,1.57 4.32,3.15 2.36,1.18 2.36,1.18 4.72,1.96 1.18,0 1.18,0 2.75,0.39 1.18,0 1.57,0 2.75,-0.39 2.75,-0.79 2.75,-0.79 5.5,-1.57 2.36,-0.39 2.75,-0.39 5.11,-0.78 2.36,0 2.36,0 4.72,0 2.75,0 2.75,0 5.5,0.39 2.75,0.39 2.75,0.39 5.11,1.18 2.36,0.39 2.36,0.39 4.32,1.18 3.54,1.57 3.54,1.57 7.07,2.75 2.75,1.57 2.75,1.57 5.5,2.75 2.75,1.96 2.75,1.96 5.89,3.54 1.57,1.18 1.57,1.18 3.15,2.36 3.93,3.15 3.93,3.15 7.86,6.29 2.75,2.35 2.75,2.35 5.5,4.71 2.35,2.75 2.35,2.75 5.11,5.5 2.36,2.75 2.36,2.75 5.11,5.89 2.36,3.15 2.36,3.15 4.72,5.9 2.75,4.32 2.75,4.32 5.5,8.25 1.57,1.57 1.57,1.57 2.75,3.14 1.57,1.57 1.57,1.57 3.15,3.15 1.96,1.57 1.96,1.57 4.32,3.15 2.36,0.78 2.36,0.78 4.72,1.96 1.18,0 1.18,0 2.75,0.39 1.18,-0.39 1.18,-0.39 2.75,-0.39 2.75,-0.79 2.75,-0.79 5.5,-1.57 2.36,-0.39 2.36,-0.39 5.11,-0.78 2.36,0 2.36,0 4.72,-0.39 2.75,0.39 2.75,0.39 5.5,0.79 2.75,0.39 2.75,0.39 5.5,1.18 2.75,0.79 2.75,0.79 5.5,1.57 2.75,1.18 2.75,1.18 5.5,2.36 2.75,1.57 2.75,1.57 5.9,3.15 2.75,1.57 2.75,1.57 5.5,3.54 2.75,1.96 2.75,1.96 5.5,3.93 3.14,2.36 3.14,2.36 5.89,4.32 2.75,2.75 2.75,2.75 5.11,5.11 2.75,2.75 2.75,2.75 5.5,5.5 2.36,2.75 2.36,2.75 5.11,5.89 2.36,3.15 2.36,3.15 4.72,6.29 2.36,3.15 2.36,3.15 4.32,6.29 2.36,3.54 2.36,3.54 4.32,6.68 1.96,3.54 1.96,3.54 3.93,7.07 1.57,3.54 1.57,3.54 3.14,7.07 1.57,3.54 1.57,3.54 3.15,7.07 1.57,3.93 1.57,3.93 2.75,7.46 1.18,3.54 1.18,3.54 1.96,7.07 1.18,3.54 1.18,3.54 1.96,7.07 0.39,3.54 0.39,3.54 1.18,7.07 0.39,3.54 0.39,3.54 0.78,7.07 0,3.15 0,3.15 0,6.29 0,3.14 0,3.54 0,6.68 -0.39,2.75 -0.39,2.75 -0.78,5.89 -0.79,2.75 -0.79,2.75 -1.18,5.5 -0.79,2.75 -0.79,2.75 -1.96,5.5 -0.79,2.36 -0.79,2.36 -1.96,4.72 -1.18,1.96 -1.18,1.96 -2.75,4.32 -1.57,1.57 -1.57,1.57 -3.15,3.54 -1.57,1.57 -1.57,1.57 -3.14,3.15 -1.96,1.57 -1.96,1.57 -3.93,2.75 -17.29,10.22 -17.29,10.22 -34.59,20.43"/>
   <path class="fil1 str0" d="M2477.41 283.2c2.75,-1.18 2.75,-1.18 5.5,-1.96 2.75,-0.78 2.75,-0.78 5.5,-1.57 3.14,-0.39 3.14,-0.39 6.29,-0.79 3.14,0 3.14,0 6.29,0 3.15,0.39 3.15,0.39 6.29,1.18 3.54,0.39 3.54,0.39 7.07,1.57 3.14,0.79 3.14,0.79 6.68,1.96 3.54,1.57 3.54,1.57 7.07,3.15 2.75,1.57 2.75,1.57 5.5,3.14"/>
   <path class="fil1 str0" d="M2533.6 289.88c157.99,88.82 157.99,88.82 316.37,177.64 3.54,2.36 3.54,2.36 7.07,4.32 3.14,2.36 3.14,2.36 6.68,5.11 3.54,2.75 3.54,2.75 7.07,5.5 3.14,3.15 3.14,3.15 6.68,5.89 3.14,3.54 3.14,3.54 6.29,6.68 3.14,3.54 3.14,3.54 6.29,7.47 3.14,3.54 3.14,3.54 5.89,7.47 3.15,3.93 3.15,3.93 5.9,7.86 2.35,3.93 2.35,3.93 5.11,8.25 1.96,3.54 1.96,3.54 3.93,6.68 2.75,5.5 2.75,5.5 5.5,10.61 1.96,4.32 1.96,4.32 3.54,8.65 1.96,4.72 1.96,4.72 3.54,9.04 1.57,4.32 1.57,4.32 2.75,9.04 1.18,4.32 1.18,4.32 2.35,8.65 0.79,4.32 0.79,4.32 1.57,8.65 0.78,4.32 0.78,4.32 1.18,8.65 0.39,4.32 0.39,4.32 0.79,8.25 0,3.93 0,3.93 0,7.86 -0.39,3.93 -0.39,3.93 -0.79,7.86 -0.78,3.54 -0.78,3.54 -1.18,7.07 -1.18,3.54 -1.18,3.54 -1.96,6.68 -1.18,3.14 -1.18,3.14 -2.36,6.29 -1.57,2.75 -1.57,2.75 -3.15,5.5 -1.57,2.36 -1.57,2.36 -3.54,4.72 -1.96,2.36 -1.96,2.36 -3.93,4.32 -1.97,1.96 -1.97,1.96 -4.33,3.93 -2.35,1.57 -2.35,1.57 -5.11,2.75"/>
   <path class="fil1 str0" d="M2585.48 402.67c-1.57,0 -1.57,0 -2.75,0 -1.18,0 -1.18,0 -2.36,-0.39 -1.57,-0.39 -1.57,-0.39 -2.75,-1.18 -1.57,-0.79 -1.57,-1.18 -3.14,-1.96"/>
   <path class="fil1 str0" d="M2574.48 401.1c1.57,1.18 1.57,1.18 3.14,1.96 1.18,0.79 1.18,0.79 2.75,1.18 1.18,0.39 1.18,0.39 2.36,0.78 1.18,0 1.18,0 2.75,0"/>
   <path class="fil1 str0" d="M2574.87 395.2c1.18,-0.79 1.18,-0.79 2.75,-1.18 0.79,-0.39 0.79,-0.39 1.57,-0.39 1.18,0 1.18,0 2.75,0.39"/>
   <path class="fil1 str0" d="M2588.23 390.09c1.57,0.39 1.57,0.39 3.15,1.18 1.18,0.39 1.18,0.39 2.36,1.18 0.79,0.39 0.79,0.39 1.18,1.18"/>
   <path class="fil1 str0" d="M2585.48 392.85c0.78,-0.39 0.78,-0.39 1.18,-0.39 1.18,0 1.18,0 2.36,0 1.18,0.39 1.18,0.39 2.36,0.78 1.18,0.79 1.18,0.79 2.36,1.18 0.79,0.79 0.79,0.79 1.18,1.57"/>
   <path class="fil1 str0" d="M2596.88 392.45c-0.39,-0.39 -0.39,-0.39 -1.18,-0.79 -1.18,-0.78 -1.18,-0.78 -2.75,-1.96 -1.18,0 -1.18,0 -1.96,-0.39 -1.18,-0.39 -1.18,-0.39 -2.36,-0.39 -0.78,0 -0.78,0 -1.57,-0.39 -1.57,0.39 -1.57,0.39 -3.54,0.78"/>
   <path class="fil1 str0" d="M2618.1 808.64c0,-1.96 0,-1.96 0,-4.32 -0.39,-4.71 -0.39,-4.71 -0.79,-9.43 -0.39,-5.11 -0.39,-5.11 -1.18,-9.83 -1.18,-5.11 -1.18,-5.11 -1.96,-10.22 -1.57,-5.11 -1.57,-5.11 -2.75,-10.22 -1.96,-5.5 -1.96,-5.5 -3.93,-11.39"/>
   <path class="fil1 str0" d="M2691.59 462.41c-1.57,0 -1.57,0 -3.15,0 -0.79,0 -0.79,0 -1.96,-0.39 -1.57,-0.78 -1.57,-0.78 -3.15,-1.18 -0.39,-0.39 -0.39,-0.39 -1.18,-0.79 -1.18,-0.78 -1.18,-0.78 -1.96,-1.57"/>
   <path class="fil1 str0" d="M2680.19 460.83c1.57,0.79 1.57,0.79 3.14,1.96 1.57,0.79 1.57,0.79 3.15,1.18 1.18,0.39 1.18,0.39 1.96,0.39 1.57,0 1.57,0 3.15,0"/>
   <path class="fil1 str0" d="M2691.59 460.83c-0.79,0 -0.79,0 -1.96,0 -0.79,0 -0.79,0 -1.57,0 -1.18,-0.39 -1.18,-0.39 -2.36,-0.79 -1.18,-1.18 -1.57,-1.18 -2.75,-1.96"/>
   <path class="fil1 str0" d="M2683.33 457.69c1.18,-0.39 1.18,-0.39 2.36,-0.78 4.72,0 4.72,0 9.43,0 5.11,0.39 5.11,0.39 9.83,0.39"/>
   <path class="fil1 str0" d="M2702.2 453.37c-8.65,0 -8.65,0 -17.29,-0.39 -0.79,0.39 -0.79,0.39 -1.96,0.39 -0.79,0.39 -0.79,0.39 -1.57,0.79"/>
   <polyline class="fil1 str0" points="2181.08,824.75 2046.68,749.3 2046.68,744.97 1993.62,715.5 1993.62,719.43 "/>
   <line class="fil1 str0" x1="1918.17" y1="706.85" x2="1959.82" y2= "730.43" />
   <line class="fil1 str0" x1="2001.48" y1="772.09" x2="2232.17" y2= "901.78" />
   <line class="fil1 str0" x1="2180.3" y1="854.62" x2="1959.82" y2= "730.43" />
   <polyline class="fil1 str0" points="1981.44,984.31 1970.83,978.42 1970.83,990.6 "/>
   <polyline class="fil1 str0" points="2008.95,539.83 2012.88,541.79 2023.09,546.9 2130.78,607.43 2110.74,645.94 1993.62,715.5 "/>
   <line class="fil1 str0" x1="2046.68" y1="749.3" x2="2210.17" y2= "652.22" />
   <line class="fil1 str0" x1="2046.68" y1="744.97" x2="2163.79" y2= "675.81" />
   <polyline class="fil1 str0" points="2224.31,591.7 2171.26,561.83 2171.65,562.23 "/>
   <polyline class="fil1 str0" points="2115.84,1071.95 2115.84,1059.77 2126.06,1065.66 "/>
   <line class="fil1 str0" x1="2110.74" y1="645.94" x2="2163.79" y2= "675.81" />
   <polyline class="fil1 str0" points="2195.23,463.98 2197.59,464.76 2205.45,469.09 "/>
   <line class="fil1 str0" x1="2607.49" y1="753.23" x2="2757.61" y2= "664.41" />
   <line class="fil1 str0" x1="2306.84" y1="410.53" x2="2207.02" y2= "469.87" />
   <polyline class="fil1 str0" points="2232.56,650.65 2246.71,642.01 2246.71,644.76 2232.56,653.01 2232.56,650.65 2229.42,644.76 2229.42,662.83 "/>
   <line class="fil1 str0" x1="2229.42" y1="647.12" x2="2232.56" y2= "653.01" />
   <polyline class="fil1 str0" points="2229.42,625.5 2238.85,620 2274.61,625.5 2260.47,633.76 2256.93,633.36 2245.14,640.04 2246.32,642.01 2256.93,635.72 2256.93,633.36 "/>
   <polyline class="fil1 str0" points="2245.14,633.36 2240.43,632.57 2242,635.33 2248.28,631.4 2238.46,629.43 2240.43,632.57 "/>
   <line class="fil1 str0" x1="2246.71" y1="642.01" x2="2246.32" y2= "642.01" />
   <polyline class="fil1 str0" points="2270.69,624.72 2252.22,614.5 2252.22,611.75 2271.87,600.35 2288.76,604.28 2281.3,594.45 2281.3,597.2 2286.41,603.49 "/>
   <polyline class="fil1 str0" points="2252.22,611.75 2275.4,625.11 2275.4,627.46 2274.61,627.07 "/>
   <polyline class="fil1 str0" points="2260.47,633.76 2260.47,636.5 2256.93,635.72 "/>
   <polyline class="fil1 str0" points="2260.47,636.5 2274.61,627.86 2274.61,625.5 "/>
   <polyline class="fil1 str0" points="2275.4,625.11 2287.98,617.64 2273.04,609 2294.27,614.11 2305.66,607.03 2297.02,594.85 2311.95,603.49 2324.53,596.03 2301.34,583.06 2281.3,594.45 "/>
   <polyline class="fil1 str0" points="2275.4,627.46 2287.98,620 2287.98,617.64 "/>
   <polyline class="fil1 str0" points="2280.51,613.32 2294.27,616.46 2294.27,614.11 "/>
   <polyline class="fil1 str0" points="2294.27,616.46 2305.66,609.78 2305.66,607.03 "/>
   <polyline class="fil1 str0" points="2311.95,603.49 2311.95,605.85 2300.16,599.17 "/>
   <polyline class="fil1 str0" points="2304.48,583.45 2304.48,581.09 2328.06,594.06 2328.06,596.42 2304.48,583.45 "/>
   <polyline class="fil1 str0" points="2353.22,564.59 2354,566.16 2353.61,568.12 "/>
   <line class="fil1 str0" x1="2333.57" y1="582.67" x2="2335.93" y2= "583.84" />
   <polyline class="fil1 str0" points="2311.95,605.85 2324.53,598.39 2324.53,596.03 "/>
   <polyline class="fil1 str0" points="2328.06,596.42 2340.25,588.95 2340.25,586.59 2328.06,594.06 "/>
   <polyline class="fil1 str0" points="2325.7,578.34 2327.28,579.13 2337.89,572.84 2338.28,572.06 2338.28,571.27 2337.1,570.48 2335.53,570.48 2334.35,570.87 2323.74,577.16 2325.7,578.34 2334.35,573.23 2335.53,572.84 2337.1,573.23 "/>
   <line class="fil1 str0" x1="2335.93" y1="583.84" x2="2340.25" y2= "586.59" />
   <line class="fil1 str0" x1="2354" y1="569.3" x2="2354" y2= "568.91" />
   <polyline class="fil1 str0" points="2477.41,339 2480.55,337.04 2483.3,339 "/>
   <polyline class="fil1 str0" points="2480.55,335.07 2473.47,339.4 2486.83,338.61 2480.55,335.07 2480.55,337.04 "/>
   <polyline class="fil1 str0" points="2477.41,333.5 2478.19,333.89 2476.22,335.07 2474.65,334.29 2474.65,331.93 2477.41,333.5 "/>
   <polyline class="fil1 str0" points="2470.72,340.97 2489.19,340.18 2489.19,342.54 2470.72,342.93 2470.72,340.97 2468.37,339.79 2476.22,335.07 "/>
   <polyline class="fil1 str0" points="2470.72,342.93 2468.37,341.76 2468.37,339.79 "/>
   <polyline class="fil1 str0" points="2489.19,340.18 2491.55,339 2482.51,333.89 2488.02,330.75 2485.66,329.57 2480.55,332.72 2476.62,330.75 2474.65,331.93 "/>
   <polyline class="fil1 str0" points="2489.19,342.54 2491.55,341.36 2491.55,339 "/>
   <polyline class="fil1 str0" points="2484.48,334.68 2488.02,332.72 2488.02,330.75 "/>
   <polyline class="fil1 str0" points="2576.83,398.35 2576.44,397.17 2576.83,395.99 2576.83,398.35 2578.41,399.53 2581.94,401.1 2583.52,401.1 2585.48,401.1 2587.44,401.89 2585.48,402.67 "/>
   <polyline class="fil1 str0" points="2574.48,399.13 2573.69,397.95 2573.69,395.99 2573.69,400.31 2574.48,401.1 "/>
   <polyline class="fil1 str0" points="2585.48,405.03 2587.44,404.24 2587.44,401.89 "/>
   <polyline class="fil1 str0" points="2576.83,395.99 2577.62,395.59 2577.62,397.95 2579.58,397.56 2581.16,397.17 2581.16,395.2 2583.91,395.99 2585.48,396.78 2587.05,395.99 2587.05,397.95 2585.48,398.74 2583.91,397.95 2581.16,397.17 "/>
   <line class="fil1 str0" x1="2577.62" y1="397.95" x2="2576.83" y2= "398.35" />
   <line class="fil1 str0" x1="2573.69" y1="395.99" x2="2574.87" y2= "395.2" />
   <polyline class="fil1 str0" points="2581.94,394.02 2580.76,392.45 2580.76,393.63 "/>
   <polyline class="fil1 str0" points="2577.62,395.59 2579.58,395.2 2581.16,395.2 "/>
   <line class="fil1 str0" x1="2585.48" y1="396.78" x2="2585.48" y2= "398.74" />
   <polyline class="fil1 str0" points="2587.05,395.99 2583.91,393.63 2585.48,392.85 2585.48,390.49 2588.23,390.09 "/>
   <polyline class="fil1 str0" points="2594.91,393.63 2595.3,394.42 2595.3,395.2 2594.91,395.99 2596.88,396.78 2597.66,395.99 2598.06,394.81 2598.06,397.17 2597.66,398.35 2596.88,399.13 2596.88,396.78 "/>
   <line class="fil1 str0" x1="2585.48" y1="402.67" x2="2585.48" y2= "405.03" />
   <polyline class="fil1 str0" points="2585.48,390.49 2583.91,391.27 2583.91,393.63 "/>
   <polyline class="fil1 str0" points="2594.91,395.99 2594.91,397.95 2596.88,399.13 "/>
   <polyline class="fil1 str0" points="2583.91,391.27 2583.12,392.45 2583.91,393.63 "/>
   <line class="fil1 str0" x1="2598.06" y1="394.81" x2="2596.88" y2= "392.45" />
   <polyline class="fil1 str0" points="2583.52,389.31 2582.33,390.09 2581.16,391.27 2580.76,392.45 "/>
   <polyline class="fil1 str0" points="2680.19,458.48 2679.41,457.3 2679.41,455.33 2679.41,459.65 2680.19,460.83 "/>
   <polyline class="fil1 str0" points="2691.59,464.37 2691.59,462.41 2693.56,461.62 2693.56,463.98 2691.59,464.37 "/>
   <line class="fil1 str0" x1="2693.56" y1="461.62" x2="2691.59" y2= "460.83" />
   <line class="fil1 str0" x1="2682.94" y1="458.08" x2="2683.33" y2= "457.69" />
   <polyline class="fil1 str0" points="2704.95,457.3 2704.95,455.33 2685.69,454.94 2683.33,455.33 2682.55,455.72 2682.55,457.69 2682.94,458.08 "/>
   <line class="fil1 str0" x1="2683.33" y1="455.33" x2="2683.33" y2= "457.69" />
   <polyline class="fil1 str0" points="2682.55,455.72 2682.55,456.91 2682.55,457.69 "/>
   <polyline class="fil1 str0" points="2704.95,455.33 2706.92,454.15 2693.56,446.69 2691.98,447.87 2702.2,453.37 "/>
   <line class="fil1 str0" x1="2681.37" y1="454.15" x2="2679.41" y2= "455.33" />
   <polyline class="fil1 str0" points="2698.27,453.37 2691.98,450.22 2691.98,447.87 "/>
   <polyline class="fil1 str0" points="2704.95,457.3 2706.92,456.51 2706.92,454.15 "/>
   <polyline class="fil1 str0" points="2791.02,523.32 2789.44,522.54 2789.44,520.57 2806.74,510.35 2809.1,511.53 2794.56,520.18 2799.67,519.78 2796.52,521.36 2796.52,523.71 2791.8,523.71 2791.02,523.32 "/>
   <polyline class="fil1 str0" points="2789.44,520.57 2791.8,521.75 2791.8,523.71 "/>
   <line class="fil1 str0" x1="2796.52" y1="521.36" x2="2791.8" y2= "521.75" />
   <polyline class="fil1 str0" points="2796.52,523.71 2799.67,521.75 2799.67,519.78 "/>
   <polyline class="fil1 str0" points="2809.1,511.53 2809.1,513.5 2798.48,519.78 "/>
   <path class="fil1 str1" d="M2477.41 283.2c-2.36,1.57 -2.36,1.57 -4.72,3.15 -2.36,1.57 -2.36,1.57 -4.72,3.54 -1.96,1.96 -1.96,1.96 -3.93,4.32 -1.57,2.36 -1.57,2.36 -3.54,5.11 -1.57,2.75 -1.57,2.75 -2.75,5.5 -1.18,3.14 -1.18,3.14 -2.36,5.89 -1.18,3.54 -1.18,3.54 -1.97,6.68 -0.78,3.54 -0.78,3.54 -1.18,7.07"/>
   <path class="fil1 str1" d="M2306.84 410.53c-2.75,-1.57 -2.75,-1.57 -5.9,-2.75 -1.57,-0.79 -1.57,-0.39 -3.54,-1.18 -0.79,0 -0.79,0 -1.57,0 -1.57,0 -1.57,0 -3.15,0 -1.18,0.39 -1.18,0.39 -2.75,0.79"/>
   <path class="fil1 str1" d="M2195.23 463.98c-2.75,-1.18 -2.75,-1.18 -5.5,-2.35 -3.93,-1.18 -3.93,-1.57 -7.86,-2.75 -3.93,-0.79 -3.93,-0.79 -7.86,-1.57 -3.54,-0.39 -3.54,-0.39 -7.47,-0.78 -3.54,0 -3.54,0 -7.07,0.39 -3.54,0.39 -3.54,0.39 -7.07,0.78 -3.15,0.79 -3.15,0.79 -6.29,1.96 -3.15,1.18 -3.15,1.18 -5.9,2.36"/>
   <path class="fil1 str1" d="M2008.95 539.83c-3.15,-1.18 -3.15,-1.18 -6.29,-2.36 -4.71,-1.57 -4.71,-1.57 -9.82,-3.14 -4.72,-1.18 -4.72,-1.18 -9.43,-1.96 -4.72,-0.39 -4.72,-0.39 -9.43,-1.18 -4.71,0 -4.71,0 -9.04,0.39 -4.32,0.39 -4.32,0.39 -8.65,1.18 -4.32,0.79 -4.32,0.79 -8.25,2.36 -3.93,1.57 -3.93,1.57 -7.46,3.15"/>
   <path class="fil1 str1" d="M1940.57 538.26c-81.74,48.34 -81.74,48.34 -163.49,97.07 -3.54,1.96 -3.54,1.96 -7.07,4.32 -3.54,2.75 -3.54,2.75 -6.68,5.5 -2.75,3.15 -2.75,3.15 -5.5,6.29 -2.36,3.54 -2.36,3.54 -4.72,7.07 -2.36,4.32 -2.36,4.32 -4.32,8.26 -1.57,4.72 -1.57,4.72 -3.54,9.04 -1.18,4.71 -1.18,4.71 -2.36,9.82 -0.79,5.11 -0.79,5.11 -1.57,10.22 -0.79,5.5 -0.79,5.5 -1.18,11 0,5.89 0,5.89 0,11.79 0.39,5.9 0.39,5.9 1.18,11.79 0.78,6.29 0.78,6.29 1.57,12.57 1.18,6.29 1.18,6.29 2.36,12.58 1.96,6.29 1.96,6.29 3.54,12.57 1.96,6.68 1.96,6.68 4.32,12.97 2.36,6.29 2.36,6.29 4.72,12.97 2.75,6.29 2.75,6.29 5.9,12.57 3.14,6.29 3.14,6.29 6.29,12.58 3.54,6.29 3.54,6.29 7.07,12.18 3.54,5.9 3.54,5.9 7.46,12.19 3.93,5.5 3.93,5.5 8.25,11.4 4.32,5.5 4.32,5.5 8.65,10.61 4.32,5.5 4.32,5.5 9.04,10.61 4.32,4.72 4.32,4.72 9.04,9.43 5.11,4.32 5.11,4.32 9.83,8.65 5.11,4.32 5.11,4.32 9.82,8.25 5.11,3.54 5.11,3.54 10.22,7.07 5.11,3.14 5.11,3.14 10.22,6.29 32.62,18.08 32.62,18.08 65.24,36.55"/>
   <path class="fil1 str1" d="M2126.06 1065.66c27.51,15.72 27.51,15.72 55.02,31.05 5.11,2.75 5.11,2.75 10.22,5.11 4.72,2.36 5.11,2.36 9.83,4.32 5.11,1.57 5.11,1.57 10.22,3.14 4.72,1.18 4.72,1.18 9.43,1.97 4.72,0.39 4.72,0.39 9.43,1.18 4.71,0 4.71,0 9.04,-0.39 4.32,-0.39 4.32,-0.39 8.65,-1.18 3.93,-1.18 3.93,-1.18 8.25,-2.36 3.54,-1.57 3.93,-1.57 7.46,-3.15 81.74,-48.34 81.74,-48.34 163.49,-97.07 3.54,-1.96 3.54,-1.96 7.07,-4.32 3.15,-2.75 3.15,-2.75 6.29,-5.5 3.15,-3.15 3.15,-3.15 5.9,-6.29 2.36,-3.54 2.36,-3.54 4.72,-7.46 2.35,-3.93 2.35,-3.93 4.32,-7.86 1.57,-4.71 1.57,-4.71 3.14,-9.04 1.57,-5.11 1.57,-5.11 2.75,-9.82 0.79,-5.11 0.79,-5.11 1.57,-10.22 0.39,-1.57 0.39,-1.57 0.39,-2.75"/>
   <path class="fil1 str1" d="M2463.26 945.01c148.95,-88.43 148.95,-88.43 297.89,-176.85 2.75,-1.57 2.75,-1.57 5.5,-3.54 2.75,-1.96 2.75,-1.96 5.11,-4.32 2.36,-2.36 2.36,-2.36 4.72,-4.71 1.96,-3.15 1.96,-3.15 3.93,-5.9 1.57,-3.14 1.57,-3.14 3.14,-6.68 1.18,-3.54 1.18,-3.54 2.75,-7.07 0.78,-3.93 0.78,-3.93 1.96,-7.46 0.79,-4.32 0.79,-4.32 1.18,-8.25 0.39,-4.72 0.39,-4.72 0.79,-9.04 0,-3.54 0,-3.54 0,-7.47"/>
   <path class="fil1 str1" d="M2862.54 660.87c3.15,1.18 3.15,1.18 6.68,2.36 3.15,0.79 3.15,0.79 6.68,1.57 3.15,0.39 3.15,0.39 6.68,0.78 3.15,0 3.15,0 6.29,0 2.75,-0.39 2.75,-0.39 5.9,-0.78 2.75,-0.39 2.75,-0.39 5.89,-1.18 2.36,-1.18 2.75,-1.18 5.11,-2.36"/>
   <line class="fil1 str1" x1="2452.25" y1="324.46" x2="2306.84" y2= "410.53" />
   <line class="fil1 str1" x1="2289.94" y1="407.39" x2="2195.23" y2= "463.98" />
   <line class="fil1 str1" x1="2140.21" y1="462.01" x2="2008.95" y2= "539.83" />
   <polyline class="fil1 str1" points="1924.85,952.48 1924.85,964.66 1970.83,990.6 1981.44,984.31 1992.83,990.99 2069.86,1034.22 2069.86,1046.01 2115.84,1071.95 2126.06,1065.66 "/>
   <line class="fil1 str1" x1="2790.23" y1="703.71" x2="2862.54" y2= "660.87" />
  </g>
  <circle class="fil2 str2" cx="1168.14" cy="603.09" r="97.7"/>
  <circle class="fil2 str2" cx="548.78" cy="603.09" r="97.7"/>
  <circle class="fil2 str2" cx="756.87" cy="603.09" r="97.7"/>
  <circle class="fil2 str2" cx="957.09" cy="603.09" r="97.7"/>
  <path class="fil3" d="M552.44 641.61l0 -16 -32.44 0 0 -13.28 34.41 -50.61 12.81 0 0 50.56 9.89 0 0 13.33 -9.89 0 0 16 -14.78 0zm0 -29.33l0 -27.17 -18.19 27.17 18.19 0z"/>
  <path class="fil3" d="M730.19 620.52l14.78 -1.8c0.46,3.78 1.72,6.67 3.78,8.67 2.06,2 4.54,3 7.44,3 3.13,0 5.76,-1.2 7.91,-3.59 2.13,-2.39 3.2,-5.61 3.2,-9.69 0,-3.83 -1.02,-6.89 -3.07,-9.13 -2.06,-2.24 -4.56,-3.37 -7.52,-3.37 -1.94,0 -4.26,0.39 -6.96,1.15l1.69 -12.37c4.11,0.11 7.24,-0.8 9.41,-2.7 2.17,-1.89 3.24,-4.43 3.24,-7.59 0,-2.69 -0.8,-4.81 -2.39,-6.43 -1.59,-1.59 -3.7,-2.39 -6.35,-2.39 -2.61,0 -4.83,0.91 -6.67,2.72 -1.85,1.81 -2.96,4.46 -3.37,7.94l-14 -2.39c0.98,-4.85 2.44,-8.72 4.43,-11.63 1.96,-2.89 4.72,-5.17 8.24,-6.83 3.52,-1.65 7.48,-2.48 11.85,-2.48 7.48,0 13.48,2.39 18,7.19 3.72,3.93 5.59,8.37 5.59,13.31 0,7 -3.81,12.61 -11.46,16.78 4.56,0.98 8.19,3.17 10.93,6.57 2.72,3.41 4.09,7.52 4.09,12.33 0,6.98 -2.56,12.94 -7.65,17.87 -5.09,4.93 -11.43,7.39 -19.02,7.39 -7.19,0 -13.15,-2.07 -17.87,-6.24 -4.74,-4.15 -7.48,-9.57 -8.24,-16.3z"/>
  <path class="fil3" d="M982.41 627.5l0 14.11 -53.44 0c0.57,-5.37 2.31,-10.44 5.2,-15.24 2.89,-4.8 8.61,-11.17 17.13,-19.11 6.87,-6.41 11.07,-10.76 12.63,-13.04 2.09,-3.15 3.15,-6.26 3.15,-9.35 0,-3.41 -0.91,-6.02 -2.74,-7.85 -1.81,-1.83 -4.33,-2.74 -7.54,-2.74 -3.19,0 -5.7,0.96 -7.59,2.89 -1.87,1.91 -2.94,5.09 -3.24,9.56l-15.22 -1.52c0.91,-8.41 3.74,-14.44 8.52,-18.11 4.78,-3.65 10.74,-5.48 17.91,-5.48 7.85,0 14.02,2.13 18.52,6.37 4.48,4.24 6.72,9.52 6.72,15.83 0,3.59 -0.65,7 -1.93,10.26 -1.28,3.24 -3.31,6.63 -6.11,10.19 -1.83,2.37 -5.19,5.76 -10,10.19 -4.83,4.43 -7.89,7.35 -9.17,8.81 -1.3,1.44 -2.33,2.87 -3.13,4.24l30.33 0z"/>
  <path class="fil3" d="M1180.9 641.61l-15.22 0 0 -57.59c-5.56,5.22 -12.11,9.09 -19.67,11.59l0 -13.89c3.98,-1.3 8.3,-3.76 12.94,-7.41 4.67,-3.63 7.85,-7.87 9.59,-12.7l12.35 0 0 80z"/>
  <polygon id="Image_x0020_Number.des" class="fil4" points="30,1060.78 317.32,1060.78 317.32,1153.89 30,1153.89 "/>
  <polygon id="_1" class="fil3" points="36.58,1136.23 36.58,1076.56 79.67,1076.56 79.67,1083.56 44.5,1083.56 44.5,1101.89 77.42,1101.89 77.42,1108.89 44.5,1108.89 44.5,1129.23 81.08,1129.23 81.08,1136.23 "/>
  <path id="_2" class="fil3" d="M89.08 1106.78c0,-7.04 0.72,-12.74 2.17,-17.04 1.46,-4.32 3.61,-7.64 6.47,-9.96 2.85,-2.32 6.44,-3.47 10.78,-3.47 3.19,0 6,0.64 8.43,1.93 2.42,1.29 4.42,3.15 5.97,5.58 1.56,2.42 2.78,5.38 3.67,8.86 0.9,3.49 1.35,8.2 1.35,14.1 0,7 -0.72,12.67 -2.15,16.97 -1.43,4.32 -3.58,7.64 -6.44,9.97 -2.85,2.33 -6.46,3.5 -10.82,3.5 -5.74,0 -10.25,-2.04 -13.53,-6.14 -3.93,-5 -5.89,-13.1 -5.89,-24.31zm7.5 0.03c0,9.82 1.14,16.35 3.43,19.57 2.3,3.24 5.13,4.85 8.49,4.85 3.36,0 6.19,-1.63 8.48,-4.86 2.3,-3.25 3.43,-9.76 3.43,-19.56 0,-9.82 -1.14,-16.35 -3.43,-19.57 -2.28,-3.24 -5.14,-4.85 -8.57,-4.85 -3.36,0 -6.06,1.43 -8.07,4.28 -2.51,3.62 -3.76,10.35 -3.76,20.14z"/>
  <path id="_3" class="fil3" d="M135.43 1106.78c0,-7.04 0.72,-12.74 2.17,-17.04 1.46,-4.32 3.61,-7.64 6.47,-9.96 2.85,-2.32 6.44,-3.47 10.78,-3.47 3.19,0 6,0.64 8.43,1.93 2.42,1.29 4.42,3.15 5.97,5.58 1.56,2.42 2.78,5.38 3.67,8.86 0.9,3.49 1.35,8.2 1.35,14.1 0,7 -0.72,12.67 -2.15,16.97 -1.43,4.32 -3.58,7.64 -6.44,9.97 -2.85,2.33 -6.46,3.5 -10.82,3.5 -5.74,0 -10.25,-2.04 -13.53,-6.14 -3.93,-5 -5.89,-13.1 -5.89,-24.31zm7.5 0.03c0,9.82 1.14,16.35 3.43,19.57 2.3,3.24 5.13,4.85 8.49,4.85 3.36,0 6.19,-1.63 8.48,-4.86 2.3,-3.25 3.43,-9.76 3.43,-19.56 0,-9.82 -1.14,-16.35 -3.43,-19.57 -2.28,-3.24 -5.14,-4.85 -8.57,-4.85 -3.36,0 -6.06,1.43 -8.07,4.28 -2.51,3.62 -3.76,10.35 -3.76,20.14z"/>
  <path id="_4" class="fil3" d="M181.78 1106.78c0,-7.04 0.72,-12.74 2.17,-17.04 1.46,-4.32 3.61,-7.64 6.47,-9.96 2.85,-2.32 6.44,-3.47 10.78,-3.47 3.19,0 6,0.64 8.43,1.93 2.42,1.29 4.42,3.15 5.97,5.58 1.56,2.42 2.78,5.38 3.67,8.86 0.9,3.49 1.35,8.2 1.35,14.1 0,7 -0.72,12.67 -2.15,16.97 -1.43,4.32 -3.58,7.64 -6.44,9.97 -2.85,2.33 -6.46,3.5 -10.82,3.5 -5.74,0 -10.25,-2.04 -13.53,-6.14 -3.93,-5 -5.89,-13.1 -5.89,-24.31zm7.5 0.03c0,9.82 1.14,16.35 3.43,19.57 2.3,3.24 5.13,4.85 8.49,4.85 3.36,0 6.19,-1.63 8.48,-4.86 2.3,-3.25 3.43,-9.76 3.43,-19.56 0,-9.82 -1.14,-16.35 -3.43,-19.57 -2.28,-3.24 -5.14,-4.85 -8.57,-4.85 -3.36,0 -6.06,1.43 -8.07,4.28 -2.51,3.62 -3.76,10.35 -3.76,20.14z"/>
  <path id="_5" class="fil3" d="M228.12 1120.56l7.67 -0.59c0.57,3.74 1.89,6.54 3.94,8.43 2.06,1.87 4.57,2.82 7.53,2.82 3.57,0 6.56,-1.33 8.99,-3.99 2.42,-2.67 3.63,-6.19 3.63,-10.58 0,-4.18 -1.15,-7.47 -3.47,-9.89 -2.32,-2.41 -5.39,-3.62 -9.21,-3.62 -2.38,0 -4.5,0.54 -6.39,1.62 -1.87,1.09 -3.35,2.49 -4.43,4.21l-6.92 -1 5.75 -30.67 29.58 0 0 7 -23.74 0 -3.18 16.1c3.57,-2.52 7.32,-3.76 11.24,-3.76 5.19,0 9.58,1.8 13.15,5.42 3.57,3.61 5.36,8.25 5.36,13.91 0,5.41 -1.57,10.07 -4.71,14 -3.82,4.83 -9.04,7.25 -15.65,7.25 -5.41,0 -9.83,-1.53 -13.26,-4.57 -3.43,-3.04 -5.39,-7.07 -5.87,-12.09z"/>
  <path id="_6" class="fil3" d="M275.55 1122.39l7 -0.58c0.6,3.31 1.74,5.7 3.42,7.18 1.68,1.48 3.83,2.24 6.47,2.24 2.25,0 4.22,-0.52 5.93,-1.56 1.71,-1.03 3.1,-2.4 4.17,-4.14 1.07,-1.72 1.97,-4.06 2.71,-6.99 0.74,-2.93 1.09,-5.92 1.09,-8.96 0,-0.32 -0.01,-0.82 -0.04,-1.47 -1.46,2.33 -3.46,4.24 -5.99,5.68 -2.53,1.46 -5.28,2.18 -8.22,2.18 -4.93,0 -9.1,-1.79 -12.52,-5.37 -3.4,-3.57 -5.11,-8.29 -5.11,-14.15 0,-6.06 1.78,-10.92 5.35,-14.61 3.56,-3.68 8.02,-5.53 13.39,-5.53 3.86,0 7.4,1.04 10.63,3.14 3.21,2.08 5.64,5.06 7.3,8.93 1.67,3.86 2.5,9.46 2.5,16.78 0,7.63 -0.82,13.7 -2.47,18.21 -1.65,4.53 -4.13,7.96 -7.39,10.32 -3.26,2.36 -7.08,3.54 -11.47,3.54 -4.67,0 -8.47,-1.29 -11.43,-3.89 -2.94,-2.59 -4.72,-6.25 -5.32,-10.94zm29.92 -26.32c0,-4.19 -1.11,-7.53 -3.33,-9.98 -2.2,-2.46 -4.9,-3.7 -8.07,-3.7 -3.28,0 -6.11,1.32 -8.5,3.97 -2.41,2.65 -3.6,6.1 -3.6,10.32 0,3.79 1.14,6.88 3.4,9.24 2.28,2.38 5.11,3.56 8.49,3.56 3.39,0 6.17,-1.18 8.35,-3.56 2.18,-2.36 3.26,-5.65 3.26,-9.85z"/>
 </g>
</svg>
