<?xml version="1.0" encoding="UTF-8"?>
<!DOCTYPE svg PUBLIC "-//W3C//DTD SVG 1.1//EN" "http://www.w3.org/Graphics/SVG/1.1/DTD/svg11.dtd">
<!-- Creator: Corel DESIGNER -->
<svg xmlns="http://www.w3.org/2000/svg" xml:space="preserve" width="3.49999in" height="2.75in" version="1.1" style="shape-rendering:geometricPrecision; text-rendering:geometricPrecision; image-rendering:optimizeQuality; fill-rule:evenodd; clip-rule:evenodd"
viewBox="0 0 3499.99 2750"
 xmlns:xlink="http://www.w3.org/1999/xlink"
 xmlns:xodm="http://www.corel.com/coreldraw/odm/2003">
 <defs>
  <style type="text/css">
   <![CDATA[
    .str2 {stroke:#373435;stroke-width:3.11;stroke-linecap:round;stroke-linejoin:round;stroke-miterlimit:22.9256}
    .str1 {stroke:black;stroke-width:3.11;stroke-linecap:round;stroke-linejoin:round;stroke-miterlimit:22.9256}
    .str0 {stroke:#373435;stroke-width:7.87;stroke-linecap:round;stroke-linejoin:round;stroke-miterlimit:22.9256}
    .str3 {stroke:#373435;stroke-width:7;stroke-linecap:round;stroke-linejoin:round;stroke-miterlimit:2.61313}
    .fil4 {fill:none}
    .fil5 {fill:#FEFEFE}
    .fil7 {fill:#FEFEFE}
    .fil0 {fill:#BDBFC1}
    .fil1 {fill:#96989A}
    .fil2 {fill:#727376}
    .fil8 {fill:white}
    .fil6 {fill:#373435;fill-rule:nonzero}
    .fil3 {fill:black;fill-opacity:0.098039}
   ]]>
  </style>
 </defs>
 <g id="Layer_x0020_1">
  <metadata id="CorelCorpID_0Corel-Layer"/>
  <path class="fil0 str0" d="M1987.1 2538.25c0.48,1.71 0.73,3.47 0.73,5.27 0,0.21 -0,0.41 -0.01,0.62 -0.28,8.44 -6.22,16.52 -16.59,22.49l-2.24 1.5 -18.11 11.02 -0.2 -0.08c-0.86,0.5 -1.74,0.97 -2.65,1.43 -10.3,5.22 -23.58,8.13 -37.37,8.13 -0.57,0 -1.14,-0 -1.7,-0.02 -30.48,-0.52 -54.91,-14.95 -54.91,-32.66l-0.81 0 0 -52 -0.08 0c0.04,-5.74 2.68,-11.32 7.56,-16.21l0 -37.73 -0.16 -0.08c1.22,-5.33 4.83,-10.36 10.39,-14.61l0 -40.82 -0.12 -0.16c1.46,-6.22 6.31,-12.01 13.82,-16.54l0.07 0.17 3.94 -2.36 -0.08 -0.16c9.7,-5.85 23.12,-9.15 37.13,-9.15 28.41,0 51.45,13.31 51.45,29.73 0,1.29 -0.15,2.59 -0.44,3.87l0.12 0.12 -0.02 28.37c4.65,4.59 7.31,9.93 7.31,15.63 0,1.38 -0.17,2.78 -0.48,4.14l-0.12 0 0 32.35c2.19,3.48 3.39,7.24 3.39,11.15l0.16 0.09 0 46.5z"/>
  <path class="fil1 str0" d="M1843.79 2205.53l0 28.21 0 11.94 -8.97 5.39 -12.68 7.61 -12.2 -9.71 0 14.83 -7.09 1.97 -1.94 0.36c-5.2,1.22 -5.74,1.34 -12.23,2.79 -2.4,-0.15 -3.88,-0.24 -5.15,-0.32 -2.06,-0.13 -3.55,-0.22 -7.45,-0.46 -0.96,-0.13 -1.76,-0.24 -2.46,-0.33 -3.35,-0.26 -6.61,-0.67 -9.75,-1.23 -20.28,-3.61 -35.79,-13.28 -40.47,-25.24 -0.96,-2.45 -1.46,-4.99 -1.46,-7.6l-0.19 -0.63 -0.63 -4.52 -2.12 -15.16 0 -40.16 55.51 -23.23 62.2 16.14 0 0.79 7.09 38.58z"/>
  <path class="fil2 str0" d="M1576.07 2403.56l0 1.97 0 1.97 0 28.74 -0.79 1.57 -2.76 3.15 -1.56 1.18 -14.58 11.03 -14.15 11c1.06,2.08 1.62,4.29 1.62,6.57 0,2.54 -0.72,5.06 -2.12,7.46l0.08 0.16 -4.87 15.74 -0.1 0.33c-0.33,10.49 -15.19,18.93 -33.46,18.93 -18.48,0 -33.46,-8.64 -33.46,-19.29 0,-0.73 0.07,-1.45 0.21,-2.16l-0.37 -17.88 -12.21 -1.91 -0.39 -0.06c-11.78,-2.75 -11.81,-2.76 -23.13,-5.49 -0.04,-0.01 -0.07,-0.02 -0.1,-0.02 -3.54,-1.18 -3.54,-0.79 -6.69,-2.36 -6.48,-4.82 -10.16,-7.68 -13.39,-10.24l-0.11 -0.12c-0.1,-0.08 -0.2,-0.17 -0.31,-0.25 -3.76,-3.03 -7.01,-5.78 -13.66,-11.07 -0.77,-0.61 -1.59,-1.26 -2.46,-1.95 -1.57,-1.18 -1.57,-1.18 -2.76,-2.76l-0.79 -1.57 0 -24.02 0 -7.09 0 -1.18 0 -1.97 0 -2.76 0 -0.39 0 -30.71 0.39 -1.18 1.57 -1.97c15.35,-12.2 15.35,-12.2 31.1,-24.41 1.97,-1.18 1.97,-1.18 4.33,-1.97 2.76,-0.79 2.76,-0.79 5.51,-1.57 10.63,-2.36 10.63,-2.36 21.26,-4.72 9.45,-1.57 9.45,-1.57 19.29,-2.76 3.94,-0.39 3.94,-0.39 7.87,-0.79l5.12 0.39c11.02,1.57 11.02,1.57 21.65,3.15 10.63,2.36 10.63,2.36 20.87,4.72 4.33,1.18 4.33,1.18 8.66,2.76 0.34,0.27 3.02,1.7 3.32,1.93 4.57,3.59 4.89,3.87 10.07,8.3 8.66,7.09 8.66,6.69 17.72,13.78 1.57,1.57 1.57,1.57 3.15,3.54l0.39 3.94 0 32.28zm-182.28 0.39l0 1.18 0 -1.18zm0 -1.97l0 1.97 0 -1.97zm0 -2.76l0 2.76 0 -2.76zm0 -0.39l0 0.39 0 -0.39z"/>
  <g id="_1958495884896">
   <path class="fil3" d="M1715.05 134.27l22.83 31.5 0 123.62 -18.5 8.27 -14.96 5.12 -3.15 -24.41 -8.66 -4.72 -1.57 -153.15 5.51 -0.39 18.5 14.17zm171.26 121.65l22.83 22.05 26.38 40.94 18.11 53.94 3.15 55.51 56.3 43.7 -0.79 5.91 -18.5 -1.18 -41.73 -16.93 -2.76 -19.69 -9.45 10.63 -59.84 25.59 -11.42 15.75 -33.07 20.47 -63.39 9.06 -162.2 4.72 254.33 -111.02 -27.95 -60.24 -4.72 -13.39 -5.51 -45.28 5.51 -30.31 12.2 -14.96 9.06 -4.72 15.35 0 18.11 9.45zm-247.64 71.65l-5.51 5.12 -17.32 0 -70.47 -19.69 25.59 1.57 67.72 12.99zm-142.6 -11.87l107.17 27.62 -60.63 25.59 -18.03 2m618.03 87.76l23.23 26.38 12.99 22.83 22.44 58.66 0 60.24 -17.32 22.83 -19.29 8.66 -1.18 34.65 19.69 274.41 12.99 162.2 5.12 12.99 103.54 85.43 4.72 55.51 -27.56 -15.35 -5.91 0 -7.48 6.69 0 66.14 4.33 18.11 14.17 17.72 11.42 0.39 18.11 -9.84 18.5 -35.43 0 -32.68 5.12 0.39 14.17 22.83 0 33.46 -4.72 12.99 -31.89 44.88 0.39 84.25 4.72 4.72 17.32 9.45 30.71 -0.39 26.77 -9.06 103.15 -45.67 15.35 -11.42 13.78 -22.44 35.83 -116.93 0 -33.46 -32.28 -76.38 0.39 -9.06 50.39 40.16 40.16 94.88 0 37.8 -36.22 116.93 -13.39 22.83 -15.75 11.02 -353.54 155.51 0 -137.4 -13.78 1.97 -10.24 282.28 -11.81 425.2 10.63 -12.6 -1.97 16.54 -8.66 26.77 -17.72 18.5 -54.33 76.38 -67.32 49.61 -46.85 25.2 1.57 109.84 -6.69 11.81 -8.66 0 6.3 -7.48 0.39 -15.35 -9.45 -13.39 -7.09 -5.91 2.36 -1.97 0.39 -95.67 -3.94 -45.28 -18.5 -8.66 -33.07 0 -22.83 9.06 -12.2 14.57 -4.33 36.61 -3.54 13.39 -5.12 35.83 -37.4 7.48 -142.91 0 -85.83 -12.99 -39.76 -13.78 -9.06 5.51 -4.72 22.83 -7.87 18.9 -20.47 6.69 -21.26 0.39 -18.11 -9.45 0 -16.54 21.26 -10.63 27.95 1.97 5.51 -14.17 -0.39 -32.68 -4.72 -31.5 -13.39 -4.72 -35.83 5.12 -9.06 -9.84 -0.39 14.17 5.12 8.66 0 19.69 -29.13 2.76 1.97 22.83 27.56 9.45 -0.39 5.12 -13.78 -0.79 -31.5 -9.45 -27.17 -22.83 4.72 -29.53 20.87 -19.69 31.5 -13.39 50.79 -4.72 36.22 1.97 0 -33.07 -23.62 -7.87 -7.48 -15.35 -14.96 -4.33 0.39 -4.33 -18.9 0 5.51 5.12 -27.95 -0.79 -16.93 11.42 4.33 7.09 -41.73 31.5 -8.27 1.57 -39.37 -51.57 -0.39 -16.14 9.45 -27.17 24.8 -46.85 29.53 -33.46 33.46 -29.53 54.72 -35.43 76.38 -31.89 99.21 -22.05 114.17 -9.06 146.85 -9.06 59.84 -20.87 18.5 -18.11 13.39 -690.55 -18.11 -13.39 -81.1 -31.5 -54.33 -13.39 -14.96 -0.39 -2.76 78.74 -4.33 -96.46 -83.07 -4.72 -7.48 10.63 -95.67 3.15 -90.16 13.78 -58.27 17.72 1.18 712.99 -4.33 -55.91 -9.06 -666.54 -10.24 0 -62.2 29.13 1.18 13.39 -59.45 40.55 -33.07 29.53 -34.25 51.18 -22.83 4.33 -9.06 36.61 0.79 103.54 -14.17 -19.29 -7.48 -28.74 2.76 -1.57 5.12 -82.68 -5.12 10.24 -2.76 74.02 -6.3 -11.81 0.39 -66.54 9.06 -35.83 29.53 -51.57 27.56 -31.1 64.57 -48.03 62.99 -31.5 61.42 -24.02 67.72 -17.72 94.49 -13.78 154.33 0 108.27 18.11 130.31 37.8 3.15 -186.22 10.63 -3.54 0.39 -4.72 -22.83 -14.57 -9.06 -8.66 -4.72 -31.5 -4.33 -67.72 -14.96 -445.67 10.63 -3.94 4.33 8.27 3.94 27.56 18.5 44.88 22.83 35.43 8.27 5.51 17.32 0 5.91 -3.94 -4.33 -10.63 -23.23 -48.82 -8.66 -45.28 0 -25.59 4.33 -22.44 16.14 -14.96 20.08 0 26.77 13.78zm-648.43 62.99l9.84 26.77 -5.12 42.13 -17.32 427.95 -18.5 12.99 -4.33 189.37 -10.24 12.2 -19.29 -0.79 20.47 -11.81 -5.12 -18.9 -4.33 -72.44 0.39 -128.74 8.66 -22.83 18.11 -440.94 16.93 -68.5 2.36 -2.36 7.48 55.91zm-116.54 114.17l-11.02 7.09 -18.11 22.05 -34.25 60.63 -19.29 -1.97 -89.76 36.61 -35.04 0 -22.05 -14.17 -14.96 -22.05 243.7 -99.21 4.72 -0.39 -3.94 11.42zm1129.92 650.39l0 29.13 -15.75 20.47 -17.32 9.84 -16.54 -0.39 -9.84 -13.39 0 -12.2 14.17 -26.77 16.14 -11.02 24.8 -0.39 4.33 4.72zm-609.84 1244.09l27.56 -1.18 22.44 -14.17 12.2 3.54 -25.59 15.35 -54.33 -0.79 0.39 37.8 14.57 12.6 -13.78 0 -17.32 -9.84 -9.45 -8.66 -0.39 -16.54 12.6 -14.96 22.44 -13.78 11.81 -1.57 -3.15 12.2zm16.93 -2227.17l20.87 42.91 9.06 40.55 -4.33 28.74 -10.63 16.14 -25.98 0.39 -35.43 -32.28 -22.83 -48.82 0 -16.54 35.04 -15.35 12.99 0.39 13.78 -19.29 7.48 3.15zm263.78 227.56l13.78 49.61 -4.33 32.68 -10.63 16.54 -25.98 0.39 -30.71 -27.95 -23.23 -39.76 -4.33 -13.39 -1.57 -18.11 31.89 -14.17 17.72 0.79 4.72 -13.39 9.06 -5.91 5.51 0.79 18.11 31.89zm-233.86 701.97l94.49 35.83 18.11 13.39 -1.18 5.12 -7.87 0.39 -40.55 -18.5 -135.04 -36.22 -163.39 -9.06 -144.09 18.11 -133.86 46.46 -107.48 72.44 -45.28 67.72 -0.39 -14.17 16.14 -33.46 72.83 -71.65 130.31 -62.99 135.04 -31.5 177.17 -4.33 135.04 22.44zm-684.65 303.15l-2.76 1.57 2.76 -74.02 5.12 -10.24 -5.12 82.68zm802.55 510.08l12.41 -649.84 4.72 -58.27 7.87 -7.09 7.09 3.54 -10.63 683.07 -3.94 27.17 -18.11 31.89 0.1 -5.11m-238.68 52.36l-1.57 27.56 -36.61 -0.39 47.24 13.39 4.72 4.33 0 37.8 -36.61 -5.91 -45.28 1.57 -3.54 -19.69 -11.02 4.72 -3.15 23.62 -5.91 3.54 -7.87 10.24 -4.33 -9.84 -5.91 -77.17 14.96 -16.93 25.59 -10.24 46.85 0 22.44 13.39zm-292.52 107.87l-1.97 72.83 -62.99 -0.39 -18.11 4.33 -20.47 11.02 -14.17 22.44 -5.91 -91.73 20.08 -20.87 34.25 -10.63 42.13 0 27.17 12.99zm382.68 40.16l-0.39 24.8 -28.74 2.76 -11.81 6.69 -1.57 -33.46 8.66 -4.72 29.53 -0.39 4.33 4.33zm44.49 37.01l27.56 12.99 -0.39 24.8 -18.11 -1.97 -18.11 -4.33 -55.12 0 -31.89 8.66 -31.89 22.05 -11.02 24.02 -29.13 -1.18 -7.48 6.69 0 -36.61 23.23 -5.12 7.87 0.79 22.83 -31.89 25.98 -15.35 5.91 0.39 12.99 9.84 30.71 0 13.39 -18.5 32.68 4.72zm-435.43 179.53l-0.79 10.63 -5.51 3.94 -23.23 0.79 0 -19.69 24.41 -0.39 5.12 4.72z"/>
   <path class="fil4 str1" d="M1740.64 290.18c0,-57.48 0,-57.48 0,-115.35 0,-1.57 0,-1.57 -0.39,-3.54 -7.09,-13.39 -7.09,-13.39 -14.17,-26.77 -1.18,-1.18 -1.18,-1.18 -1.97,-2.36 -13.78,-11.42 -14.17,-11.42 -27.95,-22.44 -1.18,-0.79 -1.18,-0.79 -2.36,-1.18 -18.9,-7.87 -18.9,-8.27 -38.19,-15.75 -22.44,-3.94 -22.44,-3.94 -44.88,-7.48 -23.62,0.39 -23.62,0.39 -46.85,1.18 -22.05,4.72 -22.05,4.72 -43.7,10.24 -18.11,8.27 -17.72,8.66 -35.43,17.72 -1.18,0.39 -1.18,0.39 -2.36,1.18 -12.2,11.81 -12.2,11.81 -24.41,24.02 -0.79,1.18 -0.79,1.18 -1.57,2.76 -5.12,13.39 -5.12,13.78 -9.84,27.17 -0.39,1.97 -0.39,1.97 -0.39,3.54"/>
   <line class="fil4 str1" x1="1446.15" y1="183.09" x2="1446.15" y2= "292.54" />
   <path class="fil4 str1" d="M1188.67 521.67c0.79,-0.39 0.79,-0.39 1.57,-1.18 0.79,-0.39 0.79,-0.39 1.97,-0.39 1.57,-0.39 1.57,-0.39 3.54,-0.39"/>
   <path class="fil4 str1" d="M1267.02 1570.49c-9.45,-22.83 -9.45,-23.23 -17.32,-46.46 -3.15,-25.2 -2.76,-25.2 -4.72,-50.79 -0.39,-94.49 0,-94.49 0,-189.37 0.39,-3.54 0.79,-3.54 1.18,-7.48 4.72,-23.62 4.33,-24.02 9.45,-47.24 12.99,-26.38 12.99,-26.77 26.77,-52.76 17.32,-21.65 17.32,-21.65 35.43,-42.52 25.2,-21.65 25.59,-21.26 51.18,-42.13 13.78,-9.06 13.78,-9.06 27.95,-17.72"/>
   <path class="fil4 str1" d="M1322.93 1362.22c46.85,-32.28 46.85,-32.28 93.7,-64.96 4.72,-3.15 4.72,-3.15 9.06,-6.3 68.5,-24.02 68.5,-25.59 137.4,-48.03 77.95,-11.42 78.35,-11.02 157.09,-19.69 79.53,3.94 79.92,3.94 159.45,11.02 72.44,18.5 72.83,18.5 144.49,40.16 57.87,30.71 58.27,31.1 114.57,64.96"/>
   <path class="fil4 str1" d="M1314.26 775.61c1.57,-19.29 1.57,-19.29 2.36,-38.58 0,-1.97 0,-1.97 -0.39,-3.94 -1.18,-1.97 -1.18,-1.97 -1.97,-3.54 -1.57,-1.97 -1.57,-1.97 -3.15,-3.54 -1.97,-1.18 -1.97,-1.18 -3.94,-1.97 -1.57,-0.39 -1.57,-0.39 -3.15,-0.79"/>
   <path class="fil4 str1" d="M1394.19 2367.34c-2.36,-1.97 -2.36,-1.97 -4.33,-4.33 -14.17,-16.93 -14.17,-16.93 -28.35,-34.25 -7.48,-11.42 -7.87,-11.42 -14.96,-23.23 -12.2,-33.86 -11.81,-33.86 -23.62,-68.11 -2.36,-10.63 -1.97,-10.63 -3.94,-21.26 -0.39,-4.72 -0.39,-4.72 -0.39,-9.06"/>
   <path class="fil4 str1" d="M1444.58 2324.82c5.51,-3.15 5.51,-3.15 11.42,-6.69 6.69,-1.97 6.69,-1.97 13.39,-3.94 3.94,-0.39 3.94,-0.39 7.87,-0.79"/>
   <path class="fil4 str1" d="M1477.26 2313.41c-3.94,0 -3.94,0 -8.27,0.39 -6.3,1.57 -6.3,1.57 -12.99,3.15 -5.12,2.36 -5.12,2.36 -10.24,5.12 -3.54,3.15 -3.94,3.15 -7.09,6.69"/>
   <path class="fil4 str1" d="M1402.06 469.31c-1.57,-5.91 -1.97,-5.91 -3.54,-12.2 -0.79,-10.24 -0.79,-10.24 -1.18,-20.87 2.76,-45.28 2.76,-45.28 5.91,-90.16"/>
   <path class="fil4 str1" d="M1431.59 1234.67c-2.36,-2.76 -2.36,-2.76 -4.72,-5.51 -2.36,-4.33 -2.36,-4.33 -4.72,-8.27 -1.97,-4.72 -1.97,-4.72 -3.94,-9.06 -1.18,-4.72 -1.18,-4.72 -2.36,-9.45 -0.39,-3.54 -0.39,-3.54 -0.79,-6.69"/>
   <path class="fil4 str1" d="M1415.05 1195.69c-3.15,-85.83 -3.15,-85.83 -6.3,-171.65 0,-3.54 0,-3.54 0.39,-7.09 1.18,-3.94 1.18,-3.94 2.36,-7.87"/>
   <path class="fil4 str1" d="M1437.1 546.48c0,-0.79 0,-0.79 -0.39,-1.97 -1.97,-5.91 -1.97,-6.3 -4.33,-12.2 -12.6,-25.98 -15.35,-31.5 -28.35,-57.09"/>
   <path class="fil4 str1" d="M1438.67 561.83c-8.66,214.57 -8.66,214.57 -16.93,429.53 -0.39,2.76 0,2.76 -0.39,5.12 -1.18,2.36 -1.18,2.36 -1.97,4.72"/>
   <path class="fil4 str1" d="M1532.77 2326.4c-5.91,-3.94 -5.91,-3.94 -11.81,-7.48 -7.48,-2.36 -7.48,-2.36 -15.35,-4.72 -7.87,-0.79 -7.87,-0.79 -16.14,-1.57 -5.91,0.39 -5.91,0.39 -12.2,0.79"/>
   <path class="fil4 str1" d="M1446.94 1665.77c4.33,164.17 4.33,164.17 8.66,328.74 0.79,8.27 0.79,8.27 1.97,16.93 1.97,9.06 1.97,9.06 4.33,18.11 0.79,2.36 0.79,2.36 1.57,4.72"/>
   <path class="fil4 str1" d="M1463.48 291.75c4.72,-3.94 4.72,-3.94 9.45,-7.87 0.79,-0.39 0.79,-0.39 1.97,-1.18 22.05,-9.06 22.05,-9.84 44.09,-18.5 26.38,-5.12 26.77,-5.12 53.15,-9.45 27.56,0 27.56,0 55.12,1.18 25.59,5.12 25.98,5.12 51.18,11.42 21.65,9.45 21.26,10.24 42.52,20.47 0.79,0.39 1.18,0.39 1.97,1.18 3.15,2.76 3.15,2.76 6.3,5.91"/>
   <path class="fil4 str1" d="M1512.69 332.3c2.36,14.96 2.36,14.96 4.72,29.92 0.79,1.57 0.79,1.57 1.57,3.15 1.18,1.57 1.18,1.57 1.97,2.76 1.57,1.18 1.57,1.18 2.76,2.36"/>
   <path class="fil4 str1" d="M1523.71 370.49c1.57,0.79 1.57,0.79 3.54,1.18 1.57,0.39 1.57,0.39 3.54,0.79 3.15,-0.79 3.15,-0.79 6.3,-1.18"/>
   <path class="fil4 str1" d="M1551.27 2457.5c26.77,9.45 27.17,9.45 54.33,17.72 52.36,7.48 52.76,7.87 105.12,14.17 53.94,-0.79 54.33,-1.18 108.27,-3.54 20.87,-3.94 20.87,-3.94 41.73,-8.66"/>
   <path class="fil4 str1" d="M1568.2 2346.87c-0.79,0 -1.18,0 -1.97,0 -1.18,-0.39 -1.18,-0.39 -1.97,-0.79 -3.15,-2.36 -3.15,-2.36 -6.3,-4.72"/>
   <path class="fil4 str1" d="M1562.69 2348.84c1.97,0.39 1.97,0.39 3.94,0.79 1.97,0 1.97,0 3.94,0 1.18,-0.39 1.18,-0.39 2.36,-0.79 1.18,-0.39 1.18,-0.39 2.36,-0.79 0.79,-0.79 0.79,-0.79 1.57,-1.18"/>
   <path class="fil4 str1" d="M1604.03 2381.12c1.57,0.39 1.57,0.39 3.15,0.79 1.97,0 1.97,0 3.94,0 1.18,0 1.18,0 2.36,-0.39 1.57,-0.39 1.57,-0.39 2.76,-1.18 0.79,-0.39 0.79,-0.39 1.57,-1.18"/>
   <path class="fil4 str1" d="M1573.71 2364.98c1.57,0 1.57,0 3.15,0 1.57,-0.39 1.57,-0.39 3.15,-0.79 9.84,-4.33 9.84,-4.33 20.08,-8.27"/>
   <path class="fil4 str1" d="M1598.52 2370.49c3.15,2.36 3.15,2.36 6.3,5.12 1.18,0.39 1.18,0.39 1.97,0.79 1.18,0 1.18,0 2.36,0"/>
   <path class="fil4 str1" d="M1609.15 2379.55c-1.18,0 -1.18,0 -2.36,-0.39 -0.79,-0.39 -0.79,0 -1.97,-0.79 -4.33,-3.15 -4.33,-3.15 -8.66,-6.69"/>
   <path class="fil4 str1" d="M1824.11 2416.16c-4.72,1.57 -4.72,1.57 -9.45,3.15 -3.94,0.39 -4.33,0.39 -8.27,0.79 -4.33,-0.39 -4.33,-0.39 -8.27,-1.18 -3.54,-0.79 -3.94,-0.79 -7.48,-2.36 -3.15,-1.97 -3.15,-1.97 -6.3,-3.94"/>
   <path class="fil4 str1" d="M1818.99 259.47c-1.97,-0.39 -1.97,-0.39 -3.94,0 -1.18,0 -1.18,0 -1.97,0.39 -0.79,0.39 -0.79,0.39 -1.57,0.79"/>
   <path class="fil4 str1" d="M1848.91 2157.11c0,0.79 0,0.79 -0.39,1.57 -0.39,9.84 0,9.84 -0.39,19.69 -0.79,6.3 -1.18,6.3 -1.97,12.6 -0.39,0.79 -0.39,0.79 -0.39,1.97"/>
   <path class="fil4 str1" d="M1918.59 2318.13c-3.15,1.97 -3.15,2.36 -5.91,3.94 -3.54,1.57 -3.54,1.57 -7.09,2.76 -3.94,0.39 -3.94,0.39 -7.87,1.18 -3.94,-0.39 -3.94,-0.39 -8.27,-0.79 -3.54,-0.79 -3.54,-0.79 -7.09,-1.97 -3.54,-1.57 -3.54,-1.57 -6.69,-3.54"/>
   <path class="fil4 str1" d="M2030.01 492.93c-2.76,-1.18 -2.76,-1.18 -5.12,-1.97 -26.38,-12.2 -26.38,-12.6 -52.76,-24.41 -18.9,-6.3 -18.9,-6.3 -38.19,-11.81"/>
   <path class="fil4 str1" d="M1993.79 2434.27c7.48,-3.15 7.48,-3.15 14.57,-5.91 9.06,-5.12 9.06,-4.72 17.72,-9.84 35.43,-26.38 35.43,-26.38 70.87,-52.76"/>
   <path class="fil4 str1" d="M2022.14 2368.52c-0.39,15.35 -0.39,15.35 -1.18,30.71 0,1.18 0,1.18 -0.39,1.97 -3.94,7.87 -3.94,7.87 -7.87,15.75"/>
   <path class="fil4 str1" d="M2092.22 1075.22c23.62,15.35 23.62,15.35 46.46,31.5 23.62,21.65 24.02,21.65 46.85,44.09 15.75,21.65 15.35,22.05 30.31,43.7 1.97,3.94 1.97,3.94 3.94,7.48 8.66,23.23 9.06,23.23 17.32,46.46 0.79,3.54 0.79,3.94 1.18,7.48 2.36,20.87 2.36,20.87 4.33,42.13"/>
   <path class="fil4 str1" d="M2122.53 2044.11c-0.39,8.66 -0.39,8.66 -0.79,17.32 -2.36,9.06 -2.36,9.06 -4.33,18.11 -3.94,8.66 -3.94,8.66 -8.27,17.32 -1.97,3.15 -1.97,3.15 -4.33,6.3"/>
   <path class="fil4 str1" d="M2163.08 2279.55c1.18,-0.79 1.18,-0.79 2.36,-1.97 2.76,-4.33 2.76,-4.33 5.51,-8.27 0.79,-2.76 0.79,-3.15 1.97,-5.51 0.79,-1.97 0.79,-1.97 1.57,-3.54 2.76,-11.02 2.76,-11.02 5.51,-21.65"/>
   <path class="fil4 str1" d="M2187.89 1041.75c-11.81,-172.83 -11.81,-172.83 -23.23,-345.67 0.39,-11.42 1.18,-11.42 1.97,-23.23 -0.79,-4.72 -0.79,-4.72 -2.36,-9.84"/>
   <path class="fil4 str1" d="M2186.7 2209.86c-1.18,8.27 -1.18,8.27 -2.76,16.14 -0.79,1.57 -0.79,1.57 -1.57,2.76 -0.39,1.57 -0.39,1.57 -0.79,3.15"/>
   <path class="fil4 str1" d="M2204.42 1667.34c175.59,-76.38 175.59,-76.38 350.79,-152.76 5.12,-3.15 5.51,-3.15 10.63,-6.3 5.12,-4.72 5.12,-4.72 9.84,-9.06 3.94,-5.51 3.94,-5.51 7.87,-11.02 2.76,-5.91 2.76,-5.91 5.12,-11.81 17.32,-55.12 17.32,-55.12 34.65,-110.24 1.97,-8.66 1.97,-8.66 3.54,-17.32 0.39,-9.45 0.39,-9.45 0,-18.9 -1.57,-7.09 -1.57,-7.09 -3.54,-14.17 -17.32,-40.55 -17.32,-40.94 -34.65,-81.5 -2.36,-3.54 -2.36,-3.54 -5.12,-7.48 -25.98,-20.47 -25.98,-20.87 -51.97,-40.94 -8.66,-5.12 -8.66,-5.12 -17.32,-9.45"/>
   <path class="fil4 str1" d="M2514.26 1176.4c-4.72,-0.39 -4.72,-0.39 -9.45,-0.39 -5.12,-0.39 -5.51,-0.39 -10.63,-0.39 -3.15,0.79 -3.15,0.79 -6.3,1.97 -37.8,14.96 -37.8,14.96 -75.2,29.92 -2.76,1.97 -2.76,1.97 -5.12,3.94 -2.76,3.54 -2.76,3.54 -5.12,7.48"/>
   <path class="fil4 str1" d="M2402.45 1218.92c-0.79,4.72 -0.79,4.72 -1.57,9.84 -0.39,32.68 0,32.68 0,65.75 -0.79,10.63 -0.79,10.63 -1.57,21.26 0.79,33.07 0.79,33.07 1.57,66.14 0,33.07 -0.39,33.07 0,66.14 0.79,5.12 0.79,5.12 1.57,10.24 2.36,5.12 2.76,5.12 5.12,10.24 2.36,3.54 2.36,3.54 5.12,6.69"/>
   <path class="fil4 str1" d="M2412.69 1475.22c35.04,-15.75 35.04,-15.75 70.08,-31.5 3.54,-1.97 3.54,-1.97 7.09,-3.94 3.15,-2.76 3.15,-2.76 5.91,-5.91 2.76,-3.54 2.76,-3.54 5.12,-7.09 1.57,-3.54 1.57,-3.54 3.15,-7.48 17.72,-56.3 17.72,-56.3 35.04,-112.6 1.57,-10.24 1.57,-10.24 2.76,-20.47"/>
   <path class="fil4 str1" d="M2541.82 1286.24c-1.18,-9.06 -1.57,-9.06 -3.54,-18.11 -16.54,-40.94 -16.93,-40.55 -34.25,-81.5 -1.57,-2.36 -1.57,-2.36 -3.15,-4.72"/>
   <path class="fil4 str1" d="M2240.64 1451.99c1.57,20.47 1.57,20.47 1.57,40.94 -4.33,25.2 -4.33,25.59 -9.84,50.39 -11.42,24.41 -11.81,24.41 -24.41,48.43"/>
   <path class="fil4 str1" d="M2306 1282.7c7.48,1.97 7.48,2.36 14.96,4.72 4.72,2.76 4.72,2.76 9.45,5.51 2.36,1.97 2.36,1.97 4.72,3.54 1.57,1.18 1.57,1.18 3.54,1.97"/>
   <path class="fil4 str1" d="M2304.81 1222.85c5.51,1.57 5.51,1.97 10.63,3.15 7.87,1.18 7.87,1.18 15.75,2.36 7.87,0 8.27,0 16.14,-0.39 7.87,-0.79 7.87,-0.79 15.35,-2.36 7.48,-1.97 7.48,-1.97 14.96,-4.33"/>
   <polyline class="fil4 str1" points="1106.78,559.07 1108.75,557.89 1324.11,463.41 1317.81,465.77 "/>
   <polyline class="fil4 str1" points="1176.86,763.01 1293.4,725.22 1197.73,763.41 1195.37,763.8 "/>
   <line class="fil4 str1" x1="1187.49" y1="523.25" x2="1188.67" y2= "521.67" />
   <line class="fil4 str1" x1="1268.59" y1="1573.64" x2="1267.02" y2= "1570.49" />
   <line class="fil4 str1" x1="1396.94" y1="1074.04" x2="1395.76" y2= "1075.22" />
   <polyline class="fil4 str1" points="1281.59,1581.52 1260.33,1541.36 1265.84,1448.84 1256.39,1479.94 1260.33,1541.36 "/>
   <polyline class="fil4 str1" points="1287.89,1389 1265.84,1448.84 1322.93,1362.22 "/>
   <polyline class="fil4 str1" points="2138.67,1339.39 2210.33,1422.46 2231.19,1514.19 2207.57,1582.3 "/>
   <polyline class="fil4 str1" points="1305.6,2186.63 1303.63,2182.3 1300.48,2164.98 1278.44,1491.36 1278.44,1491.75 "/>
   <polyline class="fil4 str1" points="1291.43,1165.77 1312.69,806.32 1289.46,1167.74 "/>
   <polyline class="fil4 str1" points="1293.4,725.22 1297.73,723.64 1304.03,723.25 "/>
   <polyline class="fil4 str1" points="1315.05,2201.59 1321.35,2210.26 1311.51,2198.84 1311.11,2197.66 1311.51,2198.05 "/>
   <polyline class="fil4 str1" points="1304.81,2183.88 1305.6,2187.03 1311.11,2197.66 1307.96,2190.96 "/>
   <polyline class="fil4 str1" points="1312.69,806.32 1313.87,785.85 1313.08,796.08 "/>
   <polyline class="fil4 str1" points="1313.87,783.88 1313.87,785.85 1314.26,775.61 1313.87,783.88 "/>
   <polyline class="fil4 str1" points="1323.71,2212.62 1321.35,2210.26 1324.11,2213.41 1323.71,2213.01 "/>
   <polyline class="fil4 str1" points="1317.02,737.42 1317.02,737.81 1316.63,737.03 1316.23,744.9 "/>
   <line class="fil4 str1" x1="1324.11" y1="463.41" x2="1397.73" y2= "430.73" />
   <line class="fil4 str1" x1="1338.67" y1="2263.41" x2="1330.01" y2= "2214.19" />
   <polyline class="fil4 str1" points="1327.65,2217.34 1326.86,2215.77 1327.65,2217.34 "/>
   <polyline class="fil4 str1" points="1326.86,2216.16 1326.07,2215.37 1328.44,2216.95 1326.86,2215.77 "/>
   <polyline class="fil4 str1" points="1326.07,2215.37 1324.11,2213.41 1326.07,2215.37 "/>
   <line class="fil4 str1" x1="1324.11" y1="463.41" x2="1397.73" y2= "429.55" />
   <polyline class="fil4 str1" points="1368.59,2338.21 1368.2,2337.03 1370.96,2344.51 1376.47,2353.17 1377.65,2354.35 1376.47,2353.17 "/>
   <polyline class="fil4 str1" points="1370.96,2344.51 1375.29,2350.81 1370.96,2344.51 "/>
   <polyline class="fil4 str1" points="1375.68,2351.2 1375.29,2350.81 1378.83,2355.93 1385.52,2360.26 1384.74,2359.47 "/>
   <polyline class="fil4 str1" points="1436.7,2337.03 1437.49,2333.48 1444.58,2324.82 "/>
   <polyline class="fil4 str1" points="1438.67,2328.76 1435.52,2336.24 1435.52,2337.42 "/>
   <line class="fil4 str1" x1="1391.43" y1="2364.59" x2="1391.04" y2= "2364.19" />
   <line class="fil4 str1" x1="1391.04" y1="2364.19" x2="1388.28" y2= "2361.04" />
   <polyline class="fil4 str1" points="1392.22,2365.77 1387.49,2361.83 1387.1,2361.04 1389.85,2363.01 1387.1,2361.04 "/>
   <polyline class="fil4 str1" points="1387.1,2361.04 1385.52,2360.26 1394.19,2367.74 "/>
   <line class="fil4 str1" x1="1396.94" y1="1074.04" x2="1410.33" y2= "1066.95" />
   <polyline class="fil4 str1" points="1402.45,470.1 1404.03,475.22 1403.24,472.85 "/>
   <line class="fil4 str1" x1="1403.24" y1="346.08" x2="1403.24" y2= "346.48" />
   <polyline class="fil4 str1" points="1402.85,353.17 1402.85,335.85 1402.85,344.51 1403.24,346.08 "/>
   <line class="fil4 str1" x1="1402.45" y1="324.82" x2="1402.85" y2= "335.85" />
   <polyline class="fil4 str1" points="1415.05,2349.63 1411.9,2340.57 1410.33,2261.04 "/>
   <line class="fil4 str1" x1="1431.98" y1="1237.03" x2="1431.59" y2= "1234.67" />
   <polyline class="fil4 str1" points="1411.51,1009.07 1416.63,1003.96 1418.2,1002.78 "/>
   <polyline class="fil4 str1" points="1419.38,1001.2 1416.63,1003.56 1418.59,1002.38 "/>
   <polyline class="fil4 str1" points="1436.7,543.72 1437.1,545.3 1438.67,561.83 "/>
   <line class="fil4 str1" x1="1420.96" y1="997.26" x2="1421.35" y2= "996.48" />
   <polyline class="fil4 str1" points="1541.43,2339.78 1540.64,2335.85 1532.77,2326.4 "/>
   <polyline class="fil4 str1" points="1431.98,2338.21 1431.59,2337.03 1433.95,2328.37 1441.82,2319.7 "/>
   <polyline class="fil4 str1" points="1431.59,1236.63 1431.98,1235.45 1432.37,1236.63 "/>
   <line class="fil4 str1" x1="1431.98" y1="1235.85" x2="1431.98" y2= "1235.45" />
   <polyline class="fil4 str1" points="1431.59,1234.67 1427.65,1229.55 1430.01,1232.7 "/>
   <polyline class="fil4 str1" points="1446.94,1661.83 1446.55,1655.53 1446.94,1665.77 1446.94,1661.83 "/>
   <polyline class="fil4 str1" points="1446.55,1655.53 1437.1,1311.04 1437.49,1317.74 "/>
   <line class="fil4 str1" x1="1465.84" y1="2039.39" x2="1465.44" y2= "2038.21" />
   <line class="fil4 str1" x1="1465.44" y1="2037.42" x2="1463.87" y2= "2033.88" />
   <polyline class="fil4 str1" points="1463.48,2033.48 1463.87,2033.88 1462.3,2029.55 "/>
   <line class="fil4 str1" x1="1607.57" y1="343.33" x2="1483.16" y2= "311.04" />
   <line class="fil4 str1" x1="1477.65" y1="293.33" x2="1650.09" y2= "326.4" />
   <polyline class="fil4 str1" points="1511.9,327.66 1516.23,343.72 1516.63,357.11 "/>
   <line class="fil4 str1" x1="1511.9" y1="2332.3" x2="1511.11" y2= "2332.3" />
   <line class="fil4 str1" x1="1523.71" y1="370.49" x2="1525.68" y2= "371.28" />
   <polyline class="fil4 str1" points="1851.67,246.87 1849.3,247.26 1537.1,371.28 "/>
   <polyline class="fil4 str1" points="1543.79,2340.96 1543.79,2338.21 1543.79,2340.96 "/>
   <line class="fil4 str1" x1="1543.79" y1="2340.96" x2="1541.43" y2= "2339.78" />
   <polyline class="fil4 str1" points="1566.23,2346.87 1566.23,2343.72 1568.2,2344.11 1568.2,2346.87 "/>
   <polyline class="fil4 str1" points="1557.96,2341.36 1557.57,2342.93 1554.42,2350.02 "/>
   <polyline class="fil4 str1" points="1557.96,2341.36 1559.93,2265.37 1559.93,2265.77 "/>
   <polyline class="fil4 str1" points="1556.78,2344.9 1559.93,2347.26 1562.69,2348.84 "/>
   <polyline class="fil4 str1" points="1576.86,2346.87 1578.04,2344.51 1578.04,2342.15 1576.47,2340.18 1565.44,2331.52 1557.96,2334.67 "/>
   <polyline class="fil4 str1" points="1578.04,2342.15 1578.04,2339.39 1576.47,2337.03 1565.44,2328.37 1557.96,2331.52 "/>
   <polyline class="fil4 str1" points="1566.23,2343.72 1564.26,2342.93 1557.96,2338.21 1565.05,2335.06 1573.71,2341.75 1574.5,2343.33 1574.11,2344.51 1574.11,2342.54 "/>
   <polyline class="fil4 str1" points="1567.02,2359.47 1568.99,2358.29 1589.07,2350.02 1589.07,2346.87 1586.31,2344.9 1566.23,2353.17 1562.3,2355.93 "/>
   <polyline class="fil4 str1" points="1564.26,2357.5 1566.23,2356.32 1586.31,2348.05 1586.31,2344.9 "/>
   <line class="fil4 str1" x1="1565.44" y1="2331.52" x2="1565.44" y2= "2328.37" />
   <polyline class="fil4 str1" points="1576.07,2436.24 1576.07,2432.7 1576.07,2436.24 "/>
   <line class="fil4 str1" x1="1576.07" y1="2405.14" x2="1576.07" y2= "2401.99" />
   <polyline class="fil4 str1" points="1606.39,2361.04 1576.07,2373.64 1576.07,2376.79 1578.83,2378.76 1592.22,2373.25 1600.09,2379.55 1590.25,2387.81 1593.4,2390.57 1604.03,2381.12 "/>
   <polyline class="fil4 str1" points="1617.81,2379.15 1618.99,2377.19 1618.99,2371.67 1617.41,2369.7 1606.78,2361.04 1606.39,2361.04 1606.39,2363.8 1576.07,2376.79 "/>
   <line class="fil4 str1" x1="1576.07" y1="2371.28" x2="1576.07" y2= "2368.13" />
   <polyline class="fil4 str1" points="1600.09,2355.93 1600.09,2358.68 1580.01,2367.34 1575.68,2368.13 "/>
   <polyline class="fil4 str1" points="1600.09,2358.68 1602.85,2361.04 1582.77,2369.31 1576.07,2370.89 "/>
   <line class="fil4 str1" x1="1589.07" y1="2350.02" x2="1586.31" y2= "2348.05" />
   <polyline class="fil4 str1" points="1598.12,2377.97 1590.25,2385.06 1590.25,2387.81 "/>
   <line class="fil4 str1" x1="1609.15" y1="2376.4" x2="1609.15" y2= "2379.55" />
   <polyline class="fil4 str1" points="1596.15,2371.67 1606,2367.34 1614.66,2374.43 1615.44,2376 1615.05,2377.19 1615.05,2375.22 "/>
   <polyline class="fil4 str1" points="1600.09,2355.93 1602.85,2357.89 1602.85,2361.04 "/>
   <line class="fil4 str1" x1="1606.78" y1="2376.4" x2="1606.78" y2= "2379.15" />
   <polyline class="fil4 str1" points="1606.39,2363.8 1617.41,2372.85 1618.99,2374.82 "/>
   <polyline class="fil4 str1" points="1616.63,2389.78 1617.81,2393.33 1617.81,2396.48 1615.05,2396.48 1612.69,2387.03 1612.69,2383.88 1627.65,2388.21 1627.65,2391.36 1612.69,2387.03 "/>
   <polyline class="fil4 str1" points="1617.81,2396.48 1615.84,2389.39 1626.86,2392.93 1627.65,2391.36 "/>
   <polyline class="fil4 str1" points="1718.99,2194.9 1717.02,2191.75 1715.05,2177.19 1715.05,2157.89 "/>
   <line class="fil4 str1" x1="1715.05" y1="2179.55" x2="1715.05" y2= "2178.76" />
   <polyline class="fil4 str1" points="1715.05,2173.64 1714.26,2157.89 1713.87,2155.93 "/>
   <polyline class="fil4 str1" points="1827.65,2418.52 1828.44,2419.31 1825.68,2416.56 1824.11,2416.16 "/>
   <polyline class="fil4 str1" points="1784.34,2412.62 1780.8,2406.32 1780.01,2380.73 1780.01,2381.12 "/>
   <line class="fil4 str1" x1="1780.01" y1="2380.73" x2="1780.01" y2= "2376.4" />
   <line class="fil4 str1" x1="1811.51" y1="260.65" x2="1809.15" y2= "263.41" />
   <polyline class="fil4 str1" points="1830.01,2420.49 1835.52,2425.61 1829.22,2419.7 1830.01,2420.49 "/>
   <line class="fil4 str1" x1="1829.22" y1="2419.7" x2="1828.44" y2= "2419.31" />
   <polyline class="fil4 str1" points="1863.87,2442.93 1844.19,2433.09 1835.52,2425.61 1844.19,2433.09 "/>
   <line class="fil4 str1" x1="1845.76" y1="2192.93" x2="1842.22" y2= "2197.26" />
   <line class="fil4 str1" x1="1824.5" y1="504.35" x2="1924.11" y2= "456.32" />
   <line class="fil4 str1" x1="1840.25" y1="328.37" x2="1842.22" y2= "335.85" />
   <polyline class="fil4 str1" points="1843.4,283.09 1843,283.09 1852.45,270.89 "/>
   <polyline class="fil4 str1" points="1847.33,1982.7 1848.12,1972.46 1847.33,1980.73 "/>
   <line class="fil4 str1" x1="1847.73" y1="1974.82" x2="1847.73" y2= "1976" />
   <line class="fil4 str1" x1="1847.73" y1="1975.22" x2="1847.73" y2= "1976.4" />
   <polyline class="fil4 str1" points="1849.7,1941.75 1848.52,1966.56 1847.33,1981.91 "/>
   <polyline class="fil4 str1" points="1849.7,1941.75 1849.7,1931.52 1849.7,1941.75 "/>
   <polyline class="fil4 str1" points="1849.7,1931.52 1854.81,1594.11 1854.81,1604.35 "/>
   <polyline class="fil4 str1" points="1854.81,1594.11 1856,1522.46 1856,1532.7 "/>
   <line class="fil4 str1" x1="1847.33" y1="355.93" x2="1845.76" y2= "349.23" />
   <line class="fil4 str1" x1="1856" y1="1522.46" x2="1860.33" y2= "1255.93" />
   <line class="fil4 str1" x1="1859.93" y1="1266.56" x2="1859.93" y2= "1256.71" />
   <polyline class="fil4 str1" points="1922.53,2286.63 1921.74,2313.01 1918.59,2318.13 "/>
   <polyline class="fil4 str1" points="1875.68,2319.7 1871.35,2314.59 1869.78,2308.68 1868.99,2283.09 1869.38,2283.48 "/>
   <polyline class="fil4 str1" points="1940.25,451.2 1938.28,452.78 1870.17,482.3 "/>
   <line class="fil4 str1" x1="1882.37" y1="2323.25" x2="1875.68" y2= "2319.7" />
   <polyline class="fil4 str1" points="1909.15,434.67 1908.36,434.27 1923.71,435.06 "/>
   <line class="fil4 str1" x1="1922.53" y1="2286.63" x2="1922.53" y2= "2287.03" />
   <line class="fil4 str1" x1="1949.7" y1="459.47" x2="1949.7" y2= "440.96" />
   <polyline class="fil4 str1" points="2006,482.3 2013.87,479.15 2014.26,472.85 1955.21,426 "/>
   <polyline class="fil4 str1" points="2010.72,2420.49 2012.69,2416.95 2010.72,2420.49 1991.43,2436.24 1983.56,2439.39 "/>
   <polyline class="fil4 str1" points="2096.94,2365.77 2147.73,2293.33 2152.45,2289.39 2148.91,2292.54 2150.88,2290.57 "/>
   <polyline class="fil4 str1" points="2091.82,1075.22 2086.31,1071.28 2002.06,1030.73 "/>
   <line class="fil4 str1" x1="2012.69" y1="2416.95" x2="2013.87" y2= "2414.19" />
   <polyline class="fil4 str1" points="2013.87,479.15 2088.67,448.05 2108.36,442.93 "/>
   <polyline class="fil4 str1" points="2026.86,491.75 2028.04,491.75 2027.26,491.75 "/>
   <polyline class="fil4 str1" points="2045.37,466.16 2045.76,464.19 2048.52,461.83 2052.45,461.04 2058.36,460.65 "/>
   <polyline class="fil4 str1" points="2099.7,468.13 2100.09,467.74 2090.64,480.33 2090.64,479.94 "/>
   <line class="fil4 str1" x1="2100.88" y1="2109.47" x2="2109.15" y2= "2096.48" />
   <line class="fil4 str1" x1="2242.61" y1="1298.05" x2="2242.22" y2= "1296.87" />
   <line class="fil4 str1" x1="2104.42" y1="2104.74" x2="2104.81" y2= "2103.56" />
   <line class="fil4 str1" x1="2122.14" y1="2053.96" x2="2122.53" y2= "2044.11" />
   <line class="fil4 str1" x1="2144.58" y1="1346.08" x2="2122.53" y2= "2044.11" />
   <line class="fil4 str1" x1="2147.33" y1="2294.11" x2="2147.73" y2= "2293.33" />
   <polyline class="fil4 str1" points="2152.45,2289.39 2161.11,2282.7 2152.45,2289.39 "/>
   <polyline class="fil4 str1" points="2156.78,662.62 2178.83,653.17 2194.58,641.75 "/>
   <line class="fil4 str1" x1="2163.87" y1="2278.76" x2="2161.11" y2= "2282.7" />
   <polyline class="fil4 str1" points="2153.24,674.43 2195.37,1122.85 2196.15,1129.15 "/>
   <polyline class="fil4 str1" points="2153.24,665.37 2155.21,664.19 2152.85,668.52 "/>
   <line class="fil4 str1" x1="2155.21" y1="664.19" x2="2156.78" y2= "662.62" />
   <polyline class="fil4 str1" points="2170.56,632.3 2156,631.52 2156.39,631.91 "/>
   <line class="fil4 str1" x1="2180.01" y1="2238.6" x2="2172.93" y2= "2263.8" />
   <polyline class="fil4 str1" points="2170.17,2248.05 2176.07,2240.57 2181.59,2231.91 2180.01,2238.6 2181.19,2233.48 "/>
   <polyline class="fil4 str1" points="2167.81,2222.46 2168.59,2218.13 2167.81,2225.22 2166.23,2233.09 "/>
   <line class="fil4 str1" x1="2168.59" y1="2218.13" x2="2190.64" y2= "1530.73" />
   <line class="fil4 str1" x1="2164.26" y1="663.01" x2="2166.63" y2= "672.85" />
   <line class="fil4 str1" x1="2163.48" y1="659.86" x2="2164.26" y2= "663.01" />
   <line class="fil4 str1" x1="2185.92" y1="2213.01" x2="2186.7" y2= "2209.86" />
   <polyline class="fil4 str1" points="2207.18,1584.27 2207.18,1583.88 2186.7,2210.65 2186.31,2213.01 "/>
   <line class="fil4 str1" x1="2200.09" y1="1172.07" x2="2198.91" y2= "1151.99" />
   <polyline class="fil4 str1" points="2204.81,1146.87 2198.91,1137.42 2197.73,1133.88 2199.7,1138.6 "/>
   <polyline class="fil4 str1" points="2209.93,1151.59 2205.21,1146.48 2200.09,1139 "/>
   <polyline class="fil4 str1" points="2197.73,1133.09 2197.73,1133.88 2196.15,1129.15 "/>
   <polyline class="fil4 str1" points="2500.88,1181.91 2495.76,1179.15 2489.85,1178.37 2482.77,1179.94 2439.07,1197.26 "/>
   <polyline class="fil4 str1" points="2209.15,1531.12 2207.18,1583.88 2221.74,1544.9 2231.19,1514.19 2227.26,1452.38 "/>
   <polyline class="fil4 str1" points="2209.93,1151.59 2224.11,1163.41 2216.63,1157.5 "/>
   <polyline class="fil4 str1" points="2216.63,1157.5 2285.52,1214.59 2275.29,1206.32 "/>
   <line class="fil4 str1" x1="2224.11" y1="1163.41" x2="2292.61" y2= "1218.13" />
   <polyline class="fil4 str1" points="2224.11,1163.41 2293.4,1217.34 2304.81,1222.85 "/>
   <polyline class="fil4 str1" points="2242.22,1293.72 2242.61,1294.51 2242.22,1292.54 "/>
   <line class="fil4 str1" x1="2285.52" y1="1214.59" x2="2298.91" y2= "1225.61" />
   <polyline class="fil4 str1" points="2305.6,1282.3 2306,1282.7 2302.45,1279.94 2305.6,1282.3 2304.03,1281.91 2304.81,1282.3 "/>
   <line class="fil4 str1" x1="2338.67" y1="1298.44" x2="2338.28" y2= "1298.44" />
   <line class="fil4 str1" x1="2377.65" y1="1221.28" x2="2374.89" y2= "1222.07" />
   <polyline class="fil4 str1" points="2393.79,1214.98 2398.12,1213.01 2377.65,1221.28 2378.44,1220.89 "/>
   <polyline class="fil4 str1" points="2398.12,1213.01 2412.69,1207.5 2412.69,1475.22 "/>
   <line class="fil4 str1" x1="2408.36" y1="1209.07" x2="2418.59" y2= "1205.14" />
   <line class="fil4 str1" x1="1407.18" y1="327.97" x2="1412.69" y2= "322.46" />
   <polyline class="fil4 str1" points="1574.11,2344.51 1572.53,2345.69 1568.2,2346.87 "/>
   <polyline class="fil4 str1" points="1609.15,2376.4 1611.51,2376 1614.66,2374.43 "/>
   <polyline class="fil4 str1" points="1609.15,2379.55 1613.48,2378.37 1615.05,2377.19 "/>
   <polyline class="fil4 str1" points="1568.2,2344.11 1570.56,2343.33 1573.71,2341.75 "/>
   <path class="fil4 str1" d="M1402.69 344c-0.13,-0.92 -0.2,-1.85 -0.2,-2.78 0,-18.24 25.63,-33.03 57.24,-33.03 8.03,0 15.98,0.98 23.31,2.86"/>
   <path class="fil4 str1" d="M1407.18 328.09c6.45,-8.59 18.93,-15.21 34.3,-18.19"/>
   <path class="fil4 str1" d="M1441.47 309.9c5.87,-1.13 12.04,-1.72 18.24,-1.72 22.52,0 42.96,7.63 52.2,19.48"/>
   <path class="fil4 str1" d="M2093.91 475.85c20.37,-4.47 49.44,22.93 66.57,63.28 17.92,42.22 16.45,83.61 -3.31,93.28"/>
   <path class="fil4 str1" d="M2092.57 485.93c18.33,-1.48 42.95,22.89 57.67,57.55 14.17,33.37 15.14,66.94 2.35,80.34"/>
   <path class="fil4 str1" d="M2156.63 631.79c-20.1,-5.74 -43.29,-32.14 -57.83,-66.39 -13.55,-31.91 -17.06,-64.72 -9.01,-84.23"/>
   <path class="fil4 str1" d="M1402.53 324.74c0,-0.08 0,-0.16 0,-0.23 0,-18.22 25.58,-32.99 57.13,-32.99 6.11,0 12.2,0.57 17.99,1.68"/>
   <ellipse class="fil4 str1" transform="matrix(-0.386292 -0.922376 0.922376 -0.386292 2139.5 548.13)" rx="112.2" ry="53.54"/>
   <path class="fil4 str1" d="M1195.41 763.72c-26.91,7.81 -66.51,-28.63 -89.69,-83.23 -22.27,-52.46 -22.06,-104.59 0.48,-120.97"/>
   <path class="fil4 str1" d="M1870.84 2435.37c-21.42,-9.09 -34.08,-23.52 -34.08,-38.86 0,-26.61 37.38,-48.19 83.47,-48.18 46.09,0 83.46,21.59 83.46,48.2 0,12.86 -8.92,25.19 -24.74,34.24"/>
   <path class="fil4 str1" d="M1870.84 2435.37c-21.43,-9.08 -34.09,-23.52 -34.09,-38.87 0,-0.46 0.01,-0.93 0.03,-1.38"/>
   <path class="fil4 str1" d="M2002.69 2389.15c0.64,2.43 0.98,4.89 0.98,7.35 0,12.85 -8.92,25.19 -24.72,34.22"/>
   <g>
    <path class="fil4 str2" d="M1783.95 2199.63c-2.36,0 -2.36,0 -4.72,-0.39 -9.45,1.18 -9.45,1.18 -18.9,2.36 -3.94,0.79 -3.94,0.79 -7.48,1.97"/>
    <path class="fil4 str2" d="M1763.87 2266.56c6.3,0.79 6.3,0.79 12.2,1.57 6.3,0.39 6.3,0.39 12.6,0.79 7.09,-1.57 7.09,-1.57 13.78,-3.15"/>
    <polyline class="fil4 str2" points="1722.53,2228.37 1728.83,2217.74 1740.64,2208.68 1809.93,2263.8 1809.93,2248.84 "/>
    <polyline class="fil4 str2" points="1721.74,2233.09 1718.99,2213.41 1718.99,2173.25 1774.5,2150.02 1774.5,2190.57 1752.85,2203.56 1752.85,2197.66 1740.64,2187.81 1752.85,2182.3 1752.85,2197.66 "/>
    <polyline class="fil4 str2" points="1718.99,2213.41 1740.64,2208.68 1740.64,2187.81 "/>
    <polyline class="fil4 str2" points="1750.88,2263.41 1738.67,2258.68 1726.07,2252.78 1723.32,2241.36 "/>
    <polyline class="fil4 str2" points="1752.85,2203.56 1822.14,2258.68 1843.79,2245.69 1843.79,2205.53 1836.7,2166.95 1836.7,2206.32 1839.46,2226 "/>
    <polyline class="fil4 str2" points="1778.83,2267.74 1783.56,2268.13 1802.85,2265.77 1796.55,2266.95 "/>
    <polyline class="fil4 str2" points="1774.5,2190.57 1786.7,2196.08 1798.91,2200.81 "/>
    <polyline class="fil4 str2" points="1774.5,2150.02 1836.7,2166.16 1836.7,2166.95 "/>
    <polyline class="fil4 str2" points="1812.3,2204.35 1824.5,2205.93 1836.7,2206.32 "/>
    <line class="fil4 str2" x1="1843.79" y1="2245.69" x2="1841.04" y2= "2234.27" />
    <polyline class="fil4 str2" points="1840.25,2239 1833.95,2249.63 1822.14,2258.68 "/>
    <line class="fil4 str2" x1="1809.93" y1="2263.8" x2="1802.85" y2= "2265.77" />
    <path class="fil4 str2" d="M1777.18 2268.01c-31.13,-1.3 -55.25,-16.27 -55.25,-34.29 0,-1.83 0.26,-3.68 0.76,-5.48"/>
    <path class="fil4 str2" d="M1779.66 2199.39c0.59,-0.01 1.21,-0.02 1.81,-0.02 32.87,0 59.52,15.4 59.52,34.37 0,1.81 -0.26,3.63 -0.74,5.41"/>
   </g>
   <path class="fil4 str1" d="M1281.86 1595.26c-23.18,-33.7 -35.13,-69.75 -35.12,-106.01 0.02,-158.43 222.57,-286.9 497,-286.88 274.42,0.02 496.95,128.54 496.94,286.97 -0,35.48 -11.47,70.72 -33.68,103.79"/>
   <path class="fil4 str1" d="M1288.04 1388.96c72.04,-109.07 253.41,-181.19 455.67,-181.19 244.6,0 451.45,104.68 483.48,244.65"/>
   <ellipse class="fil4 str1" transform="matrix(-0.622815 0.782369 -0.782369 -0.622815 2479.42 1313.33)" rx="38.98" ry="25.98"/>
   <g>
    <line class="fil4 str2" x1="1853.24" y1="2556.32" x2="1853.24" y2= "2503.96" />
    <line class="fil4 str2" x1="1860.72" y1="2450.02" x2="1860.72" y2= "2487.81" />
    <polyline class="fil4 str2" points="1873.71,2536.24 1886.7,2528.37 1877.26,2534.27 "/>
    <line class="fil4 str2" x1="1890.25" y1="2520.89" x2="1868.99" y2= "2533.88" />
    <line class="fil4 str2" x1="1868.99" y1="2481.52" x2="1889.46" y2= "2468.92" />
    <line class="fil4 str2" x1="1870.96" y1="2435.45" x2="1870.96" y2= "2394.51" />
    <line class="fil4 str2" x1="1874.89" y1="2432.7" x2="1891.43" y2= "2422.46" />
    <line class="fil4 str2" x1="1884.74" y1="2377.97" x2="1888.67" y2= "2375.61" />
    <line class="fil4 str2" x1="1886.7" y1="2528.37" x2="1893.4" y2= "2524.04" />
    <polyline class="fil4 str2" points="1892.22,2529.55 1900.09,2524.82 1896.15,2522.46 "/>
    <line class="fil4 str2" x1="1892.61" y1="2524.82" x2="1894.58" y2= "2523.64" />
    <line class="fil4 str2" x1="1900.09" y1="2524.82" x2="1900.09" y2= "2520.89" />
    <line class="fil4 str2" x1="1934.34" y1="2526.4" x2="1949.7" y2= "2517.34" />
    <line class="fil4 str2" x1="1946.15" y1="2576.79" x2="1967.02" y2= "2564.19" />
    <line class="fil4 str2" x1="1942.61" y1="2570.1" x2="1963.08" y2= "2557.89" />
    <line class="fil4 str2" x1="1959.54" y1="2520.1" x2="1942.61" y2= "2530.73" />
    <line class="fil4 str2" x1="1968.99" y1="2568.13" x2="1950.88" y2= "2579.15" />
    <line class="fil4 str2" x1="1976.86" y1="2400.02" x2="1976.86" y2= "2428.37" />
    <line class="fil4 str2" x1="1987.1" y1="2544.11" x2="1987.1" y2= "2491.75" />
    <line class="fil4 str2" x1="1983.56" y1="2448.05" x2="1983.56" y2= "2480.73" />
    <path class="fil4 str2" d="M1934.5 2526.28c-6.46,3.9 -15.42,6.11 -24.78,6.11 -6.24,0 -12.36,-0.98 -17.7,-2.84"/>
    <path class="fil4 str2" d="M1964.03 2522.38c7.41,4.78 11.5,10.97 11.5,17.38 0,6.71 -4.5,13.17 -12.53,18.02"/>
    <path class="fil4 str2" d="M1942.41 2570.18c-8.53,5.19 -20.39,8.14 -32.79,8.14 -24.93,-0 -45.15,-11.68 -45.15,-26.07 0,-6.75 4.55,-13.24 12.67,-18.1"/>
    <path class="fil4 str2" d="M1888.59 2375.45c9.7,-5.85 23.12,-9.15 37.13,-9.15 28.41,0 51.45,13.31 51.45,29.73 0,1.29 -0.15,2.59 -0.44,3.87"/>
    <path class="fil4 str2" d="M1870.84 2394.35c1.46,-6.22 6.31,-12.01 13.82,-16.54"/>
    <path class="fil4 str2" d="M1853.16 2504.07c0,-0.01 0,-0.02 0,-0.02 0,-8.41 5.63,-16.52 15.71,-22.59"/>
    <path class="fil4 str2" d="M1891.59 2422.58c10.13,-6.12 24.17,-9.58 38.83,-9.58 29.67,0 53.74,13.89 53.74,31.02 0,1.38 -0.17,2.78 -0.48,4.14"/>
    <path class="fil4 str2" d="M1889.42 2469.07c10.69,-6.45 25.46,-10.09 40.91,-10.09 31.26,0 56.61,14.64 56.61,32.68 0,0 0,0.01 0,0.01"/>
    <path class="fil4 str2" d="M1860.56 2449.94c1.5,-6.53 6.57,-12.61 14.45,-17.37"/>
    <path class="fil4 str2" d="M1950.68 2579.07c-10.61,6.12 -25.01,9.56 -40.02,9.56 -31.26,0 -56.61,-14.63 -56.61,-32.68 0,-8.15 5.3,-16.02 14.82,-22.04"/>
    <path class="fil4 str2" d="M1946.31 2576.63c-9.57,6.05 -23.12,9.5 -37.31,9.5 -27.89,-0 -50.51,-13.07 -50.51,-29.18 0,-7.74 5.34,-15.18 14.83,-20.64"/>
    <path class="fil4 str2" d="M1889.42 2521.48c10.72,-6.77 25.9,-10.64 41.8,-10.64 31.26,0 56.61,14.63 56.61,32.68 0,8.67 -5.98,16.99 -16.6,23.11"/>
    <path class="fil4 str2" d="M1942.41 2530.61c-8.52,5.13 -20.31,8.04 -32.63,8.04 -10.88,0 -21.41,-2.28 -29.62,-6.39"/>
    <path class="fil4 str2" d="M1893.4 2524.19c9.57,-6.05 23.11,-9.5 37.3,-9.5 27.89,0 50.51,13.07 50.51,29.18 0,7.61 -5.15,14.92 -14.34,20.36"/>
   </g>
   <path class="fil4 str1" d="M1874.46 407.46c-8.62,-11.06 -16.59,-24.66 -22.81,-39.3 -5.59,-13.17 -9.59,-26.8 -11.67,-39.73"/>
   <path class="fil4 str1" d="M1840.09 328.13c-2.98,-17.58 -2.05,-33.31 2.53,-44.4"/>
   <path class="fil4 str1" d="M1909.62 434.67c-10.9,-3.2 -23.37,-12.76 -34.87,-27.16"/>
   <g>
    <path class="fil4 str2" d="M1457.18 2472.07c-11.81,-2.76 -11.81,-2.76 -23.23,-5.51 -3.54,-1.18 -3.54,-0.79 -6.69,-2.36 -15.35,-11.42 -14.96,-11.81 -29.92,-23.62 -1.57,-1.18 -1.57,-1.18 -2.76,-2.76"/>
    <path class="fil4 str2" d="M1426.86 2377.19c-1.18,2.36 -1.18,2.36 -2.36,4.33 -5.12,6.3 -5.51,6.3 -10.63,12.6 -0.39,0.79 -0.39,0.79 -1.18,1.18 -8.66,3.54 -8.66,3.54 -17.32,7.09"/>
    <path class="fil4 str2" d="M1422.93 2395.3c8.66,-4.72 8.66,-4.72 16.93,-9.45 1.97,-0.79 2.36,-0.79 4.33,-1.18 3.15,0 3.15,0 6.69,0"/>
    <path class="fil4 str2" d="M1457.18 2376c10.24,-3.54 10.24,-3.54 20.08,-7.48 2.36,-1.18 2.36,-1.18 4.33,-2.36 1.57,-0.39 1.57,-0.39 2.76,-0.39 1.57,0 1.57,0 3.15,0 11.02,4.72 11.02,5.12 22.44,9.84 1.18,0 1.18,0 1.97,0.39"/>
    <path class="fil4 str2" d="M1540.64 2376c-1.18,-0.39 -1.18,-0.39 -2.76,-0.39 -2.36,0 -2.36,0.39 -5.12,0.39 -10.24,0 -10.24,0 -20.87,0"/>
    <polyline class="fil4 str2" points="1413.48,2453.56 1434.34,2465.37 1457.18,2472.07 "/>
    <polyline class="fil4 str2" points="1394.58,2437.81 1393.79,2436.24 1397.33,2425.22 1401.27,2409.07 1413.87,2394.11 1432.37,2383.48 1457.18,2376 1431.98,2375.61 1429.22,2376 1426.86,2377.19 "/>
    <polyline class="fil4 str2" points="1395.37,2402.38 1394.19,2403.96 1393.79,2405.14 1393.79,2401.99 1393.79,2436.24 "/>
    <polyline class="fil4 str2" points="1413.87,2453.96 1401.67,2440.18 1397.33,2424.04 1393.79,2405.14 "/>
    <polyline class="fil4 str2" points="1393.79,2399.23 1393.79,2398.84 1393.79,2412.22 "/>
    <polyline class="fil4 str2" points="1393.79,2401.99 1393.79,2368.13 1394.19,2366.95 1395.76,2364.98 "/>
    <polyline class="fil4 str2" points="1411.51,2407.89 1412.3,2406.71 1408.36,2420.49 "/>
    <line class="fil4 str2" x1="1412.3" y1="2406.71" x2="1422.93" y2= "2395.3" />
    <line class="fil4 str2" x1="1450.88" y1="2384.67" x2="1449.3" y2= "2387.03" />
    <polyline class="fil4 str2" points="1449.3,2387.03 1450.88,2384.67 1456.78,2385.85 1458.75,2387.42 "/>
    <polyline class="fil4 str2" points="1511.9,2376 1483.95,2373.25 1457.57,2376 "/>
    <polyline class="fil4 str2" points="1457.18,2472.07 1469.78,2474.04 1470.17,2493.33 "/>
    <line class="fil4 str2" x1="1457.57" y1="2472.07" x2="1469.78" y2= "2473.25" />
    <polyline class="fil4 str2" points="1468.2,2396.87 1468.2,2394.51 1468.2,2397.66 1468.2,2394.9 1458.75,2387.42 "/>
    <polyline class="fil4 str2" points="1469.78,2474.04 1468.2,2397.66 1468.2,2401.99 "/>
    <line class="fil4 str2" x1="1468.2" y1="2396.08" x2="1468.2" y2= "2394.51" />
    <line class="fil4 str2" x1="1472.92" y1="2398.73" x2="1472.53" y2= "2398.05" />
    <polyline class="fil4 str2" points="1468.2,2394.9 1472.53,2398.05 1472.14,2397.66 "/>
    <line class="fil4 str2" x1="1483.95" y1="2478.37" x2="1485.52" y2= "2477.58" />
    <polyline class="fil4 str2" points="1483.56,2454.74 1501.67,2447.26 1492.22,2468.92 "/>
    <polyline class="fil4 str2" points="1485.52,2430.33 1483.16,2431.52 1501.27,2423.64 1491.82,2445.3 "/>
    <line class="fil4 str2" x1="1542.61" y1="2377.19" x2="1540.64" y2= "2376" />
    <line class="fil4 str2" x1="1535.13" y1="2500.02" x2="1541.82" y2= "2478.37" />
    <line class="fil4 str2" x1="1537.89" y1="2434.67" x2="1537.89" y2= "2418.52" />
    <line class="fil4 str2" x1="1542.22" y1="2464.19" x2="1556.39" y2= "2453.17" />
    <line class="fil4 str2" x1="1542.22" y1="2455.14" x2="1540.25" y2= "2461.04" />
    <polyline class="fil4 str2" points="1575.68,2367.34 1576.07,2371.28 1576.07,2405.53 "/>
    <line class="fil4 str2" x1="1576.07" y1="2436.24" x2="1576.07" y2= "2405.53" />
    <line class="fil4 str2" x1="1483.56" y1="2454.74" x2="1485.52" y2= "2454.35" />
    <path class="fil4 str2" d="M1501.51 2447.38c0.61,-0.02 1.24,-0.03 1.85,-0.03 22.37,0 40.51,10.48 40.51,23.39 0,2.54 -0.72,5.06 -2.12,7.46"/>
    <ellipse class="fil4 str2" cx="1503.4" cy="2494.07" rx="20.87" ry="11.81"/>
    <path class="fil4 str2" d="M1501.35 2423.8c0.68,-0.02 1.37,-0.03 2.05,-0.03 22.63,0 40.98,10.59 40.98,23.66 0,2.58 -0.74,5.15 -2.17,7.59"/>
    <ellipse class="fil4 str2" cx="1503.4" cy="2494.07" rx="33.46" ry="19.29"/>
    <path class="fil4 str2" d="M1395.76 2364.98c15.35,-12.2 15.35,-12.2 31.1,-24.41 1.97,-1.18 1.97,-1.18 4.33,-1.97 2.76,-0.79 2.76,-0.79 5.51,-1.57"/>
    <path class="fil4 str2" d="M1436.7 2337.03c10.63,-2.36 10.63,-2.36 21.26,-4.72 9.45,-1.57 9.45,-1.57 19.29,-2.76 3.94,-0.39 3.94,-0.39 7.87,-0.79 2.36,0.39 2.36,0.39 5.12,0.39 11.02,1.57 11.02,1.57 21.65,3.15 10.63,2.36 10.63,2.36 20.87,4.72 4.33,1.18 4.33,1.18 8.66,2.76"/>
    <polyline class="fil4 str2" points="1556.39,2453.17 1572.53,2440.96 1575.29,2437.81 1576.07,2436.24 1574.89,2434.27 1572.53,2424.04 1575.68,2407.5 1576.07,2405.53 1575.68,2403.56 1574.11,2402.38 "/>
    <line class="fil4 str2" x1="1554.81" y1="2350.02" x2="1556" y2= "2350.81" />
    <path class="fil4 str2" d="M1574.11 2402.38c-1.97,-0.79 -1.97,-0.79 -3.94,-1.18 -7.09,-3.54 -7.09,-3.54 -14.17,-6.69 -0.79,-0.79 -0.79,-0.79 -1.18,-1.18 -6.3,-8.27 -6.3,-8.27 -12.2,-16.14"/>
    <path class="fil4 str2" d="M1541.43 2339.78c0.34,0.27 3.02,1.7 3.32,1.93 4.57,3.59 4.89,3.87 10.07,8.3 8.66,7.09 8.66,6.69 17.72,13.78 1.57,1.57 1.57,1.57 3.15,3.54"/>
    <polyline class="fil4 str2" points="1511.9,2376 1535.52,2382.7 1556,2394.51 1567.81,2407.89 1572.53,2424.04 1568.59,2439 1556.39,2453.17 1541.04,2462.62 "/>
   </g>
   <path class="fil4 str1" d="M1437.96 2336.83c4,-13.17 23.8,-22.77 46.93,-22.77 23.07,0 42.84,9.57 46.9,22.69"/>
   <path class="fil4 str1" d="M1846.55 278.72c20.36,-4.27 49.31,23.11 66.38,63.31 17.7,41.69 16.51,82.69 -2.69,92.96"/>
   <ellipse class="fil4 str1" transform="matrix(-0.386292 -0.922376 0.922376 -0.386292 1891.94 351.043)" rx="111.81" ry="53.54"/>
   <path class="fil4 str1" d="M1844.74 288.88c19.64,-1.8 43.99,23.04 58.16,58.11 13.42,33.21 13.98,66.44 1.36,79.94"/>
   <path class="fil4 str2" d="M1425.44 2341.48c1.61,-18.3 27.78,-32.67 59.5,-32.67 31.69,0 57.84,14.34 59.48,32.63"/>
  </g>
  <polygon id="Image_x0020_Number.des" class="fil5" points="30,2628.56 317.32,2628.56 317.32,2721.67 30,2721.67 "/>
  <polygon id="_1" class="fil6" points="36.58,2704.01 36.58,2644.34 79.67,2644.34 79.67,2651.34 44.5,2651.34 44.5,2669.67 77.42,2669.67 77.42,2676.67 44.5,2676.67 44.5,2697.01 81.08,2697.01 81.08,2704.01 "/>
  <path id="_2" class="fil6" d="M89.08 2674.56c0,-7.04 0.72,-12.74 2.17,-17.04 1.46,-4.32 3.61,-7.64 6.47,-9.96 2.85,-2.32 6.44,-3.47 10.78,-3.47 3.19,0 6,0.64 8.43,1.93 2.42,1.29 4.42,3.15 5.97,5.58 1.56,2.42 2.78,5.38 3.67,8.86 0.9,3.49 1.35,8.2 1.35,14.1 0,7 -0.72,12.67 -2.15,16.97 -1.43,4.32 -3.58,7.64 -6.44,9.97 -2.85,2.33 -6.46,3.5 -10.82,3.5 -5.74,0 -10.25,-2.04 -13.53,-6.14 -3.93,-5 -5.89,-13.1 -5.89,-24.31zm7.5 0.03c0,9.82 1.14,16.35 3.43,19.57 2.3,3.24 5.13,4.85 8.49,4.85 3.36,0 6.19,-1.63 8.48,-4.86 2.3,-3.25 3.43,-9.76 3.43,-19.56 0,-9.82 -1.14,-16.35 -3.43,-19.57 -2.28,-3.24 -5.14,-4.85 -8.57,-4.85 -3.36,0 -6.06,1.43 -8.07,4.28 -2.51,3.62 -3.76,10.35 -3.76,20.14z"/>
  <path id="_3" class="fil6" d="M135.43 2674.56c0,-7.04 0.72,-12.74 2.17,-17.04 1.46,-4.32 3.61,-7.64 6.47,-9.96 2.85,-2.32 6.44,-3.47 10.78,-3.47 3.19,0 6,0.64 8.43,1.93 2.42,1.29 4.42,3.15 5.97,5.58 1.56,2.42 2.78,5.38 3.67,8.86 0.9,3.49 1.35,8.2 1.35,14.1 0,7 -0.72,12.67 -2.15,16.97 -1.43,4.32 -3.58,7.64 -6.44,9.97 -2.85,2.33 -6.46,3.5 -10.82,3.5 -5.74,0 -10.25,-2.04 -13.53,-6.14 -3.93,-5 -5.89,-13.1 -5.89,-24.31zm7.5 0.03c0,9.82 1.14,16.35 3.43,19.57 2.3,3.24 5.13,4.85 8.49,4.85 3.36,0 6.19,-1.63 8.48,-4.86 2.3,-3.25 3.43,-9.76 3.43,-19.56 0,-9.82 -1.14,-16.35 -3.43,-19.57 -2.28,-3.24 -5.14,-4.85 -8.57,-4.85 -3.36,0 -6.06,1.43 -8.07,4.28 -2.51,3.62 -3.76,10.35 -3.76,20.14z"/>
  <path id="_4" class="fil6" d="M209.28 2704.01l-7.33 0 0 -46.7c-1.76,1.7 -4.08,3.38 -6.94,5.06 -2.86,1.68 -5.44,2.94 -7.72,3.78l0 -7.08c4.1,-1.92 7.68,-4.25 10.75,-7 3.07,-2.74 5.25,-5.39 6.53,-7.97l4.72 0 0 59.92z"/>
  <path id="_5" class="fil6" d="M228.54 2652.09l0 -7 38.58 0 0 5.67c-3.79,4.04 -7.57,9.42 -11.29,16.13 -3.74,6.71 -6.61,13.61 -8.65,20.71 -1.46,4.99 -2.4,10.47 -2.8,16.42l-7.5 0c0.08,-4.69 1,-10.37 2.76,-17.03 1.76,-6.67 4.28,-13.08 7.57,-19.26 3.29,-6.18 6.79,-11.39 10.5,-15.63l-29.17 0z"/>
  <path id="_6" class="fil6" d="M274.47 2688.34l7.67 -0.59c0.57,3.74 1.89,6.54 3.94,8.43 2.06,1.87 4.57,2.82 7.53,2.82 3.57,0 6.56,-1.33 8.99,-3.99 2.42,-2.67 3.63,-6.19 3.63,-10.58 0,-4.18 -1.15,-7.47 -3.47,-9.89 -2.32,-2.41 -5.39,-3.62 -9.21,-3.62 -2.38,0 -4.5,0.54 -6.39,1.62 -1.87,1.09 -3.35,2.49 -4.43,4.21l-6.92 -1 5.75 -30.67 29.58 0 0 7 -23.74 0 -3.18 16.1c3.57,-2.52 7.32,-3.76 11.24,-3.76 5.19,0 9.58,1.8 13.15,5.42 3.57,3.61 5.36,8.25 5.36,13.91 0,5.41 -1.57,10.07 -4.71,14 -3.82,4.83 -9.04,7.25 -15.65,7.25 -5.41,0 -9.83,-1.53 -13.26,-4.57 -3.43,-3.04 -5.39,-7.07 -5.87,-12.09z"/>
  <g id="_1958495882352">
   <g>
    <path id="_0" class="fil7" d="M1294.73 2388.79c0.33,0 0.66,0.02 0.98,0.05l0 -18.28 97.4 28.68 -97.4 28.68 0 -18.28c-0.32,0.03 -0.65,0.05 -0.98,0.05l-260.2 0c-2.34,21.99 -12.04,42.53 -27.76,58.42 -0.12,0.14 -0.24,0.27 -0.37,0.4 -18.42,18.42 -43.2,28.68 -69.26,28.68 -26.06,0 -50.83,-10.26 -69.26,-28.68 -18.42,-18.43 -28.68,-43.2 -28.68,-69.26 0,-26.05 10.26,-50.84 28.69,-69.26 18.43,-18.42 43.2,-28.68 69.26,-28.68 26.06,0 50.83,10.27 69.25,28.69 15.94,15.94 25.78,36.64 28.13,58.81l260.2 0zm-281.23 20.88l-76.35 0c-5.76,0 -10.44,-4.68 -10.44,-10.44 0,-5.76 4.68,-10.44 10.44,-10.44l76.36 0c-2.25,-16.6 -9.85,-32.04 -21.86,-44.06 -14.5,-14.5 -33.99,-22.56 -54.5,-22.56 -20.51,0 -39.99,8.06 -54.49,22.57 -14.5,14.5 -22.57,33.98 -22.57,54.49 0,20.51 8.07,39.99 22.57,54.49 14.5,14.5 33.98,22.57 54.49,22.57 20.51,0 39.99,-8.07 54.49,-22.57 0.12,-0.12 0.24,-0.23 0.27,-0.25 11.84,-11.92 19.36,-27.27 21.6,-43.8z"/>
   </g>
   <g>
    <g>
     <path class="fil6" d="M1302.65 2419.26l0 -40.06 90.46 20.03 -90.46 20.03zm3.88 -23.53c1.93,0 3.5,1.57 3.5,3.5 0,1.93 -1.57,3.5 -3.5,3.5l0 -7zm-369.38 0l369.38 0 0 7 -369.38 0 0 -7zm0 7c-1.93,0 -3.5,-1.57 -3.5,-3.5 0,-1.93 1.57,-3.5 3.5,-3.5l0 7z"/>
    </g>
    <path id="_0_0" class="fil8 str3" d="M1024.65 2399.23c0,-48.33 -39.17,-87.5 -87.5,-87.5 -48.33,0 -87.5,39.17 -87.5,87.5 0,48.33 39.17,87.5 87.5,87.5 48.33,0 87.5,-39.17 87.5,-87.5z"/>
   </g>
  </g>
  <path class="fil6" d="M906.65 2439.01l25.13 -79.56 9.26 0 26.61 79.56 -9.87 0 -7.5 -24.11 -27.5 0 -7.06 24.11 -9.07 0zm18.65 -32.67l22.33 0 -6.83 -22.04c-2.11,-6.76 -3.67,-12.26 -4.65,-16.5 -0.85,5.11 -2.04,10.17 -3.57,15.2l-7.28 23.33z"/>
  <g id="_1958495881152">
   <g>
    <path id="_0_1" class="fil7" d="M2076.48 2515.72c-0.32,-0.09 -0.63,-0.19 -0.94,-0.3l-4.73 17.66 -86.66 -52.91 101.5 -2.49 -4.73 17.67c0.32,0.06 0.64,0.12 0.96,0.21l251.32 67.34c4.87,-12.6 12.35,-24.17 22.12,-33.95 18.43,-18.42 43.2,-28.7 69.26,-28.7 25.87,0 50.48,10.13 68.86,28.31 0.14,0.12 0.27,0.24 0.4,0.37 18.42,18.42 28.68,43.2 28.68,69.26 0,26.06 -10.26,50.83 -28.68,69.26 -18.43,18.42 -43.2,28.68 -69.26,28.68 -26.05,0 -50.84,-10.26 -69.26,-28.69 -18.42,-18.43 -28.68,-43.2 -28.68,-69.26 0,-5.1 0.4,-10.16 1.17,-15.13l-251.32 -67.34zm277.02 52.62l73.77 19.76c5.54,1.48 8.86,7.24 7.39,12.77 -1.48,5.54 -7.24,8.88 -12.78,7.39l-73.76 -19.76c-0.4,3.19 -0.6,6.43 -0.6,9.68 0,20.51 8.06,39.99 22.57,54.49 14.5,14.5 33.98,22.57 54.49,22.57 20.51,0 39.99,-8.07 54.49,-22.57 14.5,-14.5 22.57,-33.98 22.57,-54.49 0,-20.51 -8.07,-39.99 -22.57,-54.49 -0.12,-0.12 -0.23,-0.24 -0.25,-0.27 -14.4,-14.3 -33.81,-22.3 -54.24,-22.3 -20.51,0 -40,8.06 -54.5,22.56 -7.16,7.16 -12.75,15.54 -16.57,24.65z"/>
   </g>
   <g>
    <g>
     <path class="fil6" d="M2076.7 2484.23l-10.37 38.7 -82.19 -42.76 92.56 4.06zm-9.83 21.73c-1.87,-0.5 -2.98,-2.42 -2.48,-4.29 0.5,-1.87 2.42,-2.98 4.29,-2.48l-1.81 6.76zm356.8 95.6l-356.8 -95.6 1.81 -6.76 356.8 95.6 -1.81 6.76zm1.81 -6.76c1.87,0.5 2.98,2.42 2.48,4.29 -0.5,1.87 -2.42,2.98 -4.29,2.48l1.81 -6.76z"/>
    </g>
    <path id="_0_2" class="fil8 str3" d="M2512.07 2598.18c0,-48.33 -39.17,-87.5 -87.5,-87.5 -48.33,0 -87.5,39.17 -87.5,87.5 0,48.33 39.17,87.5 87.5,87.5 48.33,0 87.5,-39.17 87.5,-87.5z"/>
   </g>
  </g>
  <path class="fil6" d="M2444.74 2610.07l8.67 2.67c-1.91,8.93 -5.28,15.57 -10.06,19.96 -4.8,4.39 -10.63,6.59 -17.5,6.59 -6.04,0 -11.2,-1.48 -15.5,-4.43 -4.28,-2.94 -7.78,-7.67 -10.52,-14.19 -2.72,-6.5 -4.09,-14.19 -4.09,-23.04 0,-8.76 1.37,-16.17 4.09,-22.22 2.74,-6.06 6.44,-10.63 11.11,-13.72 4.67,-3.09 9.87,-4.63 15.63,-4.63 6.3,0 11.7,1.96 16.22,5.87 4.52,3.93 7.69,9.67 9.5,17.24l-8.44 2.44c-2.89,-11.04 -8.7,-16.56 -17.44,-16.56 -4.33,0 -8.11,1.11 -11.3,3.33 -3.19,2.22 -5.72,5.69 -7.63,10.39 -1.91,4.7 -2.85,10.65 -2.85,17.85 0,10.87 1.93,19.04 5.76,24.48 3.83,5.44 8.93,8.17 15.3,8.17 4.7,0 8.78,-1.67 12.19,-5.02 3.43,-3.33 5.72,-8.41 6.87,-15.2z"/>
  <g id="_1958495877552">
   <g>
    <path id="_0_3" class="fil7" d="M1943.4 2201.37c-0.32,0.09 -0.64,0.15 -0.96,0.21l4.73 17.67 -101.5 -2.49 86.66 -52.91 4.73 17.66c0.31,-0.11 0.62,-0.21 0.94,-0.3l392.48 -105.17c-0.77,-4.97 -1.17,-10.02 -1.17,-15.13 0,-26.05 10.27,-50.83 28.68,-69.24 18.43,-18.42 43.2,-28.7 69.26,-28.7 25.87,0 50.48,10.13 68.86,28.31 0.14,0.12 0.27,0.24 0.4,0.37 18.42,18.42 28.68,43.2 28.68,69.26 0,26.06 -10.26,50.83 -28.68,69.26 -18.43,18.42 -43.2,28.68 -69.26,28.68 -26.05,0 -50.84,-10.26 -69.26,-28.69 -9.78,-9.78 -17.26,-21.36 -22.13,-33.96l-392.48 105.17zm407.41 -130.78l73.76 -19.76c5.54,-1.48 11.3,1.85 12.78,7.39 1.47,5.54 -1.85,11.29 -7.39,12.77l-73.76 19.76c3.83,9.11 9.41,17.48 16.57,24.64 14.5,14.5 33.98,22.57 54.49,22.57 20.51,0 39.99,-8.07 54.49,-22.57 14.5,-14.5 22.57,-33.98 22.57,-54.49 0,-20.51 -8.07,-39.99 -22.57,-54.49 -0.12,-0.12 -0.23,-0.24 -0.25,-0.27 -14.4,-14.3 -33.81,-22.3 -54.24,-22.3 -20.51,0 -40,8.06 -54.5,22.56 -14.5,14.5 -22.56,33.99 -22.56,54.5 0,3.26 0.2,6.49 0.6,9.68z"/>
   </g>
   <g>
    <g>
     <path class="fil6" d="M1927.87 2173.99l10.37 38.69 -92.56 4.07 82.19 -42.76zm2.35 23.73c-1.87,0.5 -3.79,-0.61 -4.29,-2.48 -0.5,-1.87 0.61,-3.79 2.48,-4.29l1.81 6.76zm497.96 -133.43l-497.96 133.43 -1.81 -6.76 497.96 -133.43 1.81 6.76zm-1.81 -6.76c1.87,-0.5 3.79,0.61 4.29,2.48 0.5,1.87 -0.61,3.79 -2.48,4.29l-1.81 -6.76z"/>
    </g>
    <path id="_0_4" class="fil8 str3" d="M2514.77 2060.91c0,-48.33 -39.17,-87.5 -87.5,-87.5 -48.33,0 -87.5,39.17 -87.5,87.5 0,48.33 39.17,87.5 87.5,87.5 48.33,0 87.5,-39.17 87.5,-87.5z"/>
   </g>
  </g>
  <path class="fil6" d="M2402.66 2100.69l0 -79.56 24.52 0c4.98,0 8.91,0.76 11.81,2.3 2.89,1.54 5.26,3.93 7.11,7.19 1.85,3.26 2.78,6.85 2.78,10.78 0,3.65 -0.8,6.94 -2.39,9.87 -1.61,2.93 -3.85,5.26 -6.76,7.04 3.76,1.37 6.72,3.72 8.89,7.04 2.17,3.31 3.26,7.41 3.26,12.26 0,4.81 -0.98,9.04 -2.96,12.69 -1.96,3.65 -4.59,6.28 -7.87,7.93 -3.3,1.65 -7.81,2.48 -13.56,2.48l-24.83 0zm8.67 -46.11l14.11 0c3.7,0 6.33,-0.26 7.89,-0.76 2.24,-0.76 3.96,-2.04 5.19,-3.83 1.2,-1.8 1.81,-4.24 1.81,-7.33 0,-2.85 -0.56,-5.24 -1.65,-7.15 -1.11,-1.91 -2.57,-3.22 -4.41,-3.94 -1.83,-0.72 -5.11,-1.09 -9.85,-1.09l-13.09 0 0 24.11zm0 36.78l16.22 0c3.57,0 6.2,-0.33 7.91,-0.98 2.46,-0.94 4.33,-2.5 5.61,-4.65 1.28,-2.17 1.93,-4.89 1.93,-8.15 0,-3.02 -0.61,-5.56 -1.85,-7.65 -1.22,-2.09 -2.87,-3.61 -4.94,-4.57 -2.09,-0.96 -5.35,-1.44 -9.8,-1.44l-15.07 0 0 27.44z"/>
 </g>
</svg>
